<?xml version="1.0" encoding="utf-8"?>
<!-- Generator: Adobe Illustrator 18.0.0, SVG Export Plug-In . SVG Version: 6.00 Build 0)  -->
<!DOCTYPE svg PUBLIC "-//W3C//DTD SVG 1.1//EN" "http://www.w3.org/Graphics/SVG/1.1/DTD/svg11.dtd">
<svg version="1.1" id="Layer_1" xmlns="http://www.w3.org/2000/svg" xmlns:xlink="http://www.w3.org/1999/xlink" x="0px" y="0px"
	 viewBox="0 0 1007.2 1080" enable-background="new 0 0 1007.2 1080" xml:space="preserve">
<linearGradient id="SVGID_1_" gradientUnits="userSpaceOnUse" x1="263.9436" y1="225.9898" x2="-170.1635" y2="253.392" gradientTransform="matrix(1.1893 0 0 -1.1893 423.5679 1284.4401)">
	<stop  offset="0" style="stop-color:#FFFFFF"/>
	<stop  offset="1" style="stop-color:#C2DBFF"/>
</linearGradient>
<polygon fill="url(#SVGID_1_)" points="432.9,1048.1 803.1,1048.1 803.1,968.1 497.7,991.3 "/>
<linearGradient id="SVGID_2_" gradientUnits="userSpaceOnUse" x1="497.1041" y1="796.598" x2="-198.2525" y2="824.0136" gradientTransform="matrix(1.1893 0 0 -1.1893 423.5679 1284.4401)">
	<stop  offset="0" style="stop-color:#FFFFFF"/>
	<stop  offset="1" style="stop-color:#C2DBFF"/>
</linearGradient>
<path fill="url(#SVGID_2_)" d="M779.1,86.7C319.2-88.2,460.9,421.7,32.7,400.6c0,0,19.6,23.5,40.9,29.3
	c42.2,11.3,193.7,149,193.7,149C407.9,469.8,566.2,422,751.8,443.6C1015.8,474.4,1103.3,210.1,779.1,86.7z"/>
<path fill="#172182" d="M441.9,234.1c-39.2,13.2-59.9,92.8-65.6,102.8c-5.7,10.1-10.9,11.9-11.9,18.7c-1,6.9,0.1,12.4-6.9,10
	c-9.4-3.2-51-21.1-64.3-27.8c-13.3-6.8-27.2,19.1-13.8,33.8c13.3,14.6,54,35.2,75.4,42.6c21.4,7.5,29.3,9,31.8,0.6
	c4.4-14.9,14.9-8.2,15-16.7c0.1-8.4,0.6-10,6.5-13.7c5.9-3.7,16.3-13.3,16.3-13.3s20.9-35.7,38.9-70.8
	C482.6,262,447,232.4,441.9,234.1z"/>
<path fill="#7622A4" d="M376.4,336.8c-5.7,10.1-10.9,11.9-11.9,18.7c-1,6.9,0.1,12.4-6.9,10c-9.4-3.2-51-21.1-64.3-27.8
	c-4.2-2.1-8.4-1-11.9,1.9c13.7,7,51.5,26.6,64.1,34.7c15.6,9.9,26.8,5.4,32.9,0.2s10.8,5,20-34.8c9.2-39.8,36-61,34.7-100.7
	C407.3,242.8,380.6,329.3,376.4,336.8z"/>
<g>
	<g>
		<path id="SVGID_3_" fill="#FFFFFF" d="M517.3,971.9c1.3,12.1,9.8,33.7,4.2,39.7c-5.6,6.1-38.9,24.5-57.4,32.1
			c-18.6,7.6-39.7,5-45.4-0.8c-10.2-10.5-18.4-18.7-2.5-23.2c23.3-6.7,44.1-23,46.3-45.6C464.6,951.6,517.3,971.9,517.3,971.9z"/>
	</g>
	<g>
		<defs>
			<path id="SVGID_4_" d="M517.3,971.9c1.3,12.1,9.8,33.7,4.2,39.7c-5.6,6.1-38.9,24.5-57.4,32.1c-18.6,7.6-39.7,5-45.4-0.8
				c-10.2-10.5-18.4-18.7-2.5-23.2c23.3-6.7,44.1-23,46.3-45.6C464.6,951.6,517.3,971.9,517.3,971.9z"/>
		</defs>
		<clipPath id="SVGID_6_">
			<use xlink:href="#SVGID_4_"  overflow="visible"/>
		</clipPath>
		<path clip-path="url(#SVGID_6_)" fill="#91BEFF" d="M525.9,989.2c-12.4,17.1-27.8,25.8-41.5,34.3c-13.7,8.3-18.3,10.8-27.6,13.8
			c-15.6,5-40.1-1.3-49.1-12c-7.8-9.3-18.2,14.7-18.2,14.7l42.6,26.4l82.4-34.1c0,0,36.5-22.2,34.8-23.5
			C547.6,1007.2,525.9,989.2,525.9,989.2z"/>
	</g>
</g>
<path fill="#77A9E5" d="M508.3,962.9l-44.1,2.1c0,0,3.9,7,4.8,18.8c0.7,10.3,42.7-2.6,42.5-7.6C511.2,971.2,512.3,973,508.3,962.9z"
	/>
<path fill="#C2DBFF" d="M430.7,512.7c-6.3,67.7-38.9,187.3-40.9,206.9c-2.9,27.8,14,77.1,35.6,159.2c13,49.8,23.5,80,29,91.1
	c4.6,9.5,49.2,3.1,54-7.1c0.1-0.2,0.4-8,0-18.8c-0.4-9,4.5-22.4-0.8-30.8c-5.4-8.6-9.3-12.6-8.1-17.8c1.2-5.2,2.4-10.6-2.4-17
	c-6.7-8.8-9.4-40.8-10.1-41.6c-10.2-51.3-14.6-70-16.4-86.3c-3.2-30.1,48.5-205.6,50.7-264.1C523.1,427.8,430.7,512.7,430.7,512.7z"
	/>
<path fill="#91BEFF" d="M453.2,492.9c-2.4,55.4-36.4,214.7-34.6,232c1.8,17.4-11.7,30.3-8.3,42.5c2.6,9.8,34.1,144.7,52.3,206.8
	c14.4,2.4,42.1-3.3,45.8-11.3c0.1-0.2,0.4-8,0-18.8c-0.4-9,4.5-22.4-0.8-30.8c-5.4-8.6-9.3-12.6-8.1-17.8c1.2-5.2,2.4-10.6-2.4-17
	c-6.7-8.8-9.4-40.8-10.1-41.6c-10.2-51.3-14.6-70-16.4-86.3c-2.4-22.2,39.2-168,54.7-243.3L453.2,492.9z"/>
<g>
	<g>
		<path id="SVGID_5_" fill="#FFFFFF" d="M763,774.1c10.8,3.2,32.1,3.4,35.3,10.3c3.2,6.9,11.1,53.2,11.1,71.7s-13.9,41.1-20.9,44
			c-12.6,5-22.4,9.2-20.7-6.1c2.5-22.1-11.5-59-30-68.7C719.2,815.5,763,774.1,763,774.1z"/>
	</g>
	<g>
		<defs>
			<path id="SVGID_7_" d="M763,774.1c10.8,3.2,32.1,3.4,35.3,10.3c3.2,6.9,11.1,53.2,11.1,71.7s-13.9,41.1-20.9,44
				c-12.6,5-22.4,9.2-20.7-6.1c2.5-22.1-11.5-59-30-68.7C719.2,815.5,763,774.1,763,774.1z"/>
		</defs>
		<clipPath id="SVGID_8_">
			<use xlink:href="#SVGID_7_"  overflow="visible"/>
		</clipPath>
		<path clip-path="url(#SVGID_8_)" fill="#91BEFF" d="M805.5,759.7c-1.7,1-24.9,13.2-24.9,13.2c10.2,16.5,12.2,32.8,14.6,47.5
			c2.4,14.6,6.7,30.8,5.9,39.8c-1.2,15-19.5,39.2-31.8,43.1c-10.7,3.4,6.2,20.7,6.2,20.7l41.7-32.5l0.2-99.2
			C817.5,792.3,807.1,758.8,805.5,759.7z"/>
	</g>
</g>
<path fill="#77A9E5" d="M771.2,778.4c-3.7-1.8-6.8-2.3-15.9-3l-25.2,40.7c0,0,19.1,9.4,26.4,3.6
	C763.6,813.9,774.9,780.2,771.2,778.4z"/>
<path fill="#91BEFF" d="M764.2,772.5c-6.7-1.4-10.5,4-27.9-4.9c-122.5-62.2-134.6-33.2-138.6-48.2c-18.6-69.5,22.5-200-6.8-266.4
	c-42.9-97.3-139.9,37.7-124.9,97c2.9,11.1,19.6,70.9,36.3,150.7c17.4,83.4,32.6,76.2,56,81c47.8,9.6,141.5,13.7,180.7,42.1
	C745.8,828.5,773.7,774.4,764.2,772.5z"/>
<path fill="#C2DBFF" d="M557.3,768.5c-24.1-27.7-18.4-20.6-29.9-52.4c-9.4-26.2-18.3-99.8-21.1-136.5c-3.6-46.5-26.4,11.5-23.5,34.4
	c1.4,11.3,1.4,8.7,18.2,88.5c17.4,83.4,32.6,76.2,56,81C604.8,792.9,570,783.1,557.3,768.5z"/>
<g>
	<g>
		<defs>
			<path id="SVGID_10_" d="M459.3,194.4c10.8,12,10,15.6,8.7,24.3s22.7,24,43.5,12.6c10.9-6.1,12.4-16.8,7.5-25.8
				c-4.9-8.9-19.6-32.3-19.6-32.3L459.3,194.4z"/>
		</defs>
		<clipPath id="SVGID_14_">
			<use xlink:href="#SVGID_10_"  overflow="visible"/>
		</clipPath>
		<path clip-path="url(#SVGID_14_)" fill="none" d="M457.2,175.3c-0.4,1.1,0.5,52.7,13.2,51.7c12.7-0.8,14.9-12.1,8.6-53.4
			C479,173.8,457.5,174.3,457.2,175.3z"/>
	</g>
</g>
<path fill="#95BDE5" d="M579.3,283.7c-13.1,14.7-3.1,38.2-9.5,60.5c-7,24.4-15.6,58.5-15.6,58.5c-17.8-2.5-52.3-6.1-82.3-9.9
	c-11.9-1.5-20.8,15.2-11.7,20.7c26.5,16.1,60.7,19.3,82.2,26.6c18.6,6.4,24.1,3.8,33.7-13.3c7.4-13.3,11.4-40.9,23.2-67.7
	c11.8-26.8,29.9-65.8,15.1-85C599.6,254.9,592.2,269,579.3,283.7z"/>
<path fill="#001F99" d="M519.3,190.2l-47.9,15.6l1,50.3l89.2-35.7l-2.7-25.1C547.3,187.9,519.3,190.2,519.3,190.2z"/>
<g>
	<g>
		<path id="SVGID_12_" fill="#7622A4" d="M425.4,147c-26.8-24.3-1.4-44.1,19.9-62.7c8.4-7.4,44-27.9,59.7-4.2
			c11.4-2.3,20.8,3.1,26.8,28.1c7.4,31.2-2.9,44.8-4.4,71.1l-83-36.9L425.4,147z"/>
	</g>
</g>
<g>
	<defs>
		<path id="SVGID_15_" d="M425.4,147c-26.8-24.3-1.4-44.1,19.9-62.7c8.4-7.4,44-27.9,59.7-4.2c11.4-2.3,20.8,3.1,26.8,28.1
			c7.4,31.2-2.9,44.8-4.4,71.1l-83-36.9L425.4,147z"/>
	</defs>
	<clipPath id="SVGID_16_">
		<use xlink:href="#SVGID_15_"  overflow="visible"/>
	</clipPath>
	<path clip-path="url(#SVGID_16_)" fill="#B7CFF5" d="M482.8,104.1c0.7-3.7,7.8-15,17.1-22.5c0.7-4.2-3.6-7.6-13-1.9
		c-11.8,7.3-12.2,16.1-23,33.7c-9.8,16.1-13.8,12.6-32.5,22.5c-5.6,3-8.6,12.2-8.6,12.2l30.4,1.4l54.6,15.2l3.6-7
		C501.7,144.3,479.2,121.8,482.8,104.1z"/>
</g>
<g>
	<g>
		<path id="SVGID_11_" fill="#95BDE5" d="M498.4,164.3c10.6-6.3,14.6-8.4,14.6-8.4c1.1-3.9,0.6-12.6,8.1-15
			c14.7-4.6,14.4,29.5,7,29.5c-9.5-0.1,6.1,39.2,26.5,52.1c12.7,8-50.2,23.9-65.4,19.7c-26.5-7.1,4.4-45.2-12.7-59.6
			C470.2,177.2,484.7,164,498.4,164.3z"/>
	</g>
	<g>
		<defs>
			<path id="SVGID_17_" d="M498.4,164.3c10.6-6.3,14.6-8.4,14.6-8.4c1.1-3.9,0.6-12.6,8.1-15c14.7-4.6,14.4,29.5,7,29.5
				c-9.5-0.1,6.1,39.2,26.5,52.1c12.7,8-50.2,23.9-65.4,19.7c-26.5-7.1,4.4-45.2-12.7-59.6C470.2,177.2,484.7,164,498.4,164.3z"/>
		</defs>
		<clipPath id="SVGID_18_">
			<use xlink:href="#SVGID_17_"  overflow="visible"/>
		</clipPath>
		<path clip-path="url(#SVGID_18_)" fill="#95BDE5" d="M493.5,196.8c34.7,3.7,34.1,58.5,34.1,58.5c41.3-5.5,86.9-13.6,2-134
			C529.7,121.4,457.1,193,493.5,196.8z"/>
	</g>
	<g>
		<defs>
			<path id="SVGID_19_" d="M498.4,164.3c10.6-6.3,14.6-8.4,14.6-8.4c1.1-3.9,0.6-12.6,8.1-15c14.7-4.6,14.4,29.5,7,29.5
				c-9.5-0.1,6.1,39.2,26.5,52.1c12.7,8-50.2,23.9-65.4,19.7c-26.5-7.1,4.4-45.2-12.7-59.6C470.2,177.2,484.7,164,498.4,164.3z"/>
		</defs>
		<clipPath id="SVGID_20_">
			<use xlink:href="#SVGID_19_"  overflow="visible"/>
		</clipPath>
		<path clip-path="url(#SVGID_20_)" fill="#95BDE5" d="M481.6,201.7l-21.5,6.7c0,0,2,46.1,2.1,47.3c0.1,1.2,42.2-3.8,42.2-3.8
			l-1-20.7C503.5,231.1,481.9,229.4,481.6,201.7z"/>
	</g>
</g>
<path fill="#95BDE5" d="M516.6,156.8c-0.4,2.6-0.1,8.4,3.7,10.1c8.7,3.7,7.6-13.1,5.5-16.9C523.6,146.2,517.8,146.5,516.6,156.8z"/>
<g>
	<g>
		<path id="SVGID_13_" fill="#95BDE5" d="M494.7,149.4c10.5,16.3,29.1,18.3,20.3,33.8c-13,22.8-18.1,23.5-30.2,26.3
			c-11.9,2.6-30.6-19.3-33.2-25.2c-5.2-11.9-4.9-18.8-7-24.1c-2.5-6.1-5.4-6.1-6.5-18.7c0,0,10.9-2.1,20.8-10.8
			c5.8-5.2,13-5,20.8-0.5C487.7,134.8,487.2,137.7,494.7,149.4z"/>
	</g>
	<g>
		<defs>
			<path id="SVGID_21_" d="M494.7,149.4c10.5,16.3,29.1,18.3,20.3,33.8c-13,22.8-18.1,23.5-30.2,26.3c-11.9,2.6-30.6-19.3-33.2-25.2
				c-5.2-11.9-4.9-18.8-7-24.1c-2.5-6.1-5.4-6.1-6.5-18.7c0,0,10.9-2.1,20.8-10.8c5.8-5.2,13-5,20.8-0.5
				C487.7,134.8,487.2,137.7,494.7,149.4z"/>
		</defs>
		<clipPath id="SVGID_22_">
			<use xlink:href="#SVGID_21_"  overflow="visible"/>
		</clipPath>
		<path clip-path="url(#SVGID_22_)" fill="#95BDE5" d="M444,130.1c-12.6,40.2,41.6,12.2,38.9,24.3c-6.4,28.1,8.8,28.2,6.5,38.2
			c-5.4,23.7-24.9,34.6-23.9,34.3l28.4-15.1c-5.5-3,58.2,2.4,52.1-10.2c-6.2-13,13.8-18.1,14.2-24.1C565,77.6,450.1,110.9,444,130.1
			z"/>
	</g>
</g>
<path fill="#FFFFFF" d="M538.3,232.1c-65.2,19.3-84-3.8-84-3.8l-21.4,52l5.5,230.2c0,0,64.3,20.1,140.8,2.4
	C579.3,512.8,603.5,212.8,538.3,232.1z"/>
<path fill="#C2DBFF" d="M473.9,231.2c-6.3-3.3-21.2,19.1-21.2,19.1S399.9,541,415.7,551c15.8,10,31.9,17.1,31.9,17.1
	s38.9-50.9,35.9-84.1c-3-33.1,13.4-103,11.8-131.8c-1.7-28.8,2.4-112.9,2.4-112.9S482.2,235.6,473.9,231.2z"/>
<path fill="#7622A4" d="M630.2,351.3c2.5-20.6-4.3-104.7-22.6-113.3c-19.7-9.4-21.6-11.7-27.1-17.1c-5.6-5.5-21.5-25.5-21.5-25.5
	s-11.7,22.8-47.3,35.9c0,0,10,25.2,10.2,36.5c0.4,16.4-13.3,270.3,72.9,364.5c0,0,97.4-45.3,83.7-74.1
	C616.7,429.5,616.5,465,630.2,351.3z"/>
<path fill="#7622A4" d="M471.4,205.8c0,0-8,21.3-29.5,28.3c-20.3,6.7-20,23.4-22.1,45.1c-5,50-2.9,124.6-5.5,175.9
	c-1.7,33.5-13.7,68.5-26.3,106.7c-10,30.3,39.7,33.5,39.7,33.5s34.4-81.9,36.5-103.7c8.3-85.4-3.3-167.1,8-235.6
	c0.6-3.9,7.1-25.5,7.1-25.5C470.4,215.6,471.4,205.8,471.4,205.8z"/>
<path fill="#95BDE5" d="M297.4,343.4c-7.8-5.7-11.8-22-22.8-30.1c-11.1-8.1-14-2-7.1,3c6.9,5,6.2,8.6,5.1,9.2
	c-1.1,0.6-12.7-4.4-17.7-8c-5-3.6-11.3-3.1-16.2-3c-6.4,0-11.4,7.8-1.9,6.7c4.8-0.6,13.3,1.4,13.9,2.6c-8.3-1.4-23.3-1.9-22.1,6.2
	c0.8,5.8,2.1,9.6,18.9,13.8c17.1,4.3,4.8,10.7,35.8,19.7C283.4,363.5,305.2,349.1,297.4,343.4z"/>
<path fill="#172182" d="M586.2,494.6c-14,5.1,9.9-18,12.8-38.2c3-20.1,15-58.8,10.7-117l-32.6-24.5l-39,105.4V474
	c0,0,20.6,36.2,32.9,31.6c12.5-4.5,53.4-17.8,53.4-17.8l23.8,47.3c-2.1-10.5-23.8-59.8-23.8-59.8S600.2,489.5,586.2,494.6z"/>
<path fill="#7622A4" d="M587.6,242.6c-25,10.5-46.3,147.2-46.7,154c-0.6,6.8,0.4,12.1-5.5,16.5c-5.8,4.4-10.3,9-11.7,14.5
	c-1.3,5.6-14.7,1.3-17.2,10.6s-75.2,50.2-89.8,63.7s5.2,31.2,14.3,28.3s9.4-4.2,27.9-13.6c18.7-9.4,109.3-50.9,121.1-65.8
	c11.7-14.9,53.2-117.7,43.8-147.9C617.3,283.1,612.6,232.2,587.6,242.6z"/>
<path fill="#95BDE5" d="M400.3,510.3c-7.5,1-11.3,3.6-21.5-1.9c-10.2-5.4-19.4,0.1-8.3,5.9c11.1,5.8,13.6,13,2.7,12.5
	c-10.8-0.5-31.2,5-29.7,12.7c1.1,5.9,3.4,6.8,10.8,10.7c7.5,3.9,37,3.1,42.1-0.8c5.1-3.9,20.5-11.4,27.4-16.8
	c6.9-5.2,6.7-16.3-3.4-26.6C420.1,506.1,407.8,509.4,400.3,510.3z"/>
<path fill="#83A9FF" d="M535.3,413.2c-5.8,4.4-10.3,9-11.7,14.5c-1.3,5.6-14.7,1.3-17.2,10.6c-2.5,9.2-73.6,49.4-89.3,63.4
	c15.2,0.2,37.9-8.9,61.8-29.5c30.3-26.2,44.1-23,54.4-33.5c10.2-10.5,16.9-22.8,16.9-22.8l10.1-115.6
	c-11.4,42.1-19.1,92.4-19.5,96.5C540.2,403.4,541.1,408.7,535.3,413.2z"/>
<path fill="#2848BD" d="M393.1,527.1l-118.1-40c-6.9-2.4-16.7-2.4-21.9-0.1l-109.5,47.8c-5.2,2.3-3.9,6.1,3,8.3l118.1,40
	c6.9,2.4,16.7,2.4,21.9,0.1l109.5-47.8c2.1-1,3.2-2.1,3.2-3.4c0-0.5,0.2-5.1,0-5.5C398.5,525.2,396.1,528.2,393.1,527.1z"/>
<path fill="#83A9FF" d="M393.1,521.6l-118.1-40c-6.9-2.4-16.7-2.4-21.9-0.1l-109.5,47.8c-5.2,2.3-3.9,6.1,3,8.3l118.1,40
	c6.9,2.4,16.7,2.4,21.9,0.1L396.1,530C401.3,527.7,399.9,523.9,393.1,521.6z"/>
<path fill="#83A9FF" d="M393.1,521.6l-118.1-40c-6.9-2.4-16.7-2.4-21.9-0.1l-109.5,47.8c-5.2,2.3-3.9,6.1,3,8.3l118.1,40
	c6.9,2.4,16.7,2.4,21.9,0.1L396.1,530C401.3,527.7,399.9,523.9,393.1,521.6z"/>
<path fill="#172182" d="M341.3,510.8L303.2,498c-2.3-0.7-5.4-0.7-7,0l-35.3,15.5c-1.7,0.7-1.3,1.9,1,2.7l38.1,12.8
	c2.3,0.7,5.4,0.7,7,0l35.3-15.5C343.9,512.7,343.5,511.5,341.3,510.8z"/>
<path fill="#2848BD" d="M210.2,466.9c-3.3-6.4-10.5-13.2-15.8-15.1L30.3,392c-5.4-1.9-7,1.7-3.6,8.1l58,110.4
	c3.3,6.4,10.5,13.2,15.8,15.1l164.2,59.7c5.4,1.9,7-1.7,3.6-8.1L210.2,466.9z"/>
<path fill="#172182" d="M208.4,468.4c-3.3-6.4-10.5-13.2-15.8-15.1L28.4,393.6c-5.4-1.9-7,1.7-3.6,8.1l58,110.2
	c3.3,6.4,10.5,13.2,15.8,15.1l164.2,59.7c5.4,1.9,7-1.7,3.6-8.1L208.4,468.4z"/>
<path fill="#95BDE5" d="M365.2,509.2c-1.5,7.5,32,14.5,34,17.4s-5.5-13.9-5.5-13.9C375.5,508,366.9,501.7,365.2,509.2z"/>
<path fill="#91BEFF" d="M777.3,826.5c-22.6,9.5-21.4,21.5-21.3,22c0.1,1.2,1.2,2,2.3,2c0.1,0,0.2,0,0.2,0c1.3-0.1,2.1-1.3,2-2.6
	c0-0.1-0.6-9.2,18.6-17.2c1.2-0.5,1.8-1.9,1.2-3C779.9,826.5,778.5,826,777.3,826.5z"/>
<path fill="#91BEFF" d="M780.1,837.8c-22.6,9.5-21.4,21.5-21.3,22c0.1,1.2,1.2,2,2.3,2c0.1,0,0.1,0,0.2,0c1.2-0.1,2.1-1.3,2-2.5
	c0-0.1-0.5-9.3,18.6-17.2c1.2-0.5,1.8-1.9,1.2-3C782.6,837.9,781.3,837.3,780.1,837.8z"/>
<path fill="#91BEFF" d="M783.3,850.7c-22.6,9.5-21.4,21.5-21.3,22c0.1,1.2,1.2,2,2.3,2c0.1,0,0.1,0,0.2,0c1.2-0.1,2.1-1.3,2-2.5
	c0-0.1-0.5-9.3,18.6-17.2c1.2-0.5,1.8-1.9,1.2-3C785.8,850.8,784.5,850.2,783.3,850.7z"/>
<path fill="#91BEFF" d="M439.6,992.5c-1.1,0.7-1.3,2.1-0.6,3.2c0.7,1.1,2.1,1.3,3.2,0.6c0.1,0,8-4.6,23.7,8.8c0.5,0.4,1,0.6,1.5,0.6
	c0.6,0,1.3-0.2,1.8-0.8c0.8-1,0.7-2.4-0.2-3.2C450.2,985.7,440,992.1,439.6,992.5z"/>
<path fill="#91BEFF" d="M430.7,1000.1c-1.1,0.7-1.3,2.1-0.6,3.1c0.7,1.1,2.1,1.3,3.2,0.7c0.1,0,8-4.6,23.8,8.7
	c0.5,0.4,1,0.6,1.5,0.6c0.6,0,1.3-0.2,1.8-0.8c0.8-1,0.7-2.4-0.2-3.2C441.3,993.3,431.2,999.7,430.7,1000.1z"/>
<path fill="#91BEFF" d="M420.6,1008.8c-1.1,0.7-1.3,2.1-0.6,3.1c0.7,1.1,2.1,1.3,3.2,0.7c0.1,0,8-4.6,23.8,8.7
	c0.5,0.4,1,0.6,1.5,0.6c0.6,0,1.3-0.2,1.8-0.8c0.8-1,0.7-2.4-0.2-3.2C431.2,1002,421.1,1008.5,420.6,1008.8z"/>
<path fill="#FFFFFF" d="M372.3,433.5c-10.5,0-18.9,8.4-18.9,18.9s8.4,18.9,18.9,18.9s18.9-8.4,18.9-18.9S382.8,433.5,372.3,433.5z
	 M372.3,461c-4.8,0-8.6-3.8-8.6-8.6c0-4.8,3.8-8.6,8.6-8.6c4.8,0,8.6,3.8,8.6,8.6C380.9,457.1,377.1,461,372.3,461z"/>
<path fill="#7622A4" d="M381,435.5l-4.8,9.2c2.7,1.4,4.6,4.3,4.6,7.6c0,1.2-0.2,2.3-0.7,3.3l9.5,3.9c1-2.3,1.4-4.8,1.4-7.3
	C391.2,445.1,387.1,438.8,381,435.5z"/>
<rect x="659.4" y="112.4" transform="matrix(0.9639 0.2663 -0.2663 0.9639 61.0204 -172.6051)" fill="#C60983" width="15.1" height="52.6"/>
<rect x="679.2" y="133.8" transform="matrix(0.9639 0.2663 -0.2663 0.9639 65.3281 -177.3788)" fill="#C60983" width="15.1" height="36.9"/>
<rect x="699" y="153.2" transform="matrix(0.9639 0.2663 -0.2663 0.9639 69.3738 -182.2172)" fill="#7622A4" width="15.1" height="23"/>
<rect x="198.2" y="421" transform="matrix(0.3568 0.9342 -0.9342 0.3568 544.8036 65.9237)" fill="#FFFFFF" width="52.6" height="15.1"/>
<rect x="230" y="420.3" transform="matrix(0.3568 0.9342 -0.9342 0.3568 559.4926 43.1108)" fill="#FFFFFF" width="36.9" height="15.1"/>
<rect x="260.4" y="418.6" transform="matrix(0.3568 0.9342 -0.9342 0.3568 572.9542 20.0903)" fill="#7622A4" width="23" height="15.1"/>
<rect x="709.9" y="340.1" transform="matrix(0.785 0.6195 -0.6195 0.785 381.2403 -365.6663)" fill="#C60983" width="15.1" height="52.6"/>
<rect x="722.6" y="368.1" transform="matrix(0.785 0.6195 -0.6195 0.785 396.454 -369.2519)" fill="#C60983" width="15.1" height="36.9"/>
<rect x="736.3" y="394.3" transform="matrix(0.785 0.6195 -0.6195 0.785 411.3076 -373.5511)" fill="#F9329C" width="15.1" height="23"/>
<path fill="#7622A4" d="M866,323.7c-16.7-10-38.4-4.6-48.5,12.2c-10.1,16.8-4.8,38.5,11.9,48.5s38.4,4.6,48.5-12.2
	C888,355.5,882.6,333.7,866,323.7z M861.5,362.4c-4.5,7.6-14.4,10.1-22,5.6s-10-14.4-5.5-22c4.5-7.6,14.4-10.1,22-5.6
	C863.6,344.9,866,354.8,861.5,362.4z"/>
<path fill="#FFFFFF" d="M866,323.7c-11.8-7-25.9-6.4-36.9,0.4l10.1,16.4c5-3.1,11.4-3.3,16.7-0.1c1.9,1.1,3.4,2.6,4.6,4.3l15.6-11.5
	C873.5,329.5,870.2,326.2,866,323.7z"/>
<circle fill="#7622A4" cx="755" cy="257.1" r="42.1"/>
<ellipse transform="matrix(-0.9247 0.3808 -0.3808 -0.9247 1574.8004 242.7449)" fill="#FFFFFF" cx="763.4" cy="277.2" rx="22.5" ry="11.2"/>
<path fill="#FFFFFF" d="M747.3,238.4c-5.9,2.5-8.8,9.3-6.3,15.1c2.5,5.9,10.1,10.8,15.9,8.3c5.9-2.5,8-11.3,5.5-17.1
	C760,238.7,753.3,235.9,747.3,238.4z"/>
<rect x="719.2" y="-391.3" fill="#7622A4" width="288" height="288"/>
<rect x="1070.9" y="-391.3" fill="#C60983" width="288" height="288"/>
<linearGradient id="SVGID_23_" gradientUnits="userSpaceOnUse" x1="1758.1915" y1="-76.8887" x2="1561.4642" y2="-417.6304">
	<stop  offset="0" style="stop-color:#7622A4"/>
	<stop  offset="1" style="stop-color:#C60983"/>
</linearGradient>
<rect x="1515.8" y="-391.3" fill="url(#SVGID_23_)" width="288" height="288"/>
</svg>
