<?xml version="1.0" encoding="utf-8"?>
<!-- Generator: Adobe Illustrator 18.0.0, SVG Export Plug-In . SVG Version: 6.00 Build 0)  -->
<!DOCTYPE svg PUBLIC "-//W3C//DTD SVG 1.1//EN" "http://www.w3.org/Graphics/SVG/1.1/DTD/svg11.dtd">
<svg version="1.1" id="Layer_1" xmlns="http://www.w3.org/2000/svg" xmlns:xlink="http://www.w3.org/1999/xlink" x="0px" y="0px"
	 viewBox="0 0 1044 1080" enable-background="new 0 0 1044 1080" xml:space="preserve">
<linearGradient id="SVGID_1_" gradientUnits="userSpaceOnUse" x1="2531.9656" y1="1422.3317" x2="1099.2609" y2="-482.1183" gradientTransform="matrix(-1.1893 0 0 -1.1893 2898.7273 1284.4401)">
	<stop  offset="0" style="stop-color:#FFFFFF"/>
	<stop  offset="1" style="stop-color:#C2DBFF"/>
</linearGradient>
<path fill="url(#SVGID_1_)" d="M128.2,129.8c357.3-147.5,753.9,53.6,872.6,395.1C1090.5,783,766.3,858,588.3,596
	c-125.1-184.3-188.6-85.5-398.7-114.3C-58.1,447.7,10.4,178.3,128.2,129.8z"/>
<rect x="351.7" y="135.1" transform="matrix(-0.9639 0.2663 -0.2663 -0.9639 748.8379 221.7457)" fill="#C60983" width="15.3" height="53"/>
<rect x="331.9" y="156.7" transform="matrix(-0.9645 0.2641 -0.2641 -0.9645 713.3463 254.8141)" fill="#C60983" width="15.3" height="37.2"/>
<rect x="311.7" y="176.2" transform="matrix(-0.9639 0.2663 -0.2663 -0.9639 677.3149 283.8389)" fill="#7622A4" width="15.3" height="23.2"/>
<rect x="885.2" y="652.1" transform="matrix(-0.3472 0.9378 -0.9378 -0.3472 1846.9962 33.7639)" fill="#7622A4" width="53" height="15.3"/>
<rect x="869" y="651.5" transform="matrix(-0.3472 0.9378 -0.9378 -0.3472 1814.0386 55.6606)" fill="#7622A4" width="37.2" height="15.3"/>
<rect x="852.3" y="650" transform="matrix(-0.3472 0.9378 -0.9378 -0.3472 1780.5396 75.8551)" fill="#C60983" width="23.2" height="15.3"/>
<path fill="#7622A4" d="M101.2,317.7c10.2,16.9,32.1,22.5,49,12.2c16.9-10.1,22.2-32.1,12-49c-10.2-16.9-32.1-22.5-49-12.4
	C96.5,278.8,91.1,300.8,101.2,317.7z M123.4,285.4c7.6-4.6,17.6-2.1,22.2,5.6c4.6,7.7,2.1,17.6-5.5,22.2c-7.6,4.6-17.6,2.1-22.2-5.6
	C113.4,299.9,115.7,290.1,123.4,285.4z"/>
<path fill="#FFFFFF" d="M113.4,268.7c11.8-7.1,26.2-6.5,37.2,0.4l-10.2,16.5c-5-3.1-11.5-3.4-16.9-0.1c-1.9,1.2-3.4,2.6-4.6,4.3
	l-15.7-11.5C105.8,274.4,109.2,271.2,113.4,268.7z"/>
<path fill="#C60983" d="M851.3,442.1c-11.2,16.3-7.1,38.5,9,49.7s38.4,7,49.6-9.3c11.2-16.3,7.1-38.5-9-49.7
	C884.7,421.6,862.6,425.8,851.3,442.1z M867.4,453c5.1-7.4,15.1-9.3,22.5-4.2c7.4,5.1,9.2,15.1,4.2,22.5c-5.1,7.4-15.1,9.3-22.5,4.2
	C864.2,470.5,862.3,460.5,867.4,453z"/>
<path fill="#FFFFFF" d="M864.6,460.1c-0.7,5.8,1.7,11.9,6.8,15.5c1.8,1.3,3.8,2,5.8,2.5l-4,19.1c-4.5-1-8.9-2.7-12.8-5.5
	c-11.4-7.8-16.8-21.2-15.1-34L864.6,460.1z"/>
<linearGradient id="SVGID_2_" gradientUnits="userSpaceOnUse" x1="1661.1714" y1="310.2429" x2="2172.0344" y2="287.5125" gradientTransform="matrix(-1.1893 0 0 -1.1893 2898.7273 1284.4401)">
	<stop  offset="0" style="stop-color:#FFFFFF"/>
	<stop  offset="1" style="stop-color:#C2DBFF"/>
</linearGradient>
<path fill="url(#SVGID_2_)" d="M557.7,836h129.4l8.7,45l-4,33.2l104.1-26.6c0,0,29.7,1.4,44.5,2.4c64.1,4.3,67.1,37.9,2.1,47.6
	c-21.9,3.2-76.1,8.1-76.1,8.1l-193.7,81.3H312.9l74.8-138.2L557.7,836z"/>
<g>
	<g>
		<path id="SVGID_17_" fill="#FFFFFF" d="M520.2,824.5c0.2,15.6,21.9,15.2,36.4,11.5c13.3-3.3,19.1,8.3,11.9,19.7
			c-18.8,29.5-31.2,15-72.7,28.3c-15.8,5.1-29.5-6.8-28.3-13.3c1.8-9.9,6.9-29.4,6.4-42.5C473.5,814.1,520.2,824.5,520.2,824.5z"/>
	</g>
	<g>
		<defs>
			<path id="SVGID_3_" d="M520.2,824.5c0.2,15.6,21.9,15.2,36.4,11.5c13.3-3.3,19.1,8.3,11.9,19.7c-18.8,29.5-31.2,15-72.7,28.3
				c-15.8,5.1-29.5-6.8-28.3-13.3c1.8-9.9,6.9-29.4,6.4-42.5C473.5,814.1,520.2,824.5,520.2,824.5z"/>
		</defs>
		<clipPath id="SVGID_4_">
			<use xlink:href="#SVGID_3_"  overflow="visible"/>
		</clipPath>
		<path clip-path="url(#SVGID_4_)" fill="#95BDE5" d="M516.5,805.6l9.8,16.8c-24.9,32.3-57.9,15.1-60.8,5.6
			C462.5,818.6,516.5,805.6,516.5,805.6z"/>
	</g>
	<g>
		<defs>
			<path id="SVGID_5_" d="M520.2,824.5c0.2,15.6,21.9,15.2,36.4,11.5c13.3-3.3,19.1,8.3,11.9,19.7c-18.8,29.5-31.2,15-72.7,28.3
				c-15.8,5.1-29.5-6.8-28.3-13.3c1.8-9.9,6.9-29.4,6.4-42.5C473.5,814.1,520.2,824.5,520.2,824.5z"/>
		</defs>
		<clipPath id="SVGID_6_">
			<use xlink:href="#SVGID_5_"  overflow="visible"/>
		</clipPath>
		<path clip-path="url(#SVGID_6_)" fill="#91BEFF" d="M476.2,875.6c6.5,4.5,28.7,0.8,36.6-3.8c8-4.6,13.8-6.8,30.4-5
			c16.5,1.8,34.1-20.9,25.3-28.4l20,16.5L573,878.8l-91.5,17.8l-26.5-14.2l12-23.4C467.1,859,465.6,868.3,476.2,875.6z"/>
	</g>
	<g>
		<defs>
			<path id="SVGID_7_" d="M520.2,824.5c0.2,15.6,21.9,15.2,36.4,11.5c13.3-3.3,19.1,8.3,11.9,19.7c-18.8,29.5-31.2,15-72.7,28.3
				c-15.8,5.1-29.5-6.8-28.3-13.3c1.8-9.9,6.9-29.4,6.4-42.5C473.5,814.1,520.2,824.5,520.2,824.5z"/>
		</defs>
		<clipPath id="SVGID_10_">
			<use xlink:href="#SVGID_7_"  overflow="visible"/>
		</clipPath>
		<path clip-path="url(#SVGID_10_)" fill="#77A9E5" d="M516.5,805.6l9.8,16.8c-24.9,32.3-57.9,15.1-60.8,5.6
			C462.5,818.6,516.5,805.6,516.5,805.6z"/>
	</g>
</g>
<g>
	<g>
		<path id="SVGID_19_" fill="#FFFFFF" d="M722.6,857.2c13,13,45.8,13.1,69.6,13c14.3-0.1,15.3,11.8,10.5,15.9
			c-21.3,17.7-60.3,21.6-99.7,34.5c-15,4.9-21.2-7.1-20.1-13.4c1.5-9.4-1.3-27.1-2-39.5C679.9,854,715,849.5,722.6,857.2z"/>
	</g>
	<g>
		<defs>
			<path id="SVGID_11_" d="M722.6,857.2c13,13,45.8,13.1,69.6,13c14.3-0.1,15.3,11.8,10.5,15.9c-21.3,17.7-60.3,21.6-99.7,34.5
				c-15,4.9-21.2-7.1-20.1-13.4c1.5-9.4-1.3-27.1-2-39.5C679.9,854,715,849.5,722.6,857.2z"/>
		</defs>
		<clipPath id="SVGID_12_">
			<use xlink:href="#SVGID_11_"  overflow="visible"/>
		</clipPath>
		<path clip-path="url(#SVGID_12_)" fill="#91BEFF" d="M687.1,907.6c5,5.7,24.4,5.6,31.9,1.2s18.2-11.2,34.1-9.5
			s57.7-12.8,48.9-26.3l17,7.8l-23.3,25.3l-98.9,25.6L671,918.3l10.9-22.4C682.1,895.9,682.1,901.8,687.1,907.6z"/>
	</g>
	<g>
		<defs>
			<path id="SVGID_13_" d="M722.6,857.2c13,13,45.8,13.1,69.6,13c14.3-0.1,15.3,11.8,10.5,15.9c-21.3,17.7-60.3,21.6-99.7,34.5
				c-15,4.9-21.2-7.1-20.1-13.4c1.5-9.4-1.3-27.1-2-39.5C679.9,854,715,849.5,722.6,857.2z"/>
		</defs>
		<clipPath id="SVGID_14_">
			<use xlink:href="#SVGID_13_"  overflow="visible"/>
		</clipPath>
		<path clip-path="url(#SVGID_14_)" fill="#95BDE5" d="M695.2,838c0,0,29.6,21.9,27.7,26.2c-2.6,5.7-18.4,16.2-27.2,16.9
			c-13.9,1.1-22.1-10.8-22.4-16.5C672.9,855,695.2,838,695.2,838z"/>
	</g>
	<g>
		<defs>
			<path id="SVGID_15_" d="M722.6,857.2c13,13,45.8,13.1,69.6,13c14.3-0.1,15.3,11.8,10.5,15.9c-21.3,17.7-60.3,21.6-99.7,34.5
				c-15,4.9-21.2-7.1-20.1-13.4c1.5-9.4-1.3-27.1-2-39.5C679.9,854,715,849.5,722.6,857.2z"/>
		</defs>
		<clipPath id="SVGID_16_">
			<use xlink:href="#SVGID_15_"  overflow="visible"/>
		</clipPath>
		<path clip-path="url(#SVGID_16_)" fill="#95BDE5" d="M516.5,805.6l9.8,16.8c-24.9,32.3-57.9,15.1-60.8,5.6
			C462.5,818.6,516.5,805.6,516.5,805.6z"/>
	</g>
	<g>
		<defs>
			<path id="SVGID_18_" d="M722.6,857.2c13,13,45.8,13.1,69.6,13c14.3-0.1,15.3,11.8,10.5,15.9c-21.3,17.7-60.3,21.6-99.7,34.5
				c-15,4.9-21.2-7.1-20.1-13.4c1.5-9.4-1.3-27.1-2-39.5C679.9,854,715,849.5,722.6,857.2z"/>
		</defs>
		<clipPath id="SVGID_20_">
			<use xlink:href="#SVGID_18_"  overflow="visible"/>
		</clipPath>
		<path clip-path="url(#SVGID_20_)" fill="#95BDE5" d="M695.2,838c0,0,29.6,21.9,27.7,26.2c-2.6,5.7-18.4,16.2-27.2,16.9
			c-13.9,1.1-22.1-10.8-22.4-16.5C672.9,855,695.2,838,695.2,838z"/>
	</g>
</g>
<g>
	<g>
		<path id="SVGID_21_" fill="#91BEFF" d="M243.5,731.8c56,7.1,198.1-90.7,202.9-59.2c10.8,70.4,17.6,33.8,26.5,147
			c1.7,20.7,51.3,14.5,51.3,2.4c0-45.9,3.4-196.1-1.8-217.9c-4.2-17.1-20-32.2-38.9-33.4c-14.6-1-34.7-1.4-59.6,4.4
			c-70.5,16.4-167.2,50.7-207.8,61.5C169.3,649.1,187.5,724.5,243.5,731.8z"/>
	</g>
	<g>
		<defs>
			<path id="SVGID_22_" d="M243.5,731.8c56,7.1,198.1-90.7,202.9-59.2c10.8,70.4,17.6,33.8,26.5,147c1.7,20.7,51.3,14.5,51.3,2.4
				c0-45.9,3.4-196.1-1.8-217.9c-4.2-17.1-20-32.2-38.9-33.4c-14.6-1-34.7-1.4-59.6,4.4c-70.5,16.4-167.2,50.7-207.8,61.5
				C169.3,649.1,187.5,724.5,243.5,731.8z"/>
		</defs>
		<clipPath id="SVGID_23_">
			<use xlink:href="#SVGID_22_"  overflow="visible"/>
		</clipPath>
		<path clip-path="url(#SVGID_23_)" fill="#C2DBFF" d="M597.2,548.6l-65.6,211.1c-9.9-91.5-27.1-181.5-51.3-180.5
			c-32.6,1.3-78.4,14.4-108.8,25c-30.4,10.6-26,43.2-26,43.2l-168.6,34.3l313.4-187.7L597.2,548.6z"/>
	</g>
</g>
<g>
	
		<linearGradient id="SVGID_24_" gradientUnits="userSpaceOnUse" x1="2727.9578" y1="690.5826" x2="1929.9822" y2="235.8701" gradientTransform="matrix(-1.1893 0 0 -1.1893 2898.7273 1284.4401)">
		<stop  offset="0" style="stop-color:#F7FBFF"/>
		<stop  offset="0.854" style="stop-color:#B7CFF5"/>
	</linearGradient>
	<polygon fill="url(#SVGID_24_)" points="486.6,748.7 486.3,963.7 312.9,1027.1 313.2,811.9 	"/>
	
		<linearGradient id="SVGID_26_" gradientUnits="userSpaceOnUse" x1="2134.1372" y1="415.9409" x2="2443.2219" y2="185.6133" gradientTransform="matrix(-1.1893 0 0 -1.1893 2898.7273 1284.4401)">
		<stop  offset="0" style="stop-color:#F7FBFF"/>
		<stop  offset="0.854" style="stop-color:#C2DBFF"/>
	</linearGradient>
	<polygon fill="url(#SVGID_26_)" points="313.2,811.9 312.9,1027.1 142,964.6 142.3,750.7 	"/>
	<polygon fill="#FFFFFF" points="486.4,748.7 313,811.9 142.1,750.7 315.5,687.3 	"/>
</g>
<g>
	<g>
		<path id="SVGID_25_" fill="#91BEFF" d="M194.4,621.6c-1,14.9-33.7,119.5,42.8,128c10.9,1.2,21.9,8.3,35.7,11.5
			c39.6,9,102-3,170.1-30.9c71.7-29.5,79.9-33.1,91-25.6c9.8,6.5,14.3,32.6,45.7,73.3c27.5,35.6,25.9,30.8,95.7,100.7
			c11.9,11.9,53.9-23.8,41.4-36.9c-40.6-42.3-57.8-87.9-107.8-172.9c-24.3-41.4-32.9-63.7-95.3-53.3
			c-70.2,11.8-118.9,20.5-168.2,31.9C243,671.2,194.4,621.6,194.4,621.6z"/>
	</g>
	<g>
		<defs>
			<path id="SVGID_27_" d="M194.4,621.6c-1,14.9-33.7,119.5,42.8,128c10.9,1.2,21.9,8.3,35.7,11.5c39.6,9,102-3,170.1-30.9
				c71.7-29.5,79.9-33.1,91-25.6c9.8,6.5,14.3,32.6,45.7,73.3c27.5,35.6,25.9,30.8,95.7,100.7c11.9,11.9,53.9-23.8,41.4-36.9
				c-40.6-42.3-57.8-87.9-107.8-172.9c-24.3-41.4-32.9-63.7-95.3-53.3c-70.2,11.8-118.9,20.5-168.2,31.9
				C243,671.2,194.4,621.6,194.4,621.6z"/>
		</defs>
		<clipPath id="SVGID_28_">
			<use xlink:href="#SVGID_27_"  overflow="visible"/>
		</clipPath>
		<path clip-path="url(#SVGID_28_)" fill="#C2DBFF" d="M316.3,653.8l289.1-82.2l174.5,185.2l-48.5,116.6
			C686.8,829.1,606.6,683.7,582.9,666c-30-22.4-39.1-41.1-63.7-32.1c-24.7,9-159.5,42-192.9,38.1
			C260.4,664.2,316.3,653.8,316.3,653.8z"/>
	</g>
	<g>
		<defs>
			<path id="SVGID_29_" d="M194.4,621.6c-1,14.9-33.7,119.5,42.8,128c10.9,1.2,21.9,8.3,35.7,11.5c39.6,9,102-3,170.1-30.9
				c71.7-29.5,79.9-33.1,91-25.6c9.8,6.5,14.3,32.6,45.7,73.3c27.5,35.6,25.9,30.8,95.7,100.7c11.9,11.9,53.9-23.8,41.4-36.9
				c-40.6-42.3-57.8-87.9-107.8-172.9c-24.3-41.4-32.9-63.7-95.3-53.3c-70.2,11.8-118.9,20.5-168.2,31.9
				C243,671.2,194.4,621.6,194.4,621.6z"/>
		</defs>
		<clipPath id="SVGID_30_">
			<use xlink:href="#SVGID_29_"  overflow="visible"/>
		</clipPath>
		<path clip-path="url(#SVGID_30_)" fill="#C2DBFF" d="M193.9,644.2c11.7,38.5,73.9,23.5,87.4,56.8c13.4,33.3-27.9,36.7-61.6,30
			c-32.7-6.5-120.5,57.2-120.5,57.2l63.2-194.2C162.4,594.1,177.6,590.4,193.9,644.2z"/>
	</g>
</g>
<linearGradient id="SVGID_31_" gradientUnits="userSpaceOnUse" x1="1937.8525" y1="541.7302" x2="1988.0839" y2="736.5046" gradientTransform="matrix(-1.1893 0 0 -1.1893 2898.7273 1284.4401)">
	<stop  offset="0" style="stop-color:#FFFFFF"/>
	<stop  offset="1" style="stop-color:#F7FBFF"/>
</linearGradient>
<polygon opacity="0.92" fill="url(#SVGID_31_)" enable-background="new    " points="961.9,561.3 660.8,671 167.5,491.4 
	468.6,381.9 "/>
<linearGradient id="SVGID_32_" gradientUnits="userSpaceOnUse" x1="1730.9775" y1="495.6804" x2="1776.0831" y2="608.4446" gradientTransform="matrix(-1.1893 0 0 -1.1893 2898.7273 1284.4401)">
	<stop  offset="0" style="stop-color:#F7FBFF"/>
	<stop  offset="0.854" style="stop-color:#B7CFF5"/>
</linearGradient>
<polygon opacity="0.7" fill="url(#SVGID_32_)" enable-background="new    " points="961.9,575.3 660.8,684.9 660.8,671 961.9,561.3 
	"/>
<linearGradient id="SVGID_33_" gradientUnits="userSpaceOnUse" x1="2115.5989" y1="517.3753" x2="2029.4861" y2="738.8077" gradientTransform="matrix(-1.1893 0 0 -1.1893 2898.7273 1284.4401)">
	<stop  offset="0" style="stop-color:#F7FBFF"/>
	<stop  offset="0.854" style="stop-color:#C2DBFF"/>
</linearGradient>
<polygon opacity="0.7" fill="url(#SVGID_33_)" enable-background="new    " points="660.8,684.9 167.5,505.3 167.5,491.4 660.8,671 
	"/>
<linearGradient id="SVGID_35_" gradientUnits="userSpaceOnUse" x1="2096.6802" y1="672.6741" x2="2062.3013" y2="666.3516" gradientTransform="matrix(-1.1893 0 0 -1.1893 2898.7273 1284.4401)">
	<stop  offset="0" style="stop-color:#FFFFFF"/>
	<stop  offset="1" style="stop-color:#C2DBFF"/>
</linearGradient>
<path fill="url(#SVGID_35_)" d="M438.8,485.8c15.8-3.4,15.7,11.3,15.7,11.3s-16.3-0.7-18.7-0.7S423.1,489.2,438.8,485.8z"/>
<linearGradient id="SVGID_37_" gradientUnits="userSpaceOnUse" x1="2049.2219" y1="680.6804" x2="2037.6136" y2="654.3314" gradientTransform="matrix(-1.1893 0 0 -1.1893 2898.7273 1284.4401)">
	<stop  offset="0" style="stop-color:#F6FAFF"/>
	<stop  offset="0.1729" style="stop-color:#F1F7FF"/>
	<stop  offset="0.3638" style="stop-color:#E4EFFF"/>
	<stop  offset="0.5625" style="stop-color:#CEE2FF"/>
	<stop  offset="0.6507" style="stop-color:#C2DBFF"/>
	<stop  offset="1" style="stop-color:#C2DBFF"/>
</linearGradient>
<path fill="url(#SVGID_37_)" d="M463,468.8c7-2.1,19,0.5,28.7,6.1c4.9,2.9,4.3,8.4,1.5,9.5L465.2,495c-7.1,2.7-15.1,2.7-22.2,0.1
	l-4.3-1.5c-2.7-1-0.4-7.8,1.8-10.6C444.5,477.6,449.9,472.9,463,468.8z"/>
<linearGradient id="SVGID_39_" gradientUnits="userSpaceOnUse" x1="2215.1167" y1="691.0757" x2="1940.6605" y2="576.0514" gradientTransform="matrix(-1.1893 0 0 -1.1893 2898.7273 1284.4401)">
	<stop  offset="0" style="stop-color:#FFFFFF"/>
	<stop  offset="1" style="stop-color:#C2DBFF"/>
</linearGradient>
<path fill="url(#SVGID_39_)" d="M471.3,503.2c-9.2,3.3-32.8,6.9-39.8,13.8c-6.9,6.9-84.4,37.6-84.4,37.6l-29.6-10.8l155.4-52.7
	C479.2,493.3,480.6,499.7,471.3,503.2z"/>
<linearGradient id="SVGID_40_" gradientUnits="userSpaceOnUse" x1="2196.4207" y1="735.6873" x2="1921.9636" y2="620.6625" gradientTransform="matrix(-1.1893 0 0 -1.1893 2898.7273 1284.4401)">
	<stop  offset="0" style="stop-color:#FFFFFF"/>
	<stop  offset="1" style="stop-color:#C2DBFF"/>
</linearGradient>
<path fill="url(#SVGID_40_)" d="M485.7,474.4c1.4,5.1-0.8,6.2-6.3,5.8c-5.4-0.4-16.7-1.7-18.9,6.5c-2.3,8.2-2.4,9.9-2.4,9.9
	s-15.6-2.9-15.9-2.6c-0.2,0.2,21.2-29.7,21.2-29.7L485.7,474.4z"/>
<path fill="#95BDE5" d="M221.1,399.5c22.7,0.2,33.2,31.8,52.4,63.6c19.3,31.9,35.2,44.6,35.2,44.6s11.1,2.5,47-6.2
	c34.7-8.4,18.6-3.4,66.7-13.9c11.5-2.5,7.1,20.3,7.1,20.3c-73,33.8-78.6,37.6-133.2,43.2c-8.4,0.8-14.4-12.2-27.6-26
	c-22-23.1-33.7-32-47.3-56.8C199.5,428.3,198.6,399.2,221.1,399.5z"/>
<path fill="#95BDE5" d="M426.2,481.3c3.7-6.3,8-18.2,14.5-20.6c6.5-2.4,15.8-3.6,19.6-3.6s9.6,3.6,18.6,6.8c8.8,3.2,9.9,10.6,5.8,12
	c-4,1.4-8.9-7-16.7-4.2c-7.7,2.9-17.7,20.6-16.1,22.2c1.8,1.8,8.9,0,14-1.9c5.2-1.9,11.4-4.2,7.6,3.2c-3.9,7.4-30.3,12.7-45.9,12.7
	l-12.2-18.9C415.4,489.2,422.3,487.6,426.2,481.3z"/>
<g>
	<g>
		<path id="SVGID_9_" fill="#7622A4" d="M356.7,417.6c-1.2-3-3.4-5.7-6.4-7.6c-30.7-18.7-82.7-45.7-110.6-43.6
			c-14.2,1-40.7,30.6-39.5,62.1c1,27,7.1,74.7,7.1,126.7c0,38.4-15.7,42.5-20.5,91.5c-4.6,47.6,165.6,60.3,144.3,21.1
			c-18.7-34.5-18.3-87.2,15.9-129.3c13.6-16.8,11.3-49.2,6.5-69C348.3,448.2,359.3,424.3,356.7,417.6z"/>
	</g>
</g>
<g>
	<defs>
		<path id="SVGID_42_" d="M356.7,417.6c-1.2-3-3.4-5.7-6.4-7.6c-30.7-18.7-82.7-45.7-110.6-43.6c-14.2,1-40.7,30.6-39.5,62.1
			c1,27,7.1,74.7,7.1,126.7c0,38.4-15.7,42.5-20.5,91.5c-4.6,47.6,165.6,60.3,144.3,21.1c-18.7-34.5-18.3-87.2,15.9-129.3
			c13.6-16.8,11.3-49.2,6.5-69C348.3,448.2,359.3,424.3,356.7,417.6z"/>
	</defs>
	<clipPath id="SVGID_43_">
		<use xlink:href="#SVGID_42_"  overflow="visible"/>
	</clipPath>
	<path clip-path="url(#SVGID_43_)" fill="#172182" d="M328.9,407.6c37.2,43.3,115,337.3,115,337.3c0,1.2-100.9-18-125.8-28.7
		c0,0-49.6-15.9-45.4-62c7.1-80.6-16.5-65.6-25.7-132.7c-12.6,3.3-37,4.8-44.2-1.8c-21.1-19.4-6.1-74.1,2.4-85.2
		C236.6,393.8,321.8,399.4,328.9,407.6z"/>
</g>
<g>
	<g>
		<path id="SVGID_36_" fill="#95BDE5" d="M310,396c-13.9,1.7-33.3,7.7-47.5,23.4c-14,15.8-41.3,5.2-38.3-17.8
			c3.4-27.1,11.9-33.7,21.4-35.4c9.5-1.7,21.9-32.1,27.2-42.1c5.4-10,38.1-0.2,40.2,12.4c2.1,12.6-7.4,41-3.1,47.3
			c4.3,6.3,11.4,9.9,11.4,9.9L310,396z"/>
	</g>
	<g>
		<defs>
			<path id="SVGID_44_" d="M310,396c-13.9,1.7-33.3,7.7-47.5,23.4c-14,15.8-41.3,5.2-38.3-17.8c3.4-27.1,11.9-33.7,21.4-35.4
				c9.5-1.7,21.9-32.1,27.2-42.1c5.4-10,38.1-0.2,40.2,12.4c2.1,12.6-7.4,41-3.1,47.3c4.3,6.3,11.4,9.9,11.4,9.9L310,396z"/>
		</defs>
		<clipPath id="SVGID_45_">
			<use xlink:href="#SVGID_44_"  overflow="visible"/>
		</clipPath>
		<path clip-path="url(#SVGID_45_)" fill="#95BDE5" d="M278,308.7h22.5l17.6,15.3l-11.5,25.5c-9.9,15.9-6.1,30.7,3.4,46.5
			c9.5,15.8-79.7,47.7-79.7,47.7l-23.4-42.8l24.3-57.4L278,308.7z"/>
	</g>
</g>
<g>
	<g>
		<path id="SVGID_8_" fill="#7622A4" d="M322.3,328.8c6.7-2.9-8.4-31,13.9-40.2c26-10.7,17.5-35.4,7-45.9
			c-12-12-53.2-35.2-90.5-11.4s-36.7,83.4-0.8,113.9c19.3,16.4-45-7.1-75.3,32.3c-16.7,21.6,3.3,24.6,6.3,47
			c3,22.4-20.3,18.2-23.7,47.7c-3.7,32.1,26,48.8,49.5,43.2s22.5-20.8,51.1-22.1c28.7-1.3,42.3-20.8,34.8-39.8
			c-7.5-19-15.8-16.5-16.7-26.5s12.6-15.2,20.7-30.9c10.9-21.3-19.1-28.7-18.8-42.8c0.4-13.1,24.7-21.8,28.9-28.8
			C313.6,316.2,315,331.9,322.3,328.8z"/>
	</g>
</g>
<g>
	<defs>
		<path id="SVGID_46_" d="M322.3,328.8c6.7-2.9-8.4-31,13.9-40.2c26-10.7,17.5-35.4,7-45.9c-12-12-53.2-35.2-90.5-11.4
			s-36.7,83.4-0.8,113.9c19.3,16.4-45-7.1-75.3,32.3c-16.7,21.6,3.3,24.6,6.3,47c3,22.4-20.3,18.2-23.7,47.7
			c-3.7,32.1,26,48.8,49.5,43.2s22.5-20.8,51.1-22.1c28.7-1.3,42.3-20.8,34.8-39.8c-7.5-19-15.8-16.5-16.7-26.5s12.6-15.2,20.7-30.9
			c10.9-21.3-19.1-28.7-18.8-42.8c0.4-13.1,24.7-21.8,28.9-28.8C313.6,316.2,315,331.9,322.3,328.8z"/>
	</defs>
	<clipPath id="SVGID_47_">
		<use xlink:href="#SVGID_46_"  overflow="visible"/>
	</clipPath>
	<path opacity="0.48" clip-path="url(#SVGID_47_)" fill="#95BDE5" enable-background="new    " d="M257.6,451.1
		c-6.9-26.2-13.7-47.3,8.9-77.5c16.9-22.5-25.6-44.7,30.7-89.3c19.9-15.7,11.3-27.7,33.3-29.7c18.9-1.8,27.9,23.2,5.7,34.3
		L316.1,308l14.2,9.2l19.5,3.9l39.8-50.4l-46.3,240.7c0,0-105,31.9-99.9,18.9S260.5,461.7,257.6,451.1z"/>
</g>
<linearGradient id="SVGID_48_" gradientUnits="userSpaceOnUse" x1="2092.2585" y1="498.297" x2="1611.6702" y2="962.0963" gradientTransform="matrix(-1.1893 0 0 -1.1893 2898.7273 1284.4401)">
	<stop  offset="0" style="stop-color:#FFFFFF"/>
	<stop  offset="1" style="stop-color:#C2DBFF"/>
</linearGradient>
<path fill="url(#SVGID_48_)" d="M432.1,410.9L432.1,410.9c5.7-2,11.9-2,17.5,0.1l218.1,79.3l155.2,56.5c3.2,1.2,3.2,5.7,0,6.9
	l-1.8,0.6c-5.5,2-11.5,2-17.1,0.1l-84.4-28.9l-94.1-1.3l-39-47L432,417.8C428.9,416.5,428.9,412.1,432.1,410.9z"/>
<g>
	<g>
		<g>
			<path id="SVGID_41_" fill="#95BDE5" d="M304.7,304.5c-2.7,6.7-5.4,18,0.2,25.2c-9.3,9.3-10.1,24.5-9,24.9
				c15.7,6.3,19.7,7.3,25.6,7.4c12.5,0.2,18.9-37.8,19.7-45c1.3-11.3-3.7-12.7-5.1-23.9c-0.7-6.3,4.4-18.1,4.4-18.1
				c-9.2-4.3-10.7-3.2-20.6,22.5C317.4,303.7,313.2,284,304.7,304.5z"/>
		</g>
		<g>
			<defs>
				<path id="SVGID_49_" d="M304.7,304.5c-2.7,6.7-5.4,18,0.2,25.2c-9.3,9.3-10.1,24.5-9,24.9c15.7,6.3,19.7,7.3,25.6,7.4
					c12.5,0.2,18.9-37.8,19.7-45c1.3-11.3-3.7-12.7-5.1-23.9c-0.7-6.3,4.4-18.1,4.4-18.1c-9.2-4.3-10.7-3.2-20.6,22.5
					C317.4,303.7,313.2,284,304.7,304.5z"/>
			</defs>
			<clipPath id="SVGID_50_">
				<use xlink:href="#SVGID_49_"  overflow="visible"/>
			</clipPath>
			<path clip-path="url(#SVGID_50_)" fill="#95BDE5" d="M308.9,232.4l32.5,7.1c-4.3,4.9,13.7,18,4,30
				c-10.1,12.6-25.1,29.7-20.5,34.3c20.2,20.2-5.4,67.6-25.2,77.4C205.5,428.3,306.9,232.4,308.9,232.4z"/>
		</g>
	</g>
	<path fill="#95BDE5" d="M315.7,311c-0.2,3-1.3,9.3-4.5,10.7c-7.3,3.3-3.8-15-1.4-18.9C312,299,316.4,299.8,315.7,311z"/>
</g>
<path fill="#172182" d="M251.9,345.3c7.8,6.4,20,4.3,30.3,1.3c2.1,0.8,4.4,9.5-1.2,11.7c-5.5,2.1-23.4,3.9-32.7-2.7
	C244.3,352.6,248.6,342.5,251.9,345.3z"/>
<linearGradient id="SVGID_51_" gradientUnits="userSpaceOnUse" x1="1944.0454" y1="629.6516" x2="1915.2893" y2="705.3636" gradientTransform="matrix(-1.1893 0 0 -1.1893 2898.7273 1284.4401)">
	<stop  offset="0" style="stop-color:#F6FAFF"/>
	<stop  offset="0.1729" style="stop-color:#F1F7FF"/>
	<stop  offset="0.3638" style="stop-color:#E4EFFF"/>
	<stop  offset="0.5625" style="stop-color:#CEE2FF"/>
	<stop  offset="0.6507" style="stop-color:#C2DBFF"/>
	<stop  offset="1" style="stop-color:#C2DBFF"/>
</linearGradient>
<path fill="url(#SVGID_51_)" d="M534.6,485.2c9.5-3.4,25-9.2,25-9.2c9-2.5,15.9-10.3,12.6-22.4l-12.1-50.8l69.2,25.2h28.5
	c0,0,16.9,62.2,17.2,62.9c2.1,4.2,1.9,13.6-0.7,14.5l-29.3,10.6l-9.5,4.4c-6.3,2.3-15.5,1.8-24-1.3l-77.1-30.6
	c-0.6-0.2-1-0.6-1.1-1.2C533.1,486.4,533.7,485.5,534.6,485.2z"/>
<linearGradient id="SVGID_52_" gradientUnits="userSpaceOnUse" x1="1931.3004" y1="679.1337" x2="1908.5016" y2="679.3871" gradientTransform="matrix(-1.1893 0 0 -1.1893 2898.7273 1284.4401)">
	<stop  offset="0" style="stop-color:#D4E6FC"/>
	<stop  offset="0.4934" style="stop-color:#C2DBFF"/>
	<stop  offset="0.9664" style="stop-color:#91BEFF"/>
</linearGradient>
<path fill="url(#SVGID_52_)" d="M534.4,488.4l79.3,28.7c8.6,3.1,16.2,4.2,22.5,1.9l8.8-3l0,0l0,0l21.8-7.8
	c5.4-1.8,10.9-8.7,7.1-19.1c0,0-11.9-42.9-12.2-43.3l-32.5-17.6l0,0l37.6,10.3l12.4,51.9c3.3,12-3.6,19.9-12.6,22.4
	c0,0-22.5,8.2-29.9,10.8c-5.8,2-14.2,1.5-22.7-1.5l-75.4-27.7c-3.6-1.3-5.4-2-5.4-5.1v-2.3C533.3,487.1,533.3,488.1,534.4,488.4z"/>
<linearGradient id="SVGID_53_" gradientUnits="userSpaceOnUse" x1="1892.6711" y1="813.8391" x2="1857.9148" y2="780.8961" gradientTransform="matrix(-1.1893 0 0 -1.1893 2898.7273 1284.4401)">
	<stop  offset="0" style="stop-color:#C2DBFF"/>
	<stop  offset="0.854" style="stop-color:#91BEFF"/>
</linearGradient>
<path fill="url(#SVGID_53_)" d="M434.8,85.9L813,223.5c10.2,3.7,17.2,13.6,17.2,24.1V487c0,10.1-10.3,17-20.1,13.4L432.7,362.4
	c-10.2-3.7-17.2-13.6-17.2-24.1V97.6C415.4,86.9,425.1,82.3,434.8,85.9z"/>
<linearGradient id="SVGID_54_" gradientUnits="userSpaceOnUse" x1="1614.3744" y1="534.1359" x2="1968.1827" y2="883.5759" gradientTransform="matrix(-1.1893 0 0 -1.1893 2898.7273 1284.4401)">
	<stop  offset="0" style="stop-color:#FFFFFF"/>
	<stop  offset="1" style="stop-color:#C2DBFF"/>
</linearGradient>
<path fill="url(#SVGID_54_)" d="M430.8,86.6L809,224.2c10.2,3.7,17.2,13.6,17.2,24.1v239.4c0,10.1-9.6,16.7-19.4,13.1L428.6,363.2
	c-10.2-3.7-17.2-13.6-17.2-24.1V99.7C411.4,89.4,421,83,430.8,86.6z"/>
<polygon fill="#172182" points="812.4,486.9 425.3,346 425.3,98.6 812.4,239.5 "/>
<g>
	<path fill="#B7CFF5" d="M479.4,194c0,22.4,15.7,46,35.1,52.8c19.4,6.8,35.1-5.9,35.1-28.3s-15.7-46-35.1-52.8
		C495.1,159,479.4,171.6,479.4,194z M482.8,195.2c0-20.2,14.3-31.6,31.8-25.6c17.5,6.1,31.8,27.5,31.8,47.7s-14.3,31.6-31.8,25.6
		C497,236.8,482.8,215.4,482.8,195.2z"/>
</g>
<g>
	<path fill="#0168FF" d="M481.1,196.4c1,0.2,1.8,1.3,1.8,2.4c1.7,20.7,17.2,40.9,34.6,45c1,0.2,1.8,1.3,1.8,2.4
		c0.1,1.1-0.6,1.8-1.5,1.5c-1.2-0.2-2.3-0.6-3.4-1c-17.8-6.2-33.2-27.2-35-48.8C479.4,196.8,480.1,196.1,481.1,196.4z"/>
</g>
<g>
	<g>
		<path fill="#7622A4" d="M514.5,164.1c1.7,0.6,3.1,2.6,3.1,4.5s-1.3,3-3.1,2.5c-16.8-5.8-30.3,5.1-30.3,24.5
			c0,10.1,3.8,21.1,10.3,30c1.3,1.7,1.4,3.9,0.2,5c-0.6,0.6-1.4,0.7-2.3,0.4c-0.7-0.2-1.4-0.8-2-1.5c-7.8-10.7-12.5-23.9-12.5-36
			C478,170.3,494.4,157.1,514.5,164.1z"/>
	</g>
</g>
<g>
	<polygon fill="#0168FF" points="507.7,241.3 508.4,241.8 500.5,261.5 492.9,258.9 492.9,258.2 500,260.6 	"/>
</g>
<g>
	<g>
		<polygon fill="#7622A4" points="487.9,174 487.3,174.1 476.6,150 468.6,147.1 468.6,146.4 477.1,149.3 		"/>
	</g>
</g>
<g>
	<polygon fill="#B7CFF5" points="562.3,189.3 562.3,190.2 554,187.2 545.2,200 544.7,199.4 553.6,186.4 	"/>
</g>
<g>
	<polygon fill="#B7CFF5" points="596.3,205.9 567.6,195.9 567.6,186.6 596.3,196.6 	"/>
</g>
<g>
	<g>
		<polygon fill="#7622A4" points="462.1,149.1 433.4,139.1 433.4,129.9 462.1,139.9 		"/>
	</g>
</g>
<g>
	<polygon fill="#0168FF" points="487.5,261.3 458.9,251.3 458.9,242 487.5,252 	"/>
</g>
<g>
	<g>
		<path fill="#97B6E6" d="M788.1,461.9v-5.1l0.7,0.2l1.7,4l1.8-2.7l0.7,0.2v5.1l-0.8-0.2v-3.3l-1.4,2.3l-0.4-0.1l-1.4-3.3v3.3
			L788.1,461.9z"/>
		<path fill="#97B6E6" d="M785.2,461c-1.1-0.4-1.8-1.4-1.8-2.6c0-1.2,0.7-1.7,1.8-1.3c1.1,0.4,1.8,1.4,1.8,2.6
			C787.1,460.7,786.3,461.3,785.2,461z M785.2,460.1c0.6,0.2,1-0.1,1-0.8c0-0.7-0.5-1.4-1-1.5c-0.6-0.2-1,0.1-1,0.8
			S784.7,460,785.2,460.1z"/>
		<path fill="#97B6E6" d="M780.7,455.3c0.5,0.2,1,0.5,1.2,1v-0.5l0.7,0.2v3.9l-0.8-0.2v-2c0-0.8-0.4-1.3-1-1.5
			c-0.5-0.2-0.8,0-0.8,0.7v2.1l-0.8-0.2v-2.3C779.3,455.4,779.8,455,780.7,455.3z"/>
	</g>
	<g>
		<path fill="#97B6E6" d="M763,452.8l-0.8-0.4v-4.3l-1.4-0.5v-0.8l3.8,1.3v0.8l-1.4-0.5v4.3H763z"/>
		<path fill="#97B6E6" d="M758,447.1v2c0,0.8,0.4,1.3,1,1.5c0.5,0.2,0.8,0,0.8-0.7v-2.1l0.8,0.2v2.3c0,1.2-0.6,1.5-1.4,1.2
			c-0.5-0.1-0.8-0.5-1.1-1v0.5l-0.7-0.2v-3.9L758,447.1z"/>
		<path fill="#97B6E6" d="M752.8,447.2c0-1.2,0.7-1.8,1.7-1.4c1,0.4,1.8,1.4,1.8,2.6c0,1.2-0.7,1.7-1.9,1.3
			c-0.6-0.2-1.1-0.6-1.3-1.1l0.5-0.4c0.2,0.4,0.6,0.6,1,0.7c0.6,0.2,1,0,1.1-0.5l-2.6-1C752.8,447.4,752.8,447.3,752.8,447.2z
			 M754.5,446.6c-0.5-0.2-0.8,0.1-1,0.6l1.9,0.7C755.5,447.3,755.1,446.7,754.5,446.6z"/>
	</g>
	<g>
		<path fill="#97B6E6" d="M727,434.7l1.2,4.3l1.1-3.4l0.7,0.2l1.2,4.3l1.1-3.4l0.8,0.4l-1.4,4.5l-0.8-0.4l-1.1-4.2l-1.1,3.3
			l-0.8-0.4l-1.4-5.6L727,434.7z"/>
		<path fill="#97B6E6" d="M722.5,436.1c0-1.2,0.7-1.8,1.7-1.4c1,0.4,1.8,1.4,1.8,2.6s-0.7,1.8-1.9,1.3c-0.6-0.2-1.1-0.6-1.3-1.1
			l0.5-0.4c0.2,0.4,0.6,0.6,1,0.7c0.6,0.2,1,0,1.1-0.5l-2.7-1C722.5,436.4,722.5,436.2,722.5,436.1z M724.2,435.5
			c-0.5-0.2-0.8,0.1-1,0.6l1.9,0.7C725,436.2,724.7,435.6,724.2,435.5z"/>
		<path fill="#97B6E6" d="M719.1,431.5v2c0.2-0.2,0.6-0.2,1.1-0.1c1,0.4,1.7,1.4,1.7,2.6s-0.7,1.8-1.7,1.4c-0.5-0.1-0.8-0.5-1.1-1
			v0.5l-0.7-0.2v-5.4L719.1,431.5z M720,436.5c0.6,0.2,1-0.1,1-0.8s-0.5-1.4-1-1.5c-0.6-0.2-1,0.1-1,0.8S719.4,436.2,720,436.5z"/>
	</g>
	<g>
		<path fill="#97B6E6" d="M702.9,430.9l-0.8-0.4v-4.3l-1.4-0.5v-0.8l3.8,1.3v0.8l-1.4-0.5v4.3H702.9z"/>
		<path fill="#97B6E6" d="M697.9,425.2c0.5,0.1,0.8,0.5,1.1,1v-2l0.8,0.2v5.4l-0.8-0.2v-2c0-0.8-0.4-1.3-1-1.5
			c-0.5-0.2-0.8,0-0.8,0.7v2.1l-0.8-0.2v-2.3C696.6,425.3,697.2,424.9,697.9,425.2z"/>
		<path fill="#97B6E6" d="M693,423.5v2c0,0.8,0.4,1.3,1,1.5c0.5,0.2,0.8,0,0.8-0.7v-2.1l0.8,0.2v2.3c0,1.2-0.6,1.5-1.4,1.2
			c-0.5-0.1-0.8-0.5-1.1-1v0.5l-0.7-0.2v-3.9L693,423.5z"/>
	</g>
	<g>
		<path fill="#97B6E6" d="M669,414.4v-0.8l3.2,1.2v5.1l-0.8-0.4v-1.9l-2.1-0.8v-0.8l2.1,0.8v-1.5L669,414.4z"/>
		<path fill="#97B6E6" d="M667.6,414.8v-0.6l0.7,0.2v3.9l-0.8-0.2v-1.9c0-0.8-0.4-1.3-1-1.5c0,0-0.1,0-0.2,0v-0.8
			C667,414,667.3,414.4,667.6,414.8z"/>
		<path fill="#97B6E6" d="M665.2,412.7c-0.2-0.1-0.5-0.5-0.5-0.7c0-0.4,0.2-0.5,0.5-0.4c0.2,0.1,0.5,0.5,0.5,0.7
			C665.8,412.7,665.6,412.8,665.2,412.7z M665.7,417.4l-0.8-0.2v-3.9l0.8,0.2V417.4z"/>
	</g>
	<g>
		<path fill="#97B6E6" d="M641.3,408.6c-1.2-0.5-1.8-1.3-1.8-2.1c0-1.9,2.6-0.2,2.6-1.3c0-0.4-0.2-0.8-1-1.1c-0.4-0.1-0.8-0.1-1.2,0
			l-0.2-0.8c0.4-0.1,1-0.1,1.4,0.1c1.2,0.5,1.8,1.3,1.8,2.1c0,1.9-2.6,0.2-2.6,1.3c0,0.4,0.2,0.7,1,1.1c0.6,0.2,1.1,0.1,1.4,0
			l0.2,0.8C642.7,408.9,642,408.9,641.3,408.6z"/>
		<path fill="#97B6E6" d="M637.4,403.2c0.6,0.2,1.1,0.6,1.4,1l-0.4,0.6c-0.2-0.4-0.6-0.6-1.1-0.7c-0.6-0.2-0.8,0-0.8,0.6v0.1
			l0.8,0.4c1.1,0.4,1.4,1.1,1.4,1.7c0,0.7-0.5,1-1.3,0.7c-0.5-0.2-0.8-0.5-1.1-1v0.5l-0.7-0.2v-2.3
			C635.8,403.2,636.3,402.8,637.4,403.2z M637.5,406.5c0.4,0.1,0.6,0,0.6-0.4c0-0.2-0.1-0.6-0.7-0.7l-0.8-0.2v0.5
			C636.8,406,637,406.4,637.5,406.5z"/>
		<path fill="#97B6E6" d="M633,404.6c0.1,0.1,0.2,0.2,0.5,0.4c0.4,0.1,0.5,0,0.5-0.4v-1.9l-1-0.4v-0.7l1,0.4v-0.8l0.8,0.2v0.8
			l0.6,0.2v0.7l-0.6-0.2v1.9c0,0.8-0.5,1.2-1.2,0.8c-0.2-0.1-0.6-0.2-0.7-0.6L633,404.6z"/>
	</g>
	<g>
		<path fill="#97B6E6" d="M613,398.3c-1.2-0.5-1.8-1.3-1.8-2.1c0-1.9,2.6-0.2,2.6-1.3c0-0.4-0.2-0.8-1-1.1c-0.4-0.1-0.8-0.1-1.2,0
			l-0.2-0.8c0.4-0.1,1-0.1,1.4,0.1c1.2,0.5,1.8,1.3,1.8,2.1c0,1.9-2.6,0.2-2.6,1.3c0,0.4,0.2,0.7,1,1.1c0.6,0.2,1.1,0.1,1.4,0
			l0.2,0.8C614.4,398.5,613.7,398.5,613,398.3z"/>
		<path fill="#97B6E6" d="M607.9,392.5v2c0,0.8,0.4,1.3,1,1.5c0.5,0.2,0.8,0,0.8-0.7v-2.1l0.8,0.2v2.3c0,1.2-0.6,1.5-1.4,1.2
			c-0.5-0.1-0.8-0.5-1.1-1v0.5l-0.8-0.4v-3.9L607.9,392.5z"/>
		<path fill="#97B6E6" d="M604.1,391c0.5,0.2,1,0.5,1.2,1v-0.5l0.7,0.2v3.9l-0.8-0.2v-2c0-0.8-0.4-1.3-1-1.5c-0.5-0.2-0.8,0-0.8,0.7
			v2.1l-0.8-0.2v-2.3C602.6,391,603.2,390.8,604.1,391z"/>
	</g>
	<g>
		<g>
			
				<linearGradient id="SVGID_55_" gradientUnits="userSpaceOnUse" x1="1773.41" y1="800.3914" x2="1777.7148" y2="691.9061" gradientTransform="matrix(-1.1893 0 0 -1.1893 2898.7273 1284.4401)">
				<stop  offset="0.3121" style="stop-color:#F9329C"/>
				<stop  offset="1" style="stop-color:#0168FF"/>
			</linearGradient>
			<path fill="url(#SVGID_55_)" d="M786.2,395.9c1.1,0.4,1.9,1.7,1.9,3v43.3c0,1.3-0.8,2-1.9,1.7c-1.1-0.4-1.9-1.7-1.9-3v-43.3
				C784.4,396.3,785.2,395.6,786.2,395.9z"/>
		</g>
		<g>
			
				<linearGradient id="SVGID_56_" gradientUnits="userSpaceOnUse" x1="1798.9631" y1="783.0389" x2="1801.9774" y2="707.0756" gradientTransform="matrix(-1.1893 0 0 -1.1893 2898.7273 1284.4401)">
				<stop  offset="0.3121" style="stop-color:#F9329C"/>
				<stop  offset="1" style="stop-color:#0168FF"/>
			</linearGradient>
			<path fill="url(#SVGID_56_)" d="M756.7,402.8c1.1,0.4,1.9,1.7,1.9,3v25.7c0,1.3-0.8,2-1.9,1.7c-1.1-0.4-1.9-1.7-1.9-3v-25.7
				C754.8,403.2,755.6,402.5,756.7,402.8z"/>
		</g>
		<g>
			
				<linearGradient id="SVGID_57_" gradientUnits="userSpaceOnUse" x1="1823.2207" y1="802.8065" x2="1826.6298" y2="716.8953" gradientTransform="matrix(-1.1893 0 0 -1.1893 2898.7273 1284.4401)">
				<stop  offset="0.3121" style="stop-color:#F9329C"/>
				<stop  offset="1" style="stop-color:#0168FF"/>
			</linearGradient>
			<path fill="url(#SVGID_57_)" d="M727.2,399c1.1,0.4,1.9,1.7,1.9,3v18.8c0,1.3-0.8,2-1.9,1.7c-1.1-0.4-1.9-1.7-1.9-3v-18.8
				C725.3,399.4,726.1,398.7,727.2,399z"/>
		</g>
		<g>
			
				<linearGradient id="SVGID_58_" gradientUnits="userSpaceOnUse" x1="1847.5323" y1="833.264" x2="1851.7722" y2="726.4183" gradientTransform="matrix(-1.1893 0 0 -1.1893 2898.7273 1284.4401)">
				<stop  offset="0.3121" style="stop-color:#F9329C"/>
				<stop  offset="1" style="stop-color:#0168FF"/>
			</linearGradient>
			<path fill="url(#SVGID_58_)" d="M697.7,366.7c1.1,0.4,1.9,1.7,1.9,3V410c0,1.3-0.8,2-1.9,1.7c-1.1-0.4-1.9-1.7-1.9-3v-40.3
				C695.8,367,696.6,366.3,697.7,366.7z"/>
		</g>
		<g>
			
				<linearGradient id="SVGID_59_" gradientUnits="userSpaceOnUse" x1="1873.0699" y1="830.1718" x2="1876.7047" y2="738.5737" gradientTransform="matrix(-1.1893 0 0 -1.1893 2898.7273 1284.4401)">
				<stop  offset="0.3121" style="stop-color:#F9329C"/>
				<stop  offset="1" style="stop-color:#0168FF"/>
			</linearGradient>
			<path fill="url(#SVGID_59_)" d="M668.1,346.4c1.1,0.4,1.9,1.7,1.9,3v49.8c0,1.3-0.8,2-1.9,1.7c-1.1-0.4-1.9-1.7-1.9-3v-49.8
				C666.3,346.8,667.1,346.1,668.1,346.4z"/>
		</g>
		<g>
			
				<linearGradient id="SVGID_60_" gradientUnits="userSpaceOnUse" x1="1898.6478" y1="828.0671" x2="1901.7454" y2="750.0067" gradientTransform="matrix(-1.1893 0 0 -1.1893 2898.7273 1284.4401)">
				<stop  offset="0.3121" style="stop-color:#F9329C"/>
				<stop  offset="1" style="stop-color:#0168FF"/>
			</linearGradient>
			<path fill="url(#SVGID_60_)" d="M638.6,315.6c1.1,0.4,1.9,1.7,1.9,3v69.8c0,1.3-0.8,2-1.9,1.7c-1.1-0.4-1.9-1.7-1.9-3v-69.8
				C636.8,316,637.6,315.3,638.6,315.6z"/>
		</g>
		<g>
			
				<linearGradient id="SVGID_61_" gradientUnits="userSpaceOnUse" x1="1923.0564" y1="843.3568" x2="1926.3334" y2="760.7755" gradientTransform="matrix(-1.1893 0 0 -1.1893 2898.7273 1284.4401)">
				<stop  offset="0.3121" style="stop-color:#F9329C"/>
				<stop  offset="1" style="stop-color:#0168FF"/>
			</linearGradient>
			<path fill="url(#SVGID_61_)" d="M609.1,313.4c1.1,0.4,1.9,1.7,1.9,3v61.5c0,1.3-0.8,2-1.9,1.7c-1.1-0.4-1.9-1.7-1.9-3V315
				C607.2,313.7,608,313,609.1,313.4z"/>
		</g>
	</g>
</g>
<path fill="#FFFFFF" d="M629.3,272.3c7.5-8.9,17.2-1.9,26.8,5c9.3,6.8,18.1,13.2,25.1,6.2c8.7-8.7,16.1-12.7,22.4-12.4
	c5.6,0.4,9.2,4,11.7,7.3c2.3,2.9,3.3,6.5,4.4,10.5c1.7,5.7,3.3,11.7,8.7,15c4.9,3.1,8.1-1.1,12-6.2c2.9-3.7,6.1-8,10.6-10
	c4.6-2.1,8.9-2.4,12.5-0.8c4.6,2,8.2,7,10.7,14.9c1.1,3.4,2,8.9,3.2,15.3c2.4,13.7,5.4,30.7,11.4,34.4c1.2,0.7,2.4,1,3.8,0.5
	l0.4,1.1c-0.6,0.1-1.1,0.2-1.7,0.2c-1.1,0-2-0.4-3.1-1c-6.4-4-9.5-21.3-11.9-35.2c-1.1-6.3-2-11.8-3.2-15.1
	c-2.4-7.5-5.8-12.2-10.1-14.2c-3.3-1.4-7.3-1.2-11.5,0.7c-4.3,1.9-7.4,6.1-10.2,9.6c-4,5.2-7.7,10.1-13.6,6.5
	c-5.7-3.6-7.5-9.6-9.2-15.6c-1.1-3.8-2.1-7.5-4.2-10.1c-2.4-3-5.7-6.5-10.8-6.9c-5.8-0.4-13.1,3.7-21.4,12
	c-7.7,7.7-17.4,0.7-26.6-6.1c-9.5-6.9-18.4-13.3-25.2-5.2c-10.2,12.2-27,10.9-27.1,10.9l0.1-1.2
	C603.2,282.8,619.4,284.1,629.3,272.3z"/>
<linearGradient id="SVGID_62_" gradientUnits="userSpaceOnUse" x1="1851.0481" y1="818.9542" x2="1813.8281" y2="906.1713" gradientTransform="matrix(-1.1893 0 0 -1.1893 2898.7273 1284.4401)">
	<stop  offset="0" style="stop-color:#FFFFFF"/>
	<stop  offset="1" style="stop-color:#C2DBFF"/>
</linearGradient>
<path fill="url(#SVGID_62_)" d="M626.4,270.1c7.8,15.2,22.2,20.1,29.9,6.2c7.6-13.9,7.3-7.5,18-11.7s7-7.8,19.4-17.5
	c12.4-9.6,22.7,8.2,27.9,15.1c5.4,6.9,15.1-7.1,24.3-1.4c9.2,5.7,4.8,20.9,11.1,31.4c6.4,10.5,10,6.3,14,18.8
	c4,12.5,11.7,13.8,24.3,10.2v32.9l-189.6-74.6v-27.5C605.9,252.2,618.6,254.9,626.4,270.1z"/>
<path fill="#0168FF" d="M627.1,269.9c4.4,8.6,11.1,13.9,17.2,14h0.1c4.4,0,8.3-2.7,11.1-7.8c5-9.3,6.8-9.9,10.9-10.2
	c1.8-0.1,4-0.4,7.5-1.8c5.6-2.1,7-4.2,9.3-7.1c1.9-2.6,4.2-5.7,10-10.2c3-2.4,6.2-3.3,9.3-2.9c7.4,1.1,13.6,9.5,17.6,15.1
	c0.8,1.1,1.5,2,2.1,2.9c2.1,2.7,5,1.7,9.5-0.5c4.5-2,9.5-4.3,14.5-1.2c5.5,3.4,6.4,10,7.3,16.9c0.7,5.1,1.4,10.5,4,14.9
	c2.7,4.4,4.9,6.2,6.8,7.7c2.6,2.1,5,3.9,7.4,11.3c4,12.5,11.7,13.1,23.3,9.8l0.5,1.5c-3.8,1.1-7.3,1.8-10.5,1.8
	c-6.8,0-11.8-3.2-14.9-12.5c-2.3-6.9-4.3-8.6-6.8-10.6c-2-1.7-4.3-3.4-7.1-8.1c-2.9-4.6-3.6-10.1-4.3-15.5
	c-0.8-6.5-1.7-12.6-6.5-15.7c-4.3-2.7-8.8-0.7-13.1,1.2c-4.2,1.9-8.4,3.8-11.4,0c-0.7-0.8-1.4-1.9-2.1-3
	c-3.9-5.4-9.9-13.6-16.5-14.5c-2.7-0.4-5.5,0.5-8.2,2.5c-5.6,4.3-7.8,7.4-9.6,9.9c-2.3,3.1-3.9,5.4-10,7.7c-3.6,1.4-6.1,1.7-7.8,1.8
	c-3.6,0.4-4.9,0.5-9.8,9.5c-3.1,5.6-7.5,8.7-12.6,8.7c-6.8-0.1-13.9-5.7-18.7-14.9c-7.6-14.7-20-17.4-20.1-17.5l0.4-1.5
	C606.6,251.8,619.2,254.5,627.1,269.9z"/>
<g>
	
		<linearGradient id="SVGID_63_" gradientUnits="userSpaceOnUse" x1="1897.54" y1="592.0892" x2="1882.98" y2="590.3905" gradientTransform="matrix(-1.1893 0 0 -1.1893 2898.7273 1284.4401)">
		<stop  offset="0" style="stop-color:#D4E6FC"/>
		<stop  offset="0.4934" style="stop-color:#C2DBFF"/>
		<stop  offset="0.9664" style="stop-color:#91BEFF"/>
	</linearGradient>
	<path fill="url(#SVGID_63_)" d="M461.7,546.1c0-0.5,1.1,2.3,1.5,2.1l50.3-18.3c3.8-1.4,8-1.4,11.8,0l175.9,59.9
		c2.1,1.4,1.5,2.6,1.5,5.9c0,1.1-0.4,2.1-1.5,2.5l-50.3,18.3c-3.8,1.4-8,1.4-11.8,0l-175.9-63.9c-1.1-0.4-1.7-1.4-1.5-2.4
		C461.7,549.9,461.7,546.8,461.7,546.1z"/>
	
		<linearGradient id="SVGID_64_" gradientUnits="userSpaceOnUse" x1="1943.8462" y1="732.1038" x2="1956.8625" y2="298.8423" gradientTransform="matrix(-1.1893 0 0 -1.1893 2898.7273 1284.4401)">
		<stop  offset="0" style="stop-color:#FFFFFF"/>
		<stop  offset="1" style="stop-color:#C2DBFF"/>
	</linearGradient>
	<path fill="url(#SVGID_64_)" d="M463.3,544.2l50.3-18.3c3.8-1.4,8-1.4,11.8,0l175.9,64c2.1,0.7,2.1,3.8,0,4.5l-50.3,18.3
		c-3.8,1.4-8,1.4-11.8,0l-175.9-64C461.1,547.9,461.1,544.9,463.3,544.2z"/>
</g>
<path fill="#95BDE5" d="M344.6,410.9c24.5,6.7,26.9,43.2,38.7,82.4c11.8,39.2,25.3,57.3,25.3,57.3s11.2,5.7,52.6,6.5
	c40,0.7,21.2,1.5,76.1,3.8c13.2,0.5,1.9,23.7,1.9,23.7c-88.6,15.6-95.9,18-156.6,8.8c-9.4-1.4-12.1-17-22.5-35.4
	c-17.2-30.7-27.4-43.4-35-73.9C312.9,435.6,320.3,404.4,344.6,410.9z"/>
<path fill="#95BDE5" d="M563.3,548.6c1.7,2.9,0.1,7.6-1.5,9.4c-1.7,1.8,13.9,1.7,24.6,1.4c10.7-0.2,25,9.2,25.8,11.4
	c0.7,2.3-3.3,6.4-14.3,0c0,0,4.6,7,6.8,11.8c2.1,4.8-9.3,17.8-16.3,13.3c-7-4.5-19-5.5-26.9-6.4s-22.1-4.8-22.1-4.8l-1.9-23.7
	C547.6,560,561.6,545.8,563.3,548.6z"/>
<rect x="1203.2" y="-112.7" fill="#7622A4" width="288" height="288"/>
<rect x="1554.9" y="-112.7" fill="#C60983" width="288" height="288"/>
<linearGradient id="SVGID_65_" gradientUnits="userSpaceOnUse" x1="2242.1914" y1="201.7135" x2="2045.4642" y2="-139.0282">
	<stop  offset="0" style="stop-color:#7622A4"/>
	<stop  offset="1" style="stop-color:#C60983"/>
</linearGradient>
<rect x="1999.8" y="-112.7" fill="url(#SVGID_65_)" width="288" height="288"/>
</svg>
