<?xml version="1.0" encoding="utf-8"?>
<!-- Generator: Adobe Illustrator 18.0.0, SVG Export Plug-In . SVG Version: 6.00 Build 0)  -->
<!DOCTYPE svg PUBLIC "-//W3C//DTD SVG 1.1//EN" "http://www.w3.org/Graphics/SVG/1.1/DTD/svg11.dtd">
<svg version="1.1" id="Layer_1" xmlns="http://www.w3.org/2000/svg" xmlns:xlink="http://www.w3.org/1999/xlink" x="0px" y="0px"
	 viewBox="0 0 928.8 1080" enable-background="new 0 0 928.8 1080" xml:space="preserve">
<linearGradient id="SVGID_1_" gradientUnits="userSpaceOnUse" x1="-622.9766" y1="477.4717" x2="417.6367" y2="643.62" gradientTransform="matrix(1.1893 0 0 -1.1893 423.5679 1284.4401)">
	<stop  offset="0" style="stop-color:#FFFFFF"/>
	<stop  offset="1" style="stop-color:#C2DBFF"/>
</linearGradient>
<path fill="url(#SVGID_1_)" d="M498.8,314.2C179,161.3,33.6,242.5,33.6,431.2c0,322.7,305.8,632,598.6,528
	C1102.4,792.1,790.4,453.7,498.8,314.2z"/>
<path fill="none" d="M239.4,321.9L239.4,321.9L239.4,321.9L239.4,321.9z"/>
<path fill="#3486FE" d="M561.3,24c-237.3,0-429.6,80-429.6,178.9v310c0-45.1,40.1-86.2,106.2-117.7c31.2-14.7,68-27.5,109.2-37.3
	c63-15.1,136.2-23.8,214.2-23.8s151.2,8.7,214.2,23.8c40.4,9.8,76.7,22.1,107.4,36.5l1.8,0.8v-74.7V85.2l0,0
	C805.9,47.7,690.2,24,561.3,24z M237.9,320.6L237.9,320.6C237.9,320.5,237.9,320.6,237.9,320.6L237.9,320.6z"/>
<linearGradient id="SVGID_2_" gradientUnits="userSpaceOnUse" x1="19.9678" y1="852.6301" x2="573.7941" y2="851.1727" gradientTransform="matrix(1.1893 0 0 -1.1893 423.5679 1284.4401)">
	<stop  offset="0" style="stop-color:#7622A4"/>
	<stop  offset="1" style="stop-color:#C60983"/>
</linearGradient>
<path fill="url(#SVGID_2_)" d="M560.4,27.6C324.9,27.6,134.1,107,134.1,205v307.7c0-44.7,39.7-85.6,105.4-116.8
	c30.9-14.7,67.4-27.2,108.3-37.1c62.6-15,135.2-23.5,212.6-23.5s150,8.6,212.6,23.5c40.1,9.6,76.1,21.9,106.6,36.3l1.8,0.8v-74.1
	V88.2l0,0C803.2,51.1,688.4,27.6,560.4,27.6z M239.4,321.9L239.4,321.9L239.4,321.9L239.4,321.9z"/>
<path opacity="0.67" fill="#3486FE" enable-background="new    " d="M134.1,205.2v307.7c0,44.7,39.7,85.6,105.4,116.8V528.3V396
	v-74.1l0,0C173.8,290.7,134.1,249.9,134.1,205.2z"/>
<linearGradient id="SVGID_3_" gradientUnits="userSpaceOnUse" x1="-35.1493" y1="727.6192" x2="-288.7431" y2="729.8052" gradientTransform="matrix(1.1893 0 0 -1.1893 423.5679 1284.4401)">
	<stop  offset="0" style="stop-color:#7622A4"/>
	<stop  offset="1" style="stop-color:#C60983"/>
</linearGradient>
<path fill="url(#SVGID_3_)" d="M131.7,205.2v307.7c0,44.7,39.7,85.6,105.4,116.8V528.3V396v-74.1l0,0
	C171.4,290.7,131.7,249.9,131.7,205.2z"/>
<g>
	<defs>
		<path id="SVGID_4_" d="M132,225.8c0-104.5,193.4-189.3,432-189.3s432,84.8,432,189.3v307.1c0-104.5-193.4-189.3-432-189.3
			s-432,84.8-432,189.3C132,440.8,132,317.9,132,225.8z"/>
	</defs>
	<clipPath id="SVGID_5_">
		<use xlink:href="#SVGID_4_"  overflow="visible"/>
	</clipPath>
	<g clip-path="url(#SVGID_5_)">
		<path opacity="0.2" fill="#3486FE" enable-background="new    " d="M308.3,190.4c1,0.7,1.4,1.8,1.4,3.3
			c34.6,17,84.3-31.8,71.8-70.4c-1.5-4.8-10.8-28.4-41.7-24.3c-1,1.5-1.9,2.3-3.6,2.9c-26.2,8.7-35.7,30.7-38.7,39.8
			C295.1,149.6,288.4,176.4,308.3,190.4z"/>
		<path opacity="0.2" fill="#3486FE" enable-background="new    " d="M273.6,232.4c39.4-15.7,85.3-28.2,135.7-36.6V67.7
			c-50.4,8.4-96.5,21.1-135.7,36.6V232.4z M297.5,124.6c13.8-23.9,38.5-35.2,42.5-30.7c44.2-6.1,64.7,41.1,34.6,80
			c-15.7,20.3-44.7,35.9-67.8,24.6c-0.6,0.4-0.8,0.5-1.2,0.6C296.9,201.5,272.7,167.1,297.5,124.6z"/>
		<path opacity="0.2" fill="#3486FE" enable-background="new    " d="M545.3,55.4v28.2c6.2-0.1,12.5-0.1,18.7-0.1
			c13.3,0,26.4,0.2,39.4,0.8V56c-13-0.5-26.2-0.8-39.4-0.8C557.8,55.2,551.5,55.3,545.3,55.4z"/>
		<path fill="#3486FE" d="M532.9,103.9v9.5c10.2-0.4,20.6-0.5,31-0.5c4.5,0,8.9,0,13.3,0.1v-9.5c-4.4-0.1-8.9-0.1-13.3-0.1
			C553.5,103.5,543.2,103.7,532.9,103.9z"/>
		<path opacity="0.2" fill="#3486FE" enable-background="new    " d="M540.1,213v100.9c8-0.2,15.9-0.2,23.9-0.2
			c101.8,0,195.5,15.5,269.3,41.3V254l0,0C792.5,240.8,696.7,209.8,540.1,213z M625.6,302c-0.2,1.9-2,1.9-2.3,1.9l0,0
			c-1.3-0.2-2-1-2.3-2.1v-74.1c0.2-2.3,3-2.3,4-0.8c0.4,0.5,0.4,0.8,0.4,1.2v74H625.6z M660.3,304.9c-0.2,1.5-1.3,1.8-2.1,1.8
			c-1.9-0.4-2.1-1.5-2.1-2.3v-81.3c0.5-2.6,3.3-1.8,4-0.6c0.1,0.2,0.2,0.7,0.2,1L660.3,304.9L660.3,304.9z M693.9,309.1
			c-0.2,1.9-1.8,1.8-2,1.7l0,0c-1.3-0.4-1.9-1.1-2.1-2.3v-64c0.2-2.3,2.6-2,3.6-1c0.5,0.6,0.6,1.1,0.6,1.5V309.1z M726.3,314.4
			c-0.2,1.8-1.5,1.7-2,1.7c-1.3-0.4-1.9-1.1-2-2.4V258c0.2-2.3,2.5-1.9,3.4-0.8c0.5,0.6,0.6,1.1,0.6,1.5V314.4z M757.6,320.8
			c-0.1,1.4-1.2,1.8-1.9,1.5c-1.1-0.4-1.9-1.3-1.9-2.4v-16.3c0.1-1.8,2-2,3.1-0.8c0.6,0.7,0.7,1.4,0.7,1.7V320.8z M787.5,328.1
			c-0.1,1.8-1.4,1.5-1.8,1.5c-1.1-0.4-1.8-1.2-1.9-2.5v-45.4c0.2-2.3,2.3-1.8,3.1-0.6c0.5,0.6,0.5,1.1,0.5,1.5v45.4H787.5z
			 M815.8,336.6c-0.1,1.9-1.7,1.4-1.8,1.4l0,0c-1.1-0.5-1.7-1.3-1.8-2.5v-60.8c0.2-2,1.9-1.8,2.7-0.8c0.7,0.7,0.7,1.5,0.7,1.9v60.8
			H815.8z"/>
		<path fill="#3486FE" d="M329.1,334.3c0.1,0,0.2,0,0.4,0C329.3,334.3,329.2,334.3,329.1,334.3L329.1,334.3z"/>
		<path fill="#3486FE" d="M306.9,331.1c6.8,3.3,13.4,4.4,22.2,3.3C320.3,335.4,313.6,334.4,306.9,331.1z"/>
		<path fill="#3486FE" d="M306.7,331.1h0.1H306.7z"/>
		<path fill="#3486FE" d="M362.9,228.1c-9.5-3.6-18-2.5-23-1.8c0.6,1.1,1.1,2.5-0.1,5c44.6-4.3,56,42.1,29.4,74.4
			c-6.4,7.8-16.5,16.2-28.3,20.6c0.1,0,0.2,0,0.4,0c2.6,0.1,2.3,2.9,1.1,4.2c-0.5,0.5-1,0.7-1.3,1
			C396.4,308.6,402.8,243.3,362.9,228.1z"/>
		<path fill="#3486FE" d="M340.9,326.3c-5.6-0.1-10.5,3.1-15.9,3.2C330.5,329.3,335.9,328.1,340.9,326.3z"/>
		<path fill="#3486FE" d="M341,331.5L341,331.5L341,331.5L341,331.5z"/>
		<path fill="#3486FE" d="M340.9,331.5c-1.7,0.6-3.1,1.1-4.8,1.5C337.9,332.4,339.2,332.1,340.9,331.5z"/>
		<path fill="#F9329C" d="M340.3,326.6c-7.8,2.9-19.5,5.1-30.7-0.4c-0.2,2.5-1.7,4-2.9,4.9c15,7.3,38.2,2.4,36.4-3.4
			C343,327.1,342.4,325.7,340.3,326.6z"/>
		<path fill="#FFFFFF" d="M336.2,225.1L336.2,225.1c-52.9,17.5-62.6,89.1-33.3,106.3c3.2,1.9,7.7-2.7,6.7-6.8
			c-0.4-1.2-0.5-1.3-2.9-3c-2.3-1.7-13.8-10.9-12-33.4c1.2-15.6,9.4-31.9,21.2-42.6c8.2-7.5,15.8-10,20.3-11.4
			c0.4-0.1,1.5-0.5,2.5-1.4C342.4,228.9,340.2,223.9,336.2,225.1z"/>
		<path fill="#3486FE" d="M306.7,198.6h0.1H306.7z"/>
		<path fill="#3486FE" d="M306.9,198.6c6.8,3.3,13.4,4.4,22.2,3.3C320.3,203,313.6,201.9,306.9,198.6z"/>
		<path fill="#3486FE" d="M329.7,201.9c0.1,0,0.1,0,0.2,0C329.9,201.8,329.8,201.8,329.7,201.9L329.7,201.9z"/>
		<path fill="#3486FE" d="M340.9,193.9c-5.6-0.1-10.5,3.1-15.9,3.2C330.5,196.9,335.9,195.8,340.9,193.9z"/>
		<path fill="#3486FE" d="M362.9,95.7c-9.5-3.6-18-2.5-23-1.8c0.6,1.1,1.1,2.5-0.1,5c44.6-4.3,56,42.1,29.4,74.4
			c-6.4,7.8-16.5,16.2-28.3,20.6c0.1,0,0.2,0,0.4,0c2.6,0.1,2.3,2.9,1.1,4.2c-0.5,0.5-1,0.7-1.3,1C396.4,176.3,402.8,111,362.9,95.7
			z"/>
		<path fill="#3486FE" d="M341,199L341,199L341,199L341,199z"/>
		<path fill="#3486FE" d="M331,201.7C331,201.7,331.1,201.7,331,201.7C331.1,201.7,331,201.7,331,201.7L331,201.7z"/>
		<path fill="#3486FE" d="M330.4,201.8h0.1H330.4L330.4,201.8z"/>
		<path fill="#3486FE" d="M340.9,199c-1.7,0.6-3.1,1.1-4.8,1.5C337.9,200,339.2,199.7,340.9,199z"/>
		<path fill="#FFFFFF" d="M340.3,194.1c-7.8,2.9-19.5,5.1-30.7-0.4c-0.2,2.5-1.7,4-2.9,4.9c15,7.3,38.2,2.4,36.4-3.4
			C343,194.6,342.4,193.4,340.3,194.1z"/>
		<path fill="#F9329C" d="M336.2,92.8c-52.9,17.5-62.6,89.1-33.3,106.3c3.2,1.9,7.7-2.7,6.7-6.8c-0.4-1.2-0.5-1.3-2.9-3
			c-2.3-1.7-13.8-10.9-12-33.4c1.2-15.6,9.4-31.9,21.2-42.6c8.2-7.5,15.8-10,20.3-11.4c0.4-0.1,1.5-0.5,2.5-1.4
			C342.4,96.6,340.2,91.6,336.2,92.8z"/>
		<path fill="#3486FE" d="M199.2,166.3c-0.2,0.4-0.4,0.7-0.6,1.1C198.8,167,199,166.6,199.2,166.3z"/>
		<path fill="#3486FE" d="M198.5,167.3c-0.1,0.2-0.2,0.5-0.4,0.7C198.3,167.8,198.4,167.6,198.5,167.3z"/>
		<path fill="#3486FE" d="M197.8,168.6c-0.2,0.5-0.5,0.8-0.7,1.3C197.4,169.6,197.7,169.1,197.8,168.6z"/>
		<path fill="#3486FE" d="M198.2,168c-0.1,0.2-0.2,0.4-0.4,0.6C197.9,168.5,198,168.3,198.2,168z"/>
		<path fill="#3486FE" d="M199.3,165.9c-0.1,0.1-0.1,0.2-0.2,0.4C199.2,166.1,199.3,166,199.3,165.9z"/>
		<path fill="#3486FE" d="M200.8,163.4c0,0.1-0.1,0.1-0.1,0.2C200.8,163.6,200.8,163.5,200.8,163.4L200.8,163.4z"/>
		<path fill="#3486FE" d="M200.3,164.2c-0.2,0.5-0.6,1.1-1,1.5C199.7,165.3,199.9,164.8,200.3,164.2L200.3,164.2z"/>
		<path fill="#3486FE" d="M209.5,147.6c-3.3,3-5.8,5.9-8.7,10.2C203.6,153.5,206.1,150.7,209.5,147.6z"/>
		<path fill="#3486FE" d="M194.6,175.8c-0.1,0.4-0.4,0.7-0.5,1.1C194.4,176.5,194.5,176.1,194.6,175.8z"/>
		<path fill="#3486FE" d="M194.1,176.8c-0.2,0.7-0.6,1.4-0.8,2.3C193.6,178.3,193.9,177.6,194.1,176.8z"/>
		<path fill="#3486FE" d="M195.2,174.5c-0.1,0.4-0.4,0.8-0.5,1.3C194.8,175.3,194.9,174.8,195.2,174.5z"/>
		<path fill="#3486FE" d="M237.9,219.8c-24.5,35.8-44.5,32.6-49.7,8.9c-1.7-7.6-3.3-24.1,4.8-48.6c-0.8,2.1-1.9,2.5-2.4,1.4
			c-0.2-0.6-0.2-1.5,0.1-2.7c-14,43.9-5.5,85.6,24,69.9c6.3-3.3,15.8-10.6,25.8-26.6C239.4,222.2,238.4,222,237.9,219.8z"/>
		<path fill="#3486FE" d="M196.1,172.1c-0.2,0.6-0.5,1.1-0.7,1.7C195.7,173.3,195.9,172.7,196.1,172.1z"/>
		<path fill="#3486FE" d="M195.4,173.8c-0.1,0.2-0.2,0.5-0.2,0.7C195.2,174.2,195.3,174,195.4,173.8z"/>
		<path fill="#3486FE" d="M197.1,170.2c-0.2,0.6-0.6,1.2-0.8,1.8C196.5,171.3,196.9,170.8,197.1,170.2z"/>
		<path fill="#3486FE" d="M196.3,171.9c0,0.1-0.1,0.1-0.1,0.2C196.3,172.1,196.3,172,196.3,171.9z"/>
		<path fill="#3486FE" d="M197.2,170c0,0,0,0.1-0.1,0.1C197.1,170.1,197.2,170.1,197.2,170z"/>
		<path fill="#FFFFFF" d="M211,146.3L211,146.3c-13.1,10.9-23.3,35.1-19.9,35.8c0.1,0,1.1,0.1,1.9-2.1c2.3-6.5,5.1-12.4,8.4-17.5
			c3.2-4.9,6.1-8.2,9.9-11.4C210.3,149.7,210.5,147.7,211,146.3z"/>
		<path fill="#F9329C" d="M215.6,140.9L215.6,140.9c-7.8,4.8-4.5,10.6-3.3,10.7c0.7,0.1,1.2-0.4,1.7-0.6c9.3-6.3,16.7-4.3,19.4-3.2
			c6.5,2.6,11.5,9.3,13.8,18.2c2.5,9.8,3.1,26.3-8.4,49.2c-1.9,3.7-0.8,7.4,1.9,6.8c7.7-1.5,26.9-53,5.5-77.1
			C242.4,140.7,231.7,131.7,215.6,140.9z"/>
		<path fill="#3486FE" d="M212.8,298.8c-1.5,1.3-3.1,3-4.5,4.6C209.9,301.8,212.1,301,212.8,298.8z"/>
		<path fill="#3486FE" d="M207.6,304.1c-1.3,1.7-3.3,4.5-5.4,8.4c0,0.1-3.1,6.2-3.6,8.6c2.4-6.7,5.6-12.8,9.8-17.7
			C208,303.5,207.8,303.9,207.6,304.1z"/>
		<path fill="#3486FE" d="M204.1,313.1c0.1-0.2,0.4-0.6,0.5-0.8C204.5,312.5,204.3,312.8,204.1,313.1z"/>
		<path fill="#3486FE" d="M207.3,308L207.3,308l-0.1,0.1C207.3,308.1,207.3,308,207.3,308z"/>
		<path fill="#3486FE" d="M207.6,307.8L207.6,307.8L207.6,307.8L207.6,307.8z"/>
		<path fill="#3486FE" d="M230.7,348.2c-12.6,15.2-14.9,17.8-22.2,17.7c-10.1-0.1-12-13-12.4-18.3c-0.6-9.5,1.8-23.2,8.1-34.5
			c-1.3,2.4-2.5,4.8-3.4,7.3c-1.5,4-2.1,1.3-2.1,1.3c0-0.1,0-0.4,0.1-0.6c-7.6,21.4-5.8,47.3,8.1,48.5c6.3,0.6,16.3-4.4,25.7-20.1
			C231.7,349.5,231.1,349.5,230.7,348.2z"/>
		<path fill="#3486FE" d="M205.5,310.8c0.6-0.8,1.1-1.7,1.7-2.5C206.6,309,206.1,309.8,205.5,310.8z"/>
		<path fill="#3486FE" d="M204.6,312.3c0.4-0.5,0.6-1.1,1-1.5C205.2,311.2,204.9,311.7,204.6,312.3z"/>
		<path fill="#FFFFFF" d="M212.8,298.8c-9.4,8-16.4,23.8-13.7,23.9c0.7,0,1.1-1,1.5-2.3c1.7-4.5,5.6-12.8,12.4-18.4
			C212.4,301,212.6,299.7,212.8,298.8z"/>
		<path fill="#F9329C" d="M216,295.1c-5.5,3.3-3.1,7.1-2.3,7.3c0.5,0,0.8-0.2,1.2-0.5c5.9-4,10.6-3.1,12.8-2.1
			c4.3,1.8,7.5,6.2,9,12.1c1.7,6.5,2,17.6-5.5,33.2c-1.4,2.9-0.4,4.9,1.1,4.6c5.5-1.2,16.9-36.7,3.7-51.9
			C233.6,294.8,226.7,288.9,216,295.1z"/>
		<path fill="#F9329C" d="M814,273.3L814,273.3c-1.1-0.2-1.7,0.2-1.8,1.4v60.8c0.2,2.4,2.4,3.2,3.2,2.1c0.2-0.2,0.2-0.7,0.4-1.1
			v-60.8C815.6,273.8,814.2,273.3,814,273.3z"/>
		<path fill="#F9329C" d="M785.6,280.2c-1.1-0.1-1.7,0.4-1.8,1.5v45.4c0.2,2.5,2.6,3,3.3,2c0.2-0.4,0.2-0.7,0.4-1.1v-45.4
			C787.2,280.7,785.7,280.2,785.6,280.2z"/>
		<path fill="#F9329C" d="M755.7,302.1c-1.1-0.2-1.9,0.5-1.9,1.5v16.3c0.1,2,2.4,3.1,3.4,2c0.4-0.4,0.5-1,0.5-1.2v-16.3
			C757.5,303,756.4,302.3,755.7,302.1z"/>
		<path fill="#F9329C" d="M724.3,256.3c-1.2-0.1-1.9,0.5-2,1.7v55.8c0.2,2.5,2.9,2.9,3.7,1.8c0.2-0.4,0.4-0.7,0.4-1.1v-55.8
			C726.2,256.7,724.5,256.3,724.3,256.3z"/>
		<path fill="#F9329C" d="M691.8,242.9c-1.3,0-1.9,0.5-2,1.7v64c0.2,2.5,3,2.7,3.8,1.7c0.2-0.4,0.4-0.7,0.4-1.1v-64
			C693.7,243.1,692,242.9,691.8,242.9z"/>
		<path fill="#F9329C" d="M658.1,221.3c-1.3,0-2,0.6-2.1,1.8v81.3c0.5,2.9,3.3,2.5,4,1.3c0.1-0.2,0.2-0.6,0.2-1v-81.2
			C660,221.7,658.7,221.4,658.1,221.3z"/>
		<path fill="#F9329C" d="M623.5,225.7L623.5,225.7L623.5,225.7z"/>
		<path fill="#F9329C" d="M623.5,225.7c-2,0.1-2.1,1.4-2.1,1.9v74.1c0.2,2.5,3.2,2.6,4.2,1.2c0.1-0.2,0.2-0.6,0.2-1v-74.1
			C625.4,225.8,623.5,225.7,623.5,225.7z"/>
		<path fill="#72ABFE" d="M431.4,186.5c9.6-1.4,18.3-3.3,29.3-7.7c10-3.9,10-3.9,14.2-9.6c-16.3,8.7-26.4,12-43.4,14.6V186.5z"/>
		<path fill="#72ABFE" d="M797.6,137.1c-0.7,0.4-1.2,0.6-2,1.1c11.7,13.3,22.2,20.7,37.8,26.5v-2.6
			C818.5,156.5,808.5,149.6,797.6,137.1z"/>
		<path fill="#72ABFE" d="M534.8,149.6c-35.6,1.7-54.1,16.2-57.9,21.2c10.8-3.7,20.1-10.8,31-14.3c4.4-1.4,13.7-3.8,26.8-4.2
			c15.6-0.5,24.6,1.9,27.9,2.9c10.1,2.7,18.7,8.8,28.4,12.2C590.5,166.5,574.5,148.4,534.8,149.6z"/>
		<path fill="#72ABFE" d="M760.8,86.1C751.1,76,740.5,72.8,735,71.8c-23.4-2.7-36.6,12.6-59,45.8c-20.7,30.7-40.3,59.6-82.2,47.6
			c3.3,7.4,31.3,7.4,49.7-4.8c6.4-4.2,6.4-4.2,47.5-59.1c20.9-27.9,35.1-30.3,51.3-24.9c6.4,2.1,13.9,7.6,19.5,14.2
			c12.1,14,20.2,30.8,31.8,45.2c0.6-0.4,1.4-0.7,2-1.1C783.1,119.3,774.8,100.6,760.8,86.1z"/>
		<path fill="#F9329C" d="M813.6,130.7c-4.8-0.1-9.4,1-10.8,1.3c-15.3,3.8-24.1,18.3-38.7,23.4c-20.2,7.1-41.3-4.8-61.5,2.4
			c-13.7,4.8-22,17.2-34.6,23.5c-7.8,3.9-49.1,20.8-83.7-27.9c-10.8-15.3-25.7-36.3-54.1-31.5c-47.9,8-51.3,71.4-98.8,79.7v2.6
			c47.6-8.6,51.1-71.7,99.2-79.7c26.5-4.4,40.6,15.5,50,28.5c39.2,55.2,83.5,34,91.9,29.3c11.2-6.3,19-17.6,31.6-21.9
			c20.3-6.9,41.3,4.8,61.6-2.4c14-4.9,22.2-19,37-22.8c1.1-0.2,2.6-0.7,3.7-1c0,0,4.4-0.8,8.4-0.7c7.1,0.4,11.9,1.4,18.7,3.7v-2.6
			l0,0c-3.4-1.1-10.6-3.4-17.2-3.8C815.3,130.8,814.3,130.7,813.6,130.7z"/>
		<path fill="#3486FE" d="M336.2,257.1c-24.3,8-31,39.8-15.2,49.1c17.6,10.3,44.2-13.3,39.5-35.1C358.1,260,347.7,253.9,336.2,257.1
			z"/>
		<path opacity="0.2" fill="#3486FE" enable-background="new    " d="M431.4,74.6c31.4-4.4,64.5-7.4,98.6-8.6V55.8
			c-34.1,1.2-67.2,4-98.6,8.6V74.6z"/>
		<path opacity="0.2" fill="#3486FE" enable-background="new    " d="M431.4,93.1c31.4-4.4,64.5-7.4,98.6-8.6V74.3l0,0
			c-34.1,1.2-67.2,4-98.6,8.6V93.1z"/>
		<path opacity="0.2" fill="#3486FE" enable-background="new    " d="M431.4,111.7c16.9-2.4,34.3-4.3,52-5.8V95.6
			c-17.7,1.4-35.1,3.4-52,5.8V111.7z"/>
	</g>
</g>
<g enable-background="new    ">
	<g>
		<defs>
			<path id="SVGID_6_" d="M995.9,225.8v307.1c0,104.5-193.4,189.3-432,189.3s-432-84.8-432-189.3V225.8
				c0,104.5,193.4,189.3,432,189.3C802.6,415.2,995.9,330.4,995.9,225.8z"/>
		</defs>
		<clipPath id="SVGID_7_">
			<use xlink:href="#SVGID_6_"  overflow="visible"/>
		</clipPath>
		<g clip-path="url(#SVGID_7_)">
			<path fill="#3486FE" d="M145.7,311.1v10.2c8.3,14.2,20.2,27.6,35.3,40.2v-10.2C166,338.8,154,325.3,145.7,311.1z"/>
			<path fill="#3486FE" d="M145.7,329.7v10.2c8.3,14.2,20.2,27.6,35.3,40.2v-10.2C166,357.4,154,343.8,145.7,329.7z"/>
			<path fill="#3486FE" d="M145.7,348.2v10.2c8.3,14.2,20.2,27.6,35.3,40.2v-10.2C166,375.9,154,362.4,145.7,348.2z"/>
			<path fill="#3486FE" d="M145.7,387.9v10.2c13.8,20.3,14.3,20.7,35.3,40.2v-10.2C166,415.5,154,402.1,145.7,387.9z"/>
			<path fill="#3486FE" d="M145.7,406.5v10.2c8.3,14.2,20.2,27.6,35.3,40.2v-10.2C166,434.1,154,420.7,145.7,406.5z"/>
			<path fill="#3486FE" d="M153,435.9v10.2c8.4,11.2,8.8,11.5,28.2,29.4v-10.2C170,456,160.5,446.1,153,435.9z"/>
			<path fill="#3486FE" d="M134.7,455.3v10.2c6.1,23.8,22.1,46.4,46.4,66.7V522C156.8,501.6,140.7,479,134.7,455.3z"/>
			<path fill="#3486FE" d="M134.7,473.8V484c6.1,23.8,22.1,46.4,46.4,66.7v-10.2C156.8,520.1,140.7,497.6,134.7,473.8z"/>
			<path fill="#3486FE" d="M153,529.7L153,529.7v10.2c7.5,10.2,17,20,28.2,29.4V559C170,549.7,160.5,539.8,153,529.7z"/>
		</g>
	</g>
</g>
<path fill="#95BDE5" d="M417.2,234.3c-5.5-2-15.9-2.6-19.6-6.3s-5-9.5-9-13.6c-4-4-11.4-3.1-3.3,4.9c8,8,7.1,31.5,1.1,29.3
	c-6.1-2.1-7.5-2.7-9.6-0.6c-2.1,2.1,18.9,11.4,23.9,28.4l22.1-3.6c0,0-5.5-11.1-5.5-17C417.2,249.9,422.6,236.3,417.2,234.3z"/>
<path fill="#95BDE5" d="M308.9,369.4c-3.1,1.1-5.1,5.7-5,8.2s-11.7-7.8-19.6-15.1c-8-7.1-25-9.4-27-8.2c-2,1.2-1.7,7,10.8,9.3
	c0,0-8.1,2.3-12.8,4.5s-4.6,19.6,3.7,20.8c8.3,1.2,18,8.3,24.6,12.6c6.7,4.4,19.9,10.9,19.9,10.9l17-16.7
	C313.4,388.2,312.1,368.2,308.9,369.4z"/>
<g>
	<g>
		<path id="SVGID_64_" fill="#C2DBFF" d="M648,1010.9c0-0.1-0.1-0.2-0.2-0.4c-0.2-1.3-0.6-2.7-1.2-4.2
			c-4.3-10.1-19.1-34.3-19.1-34.3l-30,4.3c5.2,21.3-9.8,35.6-18.6,41.5c-8.8,5.8-20.6,5.1-27.5,16.5c-6.9,11.4,24.1,13.6,36.9,10.3
			c11.9-3,22.2-16.2,37-18.7c1.3,3,3,7,4,9.6c1.8,4.6,18.4-1,18.4-4.3C647.7,1027.2,649.4,1015.3,648,1010.9z"/>
	</g>
	<g>
		<defs>
			<path id="SVGID_9_" d="M648,1010.9c0-0.1-0.1-0.2-0.2-0.4c-0.2-1.3-0.6-2.7-1.2-4.2c-4.3-10.1-19.1-34.3-19.1-34.3l-30,4.3
				c5.2,21.3-9.8,35.6-18.6,41.5c-8.8,5.8-20.6,5.1-27.5,16.5c-6.9,11.4,24.1,13.6,36.9,10.3c11.9-3,22.2-16.2,37-18.7
				c1.3,3,3,7,4,9.6c1.8,4.6,18.4-1,18.4-4.3C647.7,1027.2,649.4,1015.3,648,1010.9z"/>
		</defs>
		<clipPath id="SVGID_10_">
			<use xlink:href="#SVGID_9_"  overflow="visible"/>
		</clipPath>
		<path clip-path="url(#SVGID_10_)" fill="#91BEFF" d="M609.5,979.9c0,32.9-19.7,45.1-29.3,48.5c-9.5,3.4-36.3,0-36.3,0l6.7,40.3
			l133-22.5l-48-95.1L609.5,979.9z"/>
	</g>
</g>
<g>
	<g>
		<path id="SVGID_66_" fill="#95BDE5" d="M535,650.1c-23.5,93.8-16.5,99.2-9.3,120.7c8.6,25.6,23.5,57,24.6,61.1
			s43.1,120,47.2,144.6c2.1,12.4,30.8,2.4,30-4.3c-2.1-20-6.9-110.8-11.8-136.7s-33.8-65.8-39.4-80.2c-5.6-14.4,45-99.2,52.9-115
			c20.1-40.3-14.7-56.6-32.9-96.3C578.1,504.1,547.7,599.8,535,650.1z"/>
	</g>
	<g>
		<defs>
			<path id="SVGID_11_" d="M535,650.1c-23.5,93.8-16.5,99.2-9.3,120.7c8.6,25.6,23.5,57,24.6,61.1s43.1,120,47.2,144.6
				c2.1,12.4,30.8,2.4,30-4.3c-2.1-20-6.9-110.8-11.8-136.7s-33.8-65.8-39.4-80.2c-5.6-14.4,45-99.2,52.9-115
				c20.1-40.3-14.7-56.6-32.9-96.3C578.1,504.1,547.7,599.8,535,650.1z"/>
		</defs>
		<clipPath id="SVGID_12_">
			<use xlink:href="#SVGID_11_"  overflow="visible"/>
		</clipPath>
		<path clip-path="url(#SVGID_12_)" fill="#95BDE5" d="M701.8,650.3c-7.3-21.5-44.6-38.2-64.7,2.1c-6.9,13.7-73.9,51.4-94,85
			c-4.4,7.5-3.3,16.9,2.7,23.2c30.3,31.3,48.6,72.2,53.2,96c4.9,25.9,9.5,116.8,11.8,136.7c0.7,6.7,79.7,12.4,77.4,0
			C683.9,968.6,710.4,675.9,701.8,650.3z"/>
	</g>
</g>
<g>
	<g>
		<path id="SVGID_68_" fill="#F7FBFF" d="M631.7,863.9c18.3,8.8,30.2,42.5,26.9,64.1c-1.3,8.4-12,34.5-0.1,32.6
			c16.9-2.7,32.5-38.7,32.2-59.2c-0.1-13.1-0.4-9.5,8.9-18.6c9.9-9.6,9.6-17.5-7.1-22.8c-16.1-5.1-45.1-20.6-45.1-20.6l-18,6.9
			L631.7,863.9z"/>
	</g>
	<g>
		<defs>
			<path id="SVGID_13_" d="M631.7,863.9c18.3,8.8,30.2,42.5,26.9,64.1c-1.3,8.4-12,34.5-0.1,32.6c16.9-2.7,32.5-38.7,32.2-59.2
				c-0.1-13.1-0.4-9.5,8.9-18.6c9.9-9.6,9.6-17.5-7.1-22.8c-16.1-5.1-45.1-20.6-45.1-20.6l-18,6.9L631.7,863.9z"/>
		</defs>
		<clipPath id="SVGID_14_">
			<use xlink:href="#SVGID_13_"  overflow="visible"/>
		</clipPath>
		<g clip-path="url(#SVGID_14_)">
			<path fill="#95BDE5" d="M682.2,895.1c-4.9,10.1-12.1,39.1-23.1,54.5c-13.4,18.8,18.8,21.1,21.1,23.9c2.4,3,10.7-13.1,10.7-13.1
				l25.8-63.7l-26.8-17.8C685.7,885.3,683.7,891.9,682.2,895.1z"/>
		</g>
	</g>
	<g>
		<defs>
			<path id="SVGID_15_" d="M631.7,863.9c18.3,8.8,30.2,42.5,26.9,64.1c-1.3,8.4-12,34.5-0.1,32.6c16.9-2.7,32.5-38.7,32.2-59.2
				c-0.1-13.1-0.4-9.5,8.9-18.6c9.9-9.6,9.6-17.5-7.1-22.8c-16.1-5.1-45.1-20.6-45.1-20.6l-18,6.9L631.7,863.9z"/>
		</defs>
		<clipPath id="SVGID_16_">
			<use xlink:href="#SVGID_15_"  overflow="visible"/>
		</clipPath>
		<path clip-path="url(#SVGID_16_)" fill="#91BEFF" d="M723.1,845.1c-16.1-5.1-85.6-14.4-85.6-14.4l-18,6.9l2.4,26.3
			c17.5,0,39.4,52.9,13.6,78.7c-17.4,17.4-9.3,52,52.7,52C691.5,1003.3,730.6,847.5,723.1,845.1z"/>
	</g>
</g>
<g>
	<g>
		<path id="SVGID_70_" fill="#95BDE5" d="M647.4,565.7C688.4,626,490.7,769,508.8,773c18,4.2,29.6-1.1,74.1,23.9
			c44.5,25,53.6,36.4,64.6,42.5c-13.4,5.2-15.7,24.4-15.7,24.4c-8-4.6-101.4-32.2-133-42s-50.4-15.7-60.3-28.2
			c-20.5-25.8,82.2-193.9,82.2-193.9L647.4,565.7z"/>
	</g>
	<g>
		<defs>
			<path id="SVGID_17_" d="M647.4,565.7C688.4,626,490.7,769,508.8,773c18,4.2,29.6-1.1,74.1,23.9c44.5,25,53.6,36.4,64.6,42.5
				c-13.4,5.2-15.7,24.4-15.7,24.4c-8-4.6-101.4-32.2-133-42s-50.4-15.7-60.3-28.2c-20.5-25.8,82.2-193.9,82.2-193.9L647.4,565.7z"
				/>
		</defs>
		<clipPath id="SVGID_18_">
			<use xlink:href="#SVGID_17_"  overflow="visible"/>
		</clipPath>
		<path clip-path="url(#SVGID_18_)" fill="#95BDE5" d="M598.6,537.4c27.9,95.3-45.6,158.7-54.9,169.2c-9.4,10.7-10.2,9-20.9,12.5
			c-10.8,3.4-28.9,3.7-31.9,6.9c-3,3.2-22.5,52-20,56.8c4.3,8.3,5.7,7.1,27.6,29c32.1,32.1,160.1,148.5,160.1,148.5l57.8-46.1
			L737,620.8l-84.1-119.3L598.6,537.4z"/>
	</g>
</g>
<g>
	<g>
		<path id="SVGID_72_" fill="#91BEFF" d="M426.7,281.4c-7.3-20.9-19.3-14.4-24.9-9.2s8.2,41.3,12.5,67.1c4.3,25.7,12.6,45.3,19.9,48
			c7.3,2.6,36,5.9,36,5.9l27-35.8c0,0-32.6,3.3-37.8-4.6C452.9,342.6,426.7,281.4,426.7,281.4z"/>
	</g>
	<g>
		<defs>
			<path id="SVGID_19_" d="M426.7,281.4c-7.3-20.9-19.3-14.4-24.9-9.2s8.2,41.3,12.5,67.1c4.3,25.7,12.6,45.3,19.9,48
				c7.3,2.6,36,5.9,36,5.9l27-35.8c0,0-32.6,3.3-37.8-4.6C452.9,342.6,426.7,281.4,426.7,281.4z"/>
		</defs>
		<clipPath id="SVGID_20_">
			<use xlink:href="#SVGID_19_"  overflow="visible"/>
		</clipPath>
		<path clip-path="url(#SVGID_20_)" fill="#FFFFFF" d="M353.8,274l44.4-15.5c6.3,9.5,12.4,26,24.3,59.3
			c15.6,43.5,26.3,53.3,32.1,55.4c5.7,2.1,53.3,8.9,53.3,8.9l65.5,16.5l-78.9-240.1L353.8,274z"/>
	</g>
</g>
<g>
	<g>
		<path id="SVGID_74_" fill="#95BDE5" d="M512.1,343.9c0,0,2.5-0.2,10.7-9.3c4.4-4.9,2.5-27.2,4.3-38.1s23.7-20.1,28.4-11.5
			c4.8,8.6,17.8,38.9,26,40.2c8.2,1.4,13.1,2.9,16.2,26c2.6,19.7-20.7,29-32.8,15.5c-12.1-13.4-35.2-22.7-47.2-24L512.1,343.9z"/>
	</g>
	<g>
		<defs>
			<path id="SVGID_21_" d="M512.1,343.9c0,0,2.5-0.2,10.7-9.3c4.4-4.9,2.5-27.2,4.3-38.1s23.7-20.1,28.4-11.5
				c4.8,8.6,17.8,38.9,26,40.2c8.2,1.4,13.1,2.9,16.2,26c2.6,19.7-20.7,29-32.8,15.5c-12.1-13.4-35.2-22.7-47.2-24L512.1,343.9z"/>
		</defs>
		<clipPath id="SVGID_22_">
			<use xlink:href="#SVGID_21_"  overflow="visible"/>
		</clipPath>
		<path clip-path="url(#SVGID_22_)" fill="#95BDE5" d="M547.1,275.2l-15.2-3.1l-15.1,13.2l14.5,16.7c8.6,13.6,8,46.9-7.1,50.4
			c-15.5,3.7,68.6,35.2,68.6,35.2l19.9-36.9c0,0-30.4-6.3-42.8-14.9C549,321.7,547.1,275.2,547.1,275.2z"/>
	</g>
</g>
<g>
	<g>
		<path id="SVGID_76_" fill="#91BEFF" d="M320.7,392.3c10.3,7.6,60.7,27.8,81.8,48c5.2,5,26.2-20,39.2-33.3
			c13.1-13.3,32.9-54,56.1-59.8c14.3-3.6,19.5-3.9,30.8-6.3c15-3.1,30.8,2.9,47.3,0.5c4.5-0.6,4-15.8,7.6-15.5
			c16.9,1.9,34.6,13,43.1,27.2c8.3,14.3,20.3,40.4,16.4,80.5c-3.9,40-21.6,61.4,0.7,99.5c23.9,40.8,12.6,87.7,4.8,146
			c-4.3,32.3-5.5,76.7-5.5,76.7c-20.9,20.9-71.1-42.6-124-9.4c-60.5,37.9-122.9-27.4-129.2-39.2c-51.5-96.9,48.6-58.6,107.3-118.5
			c6.4-6.5,32.9-40.6,37.7-49.5c15.1-28.3-1.5-57.1-14.5-66.7c-16.4-12.1-19.7-24.6-18.9-33.1c1.9-19.6,3.6-21.1,3.6-21.1
			c-4.9,7.3-43.4,29.5-57.9,41c-14.5,11.5-25.5,18.4-29.1,21.3c-3.7,3-7.4,9.4-28.9-6.3c-11.7-8.6-67.2-44.7-81.7-56.4
			C295.1,408.3,307.3,382.5,320.7,392.3z"/>
	</g>
	<g>
		<defs>
			<path id="SVGID_23_" d="M320.7,392.3c10.3,7.6,60.7,27.8,81.8,48c5.2,5,26.2-20,39.2-33.3c13.1-13.3,32.9-54,56.1-59.8
				c14.3-3.6,19.5-3.9,30.8-6.3c15-3.1,30.8,2.9,47.3,0.5c4.5-0.6,4-15.8,7.6-15.5c16.9,1.9,34.6,13,43.1,27.2
				c8.3,14.3,20.3,40.4,16.4,80.5c-3.9,40-21.6,61.4,0.7,99.5c23.9,40.8,12.6,87.7,4.8,146c-4.3,32.3-5.5,76.7-5.5,76.7
				c-20.9,20.9-71.1-42.6-124-9.4c-60.5,37.9-122.9-27.4-129.2-39.2c-51.5-96.9,48.6-58.6,107.3-118.5c6.4-6.5,32.9-40.6,37.7-49.5
				c15.1-28.3-1.5-57.1-14.5-66.7c-16.4-12.1-19.7-24.6-18.9-33.1c1.9-19.6,3.6-21.1,3.6-21.1c-4.9,7.3-43.4,29.5-57.9,41
				c-14.5,11.5-25.5,18.4-29.1,21.3c-3.7,3-7.4,9.4-28.9-6.3c-11.7-8.6-67.2-44.7-81.7-56.4C295.1,408.3,307.3,382.5,320.7,392.3z"
				/>
		</defs>
		<clipPath id="SVGID_24_">
			<use xlink:href="#SVGID_23_"  overflow="visible"/>
		</clipPath>
		<g clip-path="url(#SVGID_24_)">
			<path fill="#172182" d="M497.9,347.2L497.9,347.2L497.9,347.2z"/>
		</g>
	</g>
	<g>
		<defs>
			<path id="SVGID_25_" d="M320.7,392.3c10.3,7.6,60.7,27.8,81.8,48c5.2,5,26.2-20,39.2-33.3c13.1-13.3,32.9-54,56.1-59.8
				c14.3-3.6,19.5-3.9,30.8-6.3c15-3.1,30.8,2.9,47.3,0.5c4.5-0.6,4-15.8,7.6-15.5c16.9,1.9,34.6,13,43.1,27.2
				c8.3,14.3,20.3,40.4,16.4,80.5c-3.9,40-21.6,61.4,0.7,99.5c23.9,40.8,12.6,87.7,4.8,146c-4.3,32.3-5.5,76.7-5.5,76.7
				c-20.9,20.9-71.1-42.6-124-9.4c-60.5,37.9-122.9-27.4-129.2-39.2c-51.5-96.9,48.6-58.6,107.3-118.5c6.4-6.5,32.9-40.6,37.7-49.5
				c15.1-28.3-1.5-57.1-14.5-66.7c-16.4-12.1-19.7-24.6-18.9-33.1c1.9-19.6,3.6-21.1,3.6-21.1c-4.9,7.3-43.4,29.5-57.9,41
				c-14.5,11.5-25.5,18.4-29.1,21.3c-3.7,3-7.4,9.4-28.9-6.3c-11.7-8.6-67.2-44.7-81.7-56.4C295.1,408.3,307.3,382.5,320.7,392.3z"
				/>
		</defs>
		<clipPath id="SVGID_26_">
			<use xlink:href="#SVGID_25_"  overflow="visible"/>
		</clipPath>
		<path clip-path="url(#SVGID_26_)" fill="#FFFFFF" d="M557.9,329.1c-0.2,0-0.5,0-0.6,0C557.6,329.1,557.7,329.1,557.9,329.1z"/>
	</g>
	<g>
		<defs>
			<path id="SVGID_27_" d="M320.7,392.3c10.3,7.6,60.7,27.8,81.8,48c5.2,5,26.2-20,39.2-33.3c13.1-13.3,32.9-54,56.1-59.8
				c14.3-3.6,19.5-3.9,30.8-6.3c15-3.1,30.8,2.9,47.3,0.5c4.5-0.6,4-15.8,7.6-15.5c16.9,1.9,34.6,13,43.1,27.2
				c8.3,14.3,20.3,40.4,16.4,80.5c-3.9,40-21.6,61.4,0.7,99.5c23.9,40.8,12.6,87.7,4.8,146c-4.3,32.3-5.5,76.7-5.5,76.7
				c-20.9,20.9-71.1-42.6-124-9.4c-60.5,37.9-122.9-27.4-129.2-39.2c-51.5-96.9,48.6-58.6,107.3-118.5c6.4-6.5,32.9-40.6,37.7-49.5
				c15.1-28.3-1.5-57.1-14.5-66.7c-16.4-12.1-19.7-24.6-18.9-33.1c1.9-19.6,3.6-21.1,3.6-21.1c-4.9,7.3-43.4,29.5-57.9,41
				c-14.5,11.5-25.5,18.4-29.1,21.3c-3.7,3-7.4,9.4-28.9-6.3c-11.7-8.6-67.2-44.7-81.7-56.4C295.1,408.3,307.3,382.5,320.7,392.3z"
				/>
		</defs>
		<clipPath id="SVGID_28_">
			<use xlink:href="#SVGID_27_"  overflow="visible"/>
		</clipPath>
		<path clip-path="url(#SVGID_28_)" fill="#FFFFFF" d="M557.3,329.1c-0.1,0-0.2,0-0.4,0C557.1,329.1,557.2,329.1,557.3,329.1z"/>
	</g>
	<g>
		<defs>
			<path id="SVGID_29_" d="M320.7,392.3c10.3,7.6,60.7,27.8,81.8,48c5.2,5,26.2-20,39.2-33.3c13.1-13.3,32.9-54,56.1-59.8
				c14.3-3.6,19.5-3.9,30.8-6.3c15-3.1,30.8,2.9,47.3,0.5c4.5-0.6,4-15.8,7.6-15.5c16.9,1.9,34.6,13,43.1,27.2
				c8.3,14.3,20.3,40.4,16.4,80.5c-3.9,40-21.6,61.4,0.7,99.5c23.9,40.8,12.6,87.7,4.8,146c-4.3,32.3-5.5,76.7-5.5,76.7
				c-20.9,20.9-71.1-42.6-124-9.4c-60.5,37.9-122.9-27.4-129.2-39.2c-51.5-96.9,48.6-58.6,107.3-118.5c6.4-6.5,32.9-40.6,37.7-49.5
				c15.1-28.3-1.5-57.1-14.5-66.7c-16.4-12.1-19.7-24.6-18.9-33.1c1.9-19.6,3.6-21.1,3.6-21.1c-4.9,7.3-43.4,29.5-57.9,41
				c-14.5,11.5-25.5,18.4-29.1,21.3c-3.7,3-7.4,9.4-28.9-6.3c-11.7-8.6-67.2-44.7-81.7-56.4C295.1,408.3,307.3,382.5,320.7,392.3z"
				/>
		</defs>
		<clipPath id="SVGID_30_">
			<use xlink:href="#SVGID_29_"  overflow="visible"/>
		</clipPath>
		<path clip-path="url(#SVGID_30_)" fill="#FFFFFF" d="M558.4,329.1c-0.1,0-0.2,0-0.5,0C558,329.1,558.2,329.1,558.4,329.1z"/>
	</g>
	<g>
		<defs>
			<path id="SVGID_31_" d="M320.7,392.3c10.3,7.6,60.7,27.8,81.8,48c5.2,5,26.2-20,39.2-33.3c13.1-13.3,32.9-54,56.1-59.8
				c14.3-3.6,19.5-3.9,30.8-6.3c15-3.1,30.8,2.9,47.3,0.5c4.5-0.6,4-15.8,7.6-15.5c16.9,1.9,34.6,13,43.1,27.2
				c8.3,14.3,20.3,40.4,16.4,80.5c-3.9,40-21.6,61.4,0.7,99.5c23.9,40.8,12.6,87.7,4.8,146c-4.3,32.3-5.5,76.7-5.5,76.7
				c-20.9,20.9-71.1-42.6-124-9.4c-60.5,37.9-122.9-27.4-129.2-39.2c-51.5-96.9,48.6-58.6,107.3-118.5c6.4-6.5,32.9-40.6,37.7-49.5
				c15.1-28.3-1.5-57.1-14.5-66.7c-16.4-12.1-19.7-24.6-18.9-33.1c1.9-19.6,3.6-21.1,3.6-21.1c-4.9,7.3-43.4,29.5-57.9,41
				c-14.5,11.5-25.5,18.4-29.1,21.3c-3.7,3-7.4,9.4-28.9-6.3c-11.7-8.6-67.2-44.7-81.7-56.4C295.1,408.3,307.3,382.5,320.7,392.3z"
				/>
		</defs>
		<clipPath id="SVGID_32_">
			<use xlink:href="#SVGID_31_"  overflow="visible"/>
		</clipPath>
		<path clip-path="url(#SVGID_32_)" fill="#FFFFFF" d="M557,329.1c-1.2-0.1-2.1-0.1-2.9-0.2C555.1,329,556.1,329,557,329.1z"/>
	</g>
	<g>
		<defs>
			<path id="SVGID_33_" d="M320.7,392.3c10.3,7.6,60.7,27.8,81.8,48c5.2,5,26.2-20,39.2-33.3c13.1-13.3,32.9-54,56.1-59.8
				c14.3-3.6,19.5-3.9,30.8-6.3c15-3.1,30.8,2.9,47.3,0.5c4.5-0.6,4-15.8,7.6-15.5c16.9,1.9,34.6,13,43.1,27.2
				c8.3,14.3,20.3,40.4,16.4,80.5c-3.9,40-21.6,61.4,0.7,99.5c23.9,40.8,12.6,87.7,4.8,146c-4.3,32.3-5.5,76.7-5.5,76.7
				c-20.9,20.9-71.1-42.6-124-9.4c-60.5,37.9-122.9-27.4-129.2-39.2c-51.5-96.9,48.6-58.6,107.3-118.5c6.4-6.5,32.9-40.6,37.7-49.5
				c15.1-28.3-1.5-57.1-14.5-66.7c-16.4-12.1-19.7-24.6-18.9-33.1c1.9-19.6,3.6-21.1,3.6-21.1c-4.9,7.3-43.4,29.5-57.9,41
				c-14.5,11.5-25.5,18.4-29.1,21.3c-3.7,3-7.4,9.4-28.9-6.3c-11.7-8.6-67.2-44.7-81.7-56.4C295.1,408.3,307.3,382.5,320.7,392.3z"
				/>
		</defs>
		<clipPath id="SVGID_34_">
			<use xlink:href="#SVGID_33_"  overflow="visible"/>
		</clipPath>
		<path clip-path="url(#SVGID_34_)" fill="#FFFFFF" d="M559,329.2c0,0-0.1,0-0.2,0C558.8,329.2,558.9,329.2,559,329.2z"/>
	</g>
	<g>
		<defs>
			<path id="SVGID_35_" d="M320.7,392.3c10.3,7.6,60.7,27.8,81.8,48c5.2,5,26.2-20,39.2-33.3c13.1-13.3,32.9-54,56.1-59.8
				c14.3-3.6,19.5-3.9,30.8-6.3c15-3.1,30.8,2.9,47.3,0.5c4.5-0.6,4-15.8,7.6-15.5c16.9,1.9,34.6,13,43.1,27.2
				c8.3,14.3,20.3,40.4,16.4,80.5c-3.9,40-21.6,61.4,0.7,99.5c23.9,40.8,12.6,87.7,4.8,146c-4.3,32.3-5.5,76.7-5.5,76.7
				c-20.9,20.9-71.1-42.6-124-9.4c-60.5,37.9-122.9-27.4-129.2-39.2c-51.5-96.9,48.6-58.6,107.3-118.5c6.4-6.5,32.9-40.6,37.7-49.5
				c15.1-28.3-1.5-57.1-14.5-66.7c-16.4-12.1-19.7-24.6-18.9-33.1c1.9-19.6,3.6-21.1,3.6-21.1c-4.9,7.3-43.4,29.5-57.9,41
				c-14.5,11.5-25.5,18.4-29.1,21.3c-3.7,3-7.4,9.4-28.9-6.3c-11.7-8.6-67.2-44.7-81.7-56.4C295.1,408.3,307.3,382.5,320.7,392.3z"
				/>
		</defs>
		<clipPath id="SVGID_36_">
			<use xlink:href="#SVGID_35_"  overflow="visible"/>
		</clipPath>
		<path clip-path="url(#SVGID_36_)" fill="#FFFFFF" d="M558.8,329.2c-0.1,0-0.2,0-0.4,0C558.5,329.2,558.6,329.2,558.8,329.2z"/>
	</g>
	<g>
		<defs>
			<path id="SVGID_37_" d="M320.7,392.3c10.3,7.6,60.7,27.8,81.8,48c5.2,5,26.2-20,39.2-33.3c13.1-13.3,32.9-54,56.1-59.8
				c14.3-3.6,19.5-3.9,30.8-6.3c15-3.1,30.8,2.9,47.3,0.5c4.5-0.6,4-15.8,7.6-15.5c16.9,1.9,34.6,13,43.1,27.2
				c8.3,14.3,20.3,40.4,16.4,80.5c-3.9,40-21.6,61.4,0.7,99.5c23.9,40.8,12.6,87.7,4.8,146c-4.3,32.3-5.5,76.7-5.5,76.7
				c-20.9,20.9-71.1-42.6-124-9.4c-60.5,37.9-122.9-27.4-129.2-39.2c-51.5-96.9,48.6-58.6,107.3-118.5c6.4-6.5,32.9-40.6,37.7-49.5
				c15.1-28.3-1.5-57.1-14.5-66.7c-16.4-12.1-19.7-24.6-18.9-33.1c1.9-19.6,3.6-21.1,3.6-21.1c-4.9,7.3-43.4,29.5-57.9,41
				c-14.5,11.5-25.5,18.4-29.1,21.3c-3.7,3-7.4,9.4-28.9-6.3c-11.7-8.6-67.2-44.7-81.7-56.4C295.1,408.3,307.3,382.5,320.7,392.3z"
				/>
		</defs>
		<clipPath id="SVGID_38_">
			<use xlink:href="#SVGID_37_"  overflow="visible"/>
		</clipPath>
		<path clip-path="url(#SVGID_38_)" fill="#FFFFFF" d="M552.3,328.7C552,328.7,552,328.7,552.3,328.7L552.3,328.7z"/>
	</g>
	<g>
		<defs>
			<path id="SVGID_39_" d="M320.7,392.3c10.3,7.6,60.7,27.8,81.8,48c5.2,5,26.2-20,39.2-33.3c13.1-13.3,32.9-54,56.1-59.8
				c14.3-3.6,19.5-3.9,30.8-6.3c15-3.1,30.8,2.9,47.3,0.5c4.5-0.6,4-15.8,7.6-15.5c16.9,1.9,34.6,13,43.1,27.2
				c8.3,14.3,20.3,40.4,16.4,80.5c-3.9,40-21.6,61.4,0.7,99.5c23.9,40.8,12.6,87.7,4.8,146c-4.3,32.3-5.5,76.7-5.5,76.7
				c-20.9,20.9-71.1-42.6-124-9.4c-60.5,37.9-122.9-27.4-129.2-39.2c-51.5-96.9,48.6-58.6,107.3-118.5c6.4-6.5,32.9-40.6,37.7-49.5
				c15.1-28.3-1.5-57.1-14.5-66.7c-16.4-12.1-19.7-24.6-18.9-33.1c1.9-19.6,3.6-21.1,3.6-21.1c-4.9,7.3-43.4,29.5-57.9,41
				c-14.5,11.5-25.5,18.4-29.1,21.3c-3.7,3-7.4,9.4-28.9-6.3c-11.7-8.6-67.2-44.7-81.7-56.4C295.1,408.3,307.3,382.5,320.7,392.3z"
				/>
		</defs>
		<clipPath id="SVGID_40_">
			<use xlink:href="#SVGID_39_"  overflow="visible"/>
		</clipPath>
		<path clip-path="url(#SVGID_40_)" fill="#FFFFFF" d="M552.5,328.7C552.5,328.7,552.3,328.7,552.5,328.7
			C552.3,328.7,552.5,328.7,552.5,328.7z"/>
	</g>
	<g>
		<defs>
			<path id="SVGID_41_" d="M320.7,392.3c10.3,7.6,60.7,27.8,81.8,48c5.2,5,26.2-20,39.2-33.3c13.1-13.3,32.9-54,56.1-59.8
				c14.3-3.6,19.5-3.9,30.8-6.3c15-3.1,30.8,2.9,47.3,0.5c4.5-0.6,4-15.8,7.6-15.5c16.9,1.9,34.6,13,43.1,27.2
				c8.3,14.3,20.3,40.4,16.4,80.5c-3.9,40-21.6,61.4,0.7,99.5c23.9,40.8,12.6,87.7,4.8,146c-4.3,32.3-5.5,76.7-5.5,76.7
				c-20.9,20.9-71.1-42.6-124-9.4c-60.5,37.9-122.9-27.4-129.2-39.2c-51.5-96.9,48.6-58.6,107.3-118.5c6.4-6.5,32.9-40.6,37.7-49.5
				c15.1-28.3-1.5-57.1-14.5-66.7c-16.4-12.1-19.7-24.6-18.9-33.1c1.9-19.6,3.6-21.1,3.6-21.1c-4.9,7.3-43.4,29.5-57.9,41
				c-14.5,11.5-25.5,18.4-29.1,21.3c-3.7,3-7.4,9.4-28.9-6.3c-11.7-8.6-67.2-44.7-81.7-56.4C295.1,408.3,307.3,382.5,320.7,392.3z"
				/>
		</defs>
		<clipPath id="SVGID_42_">
			<use xlink:href="#SVGID_41_"  overflow="visible"/>
		</clipPath>
		<path clip-path="url(#SVGID_42_)" fill="#FFFFFF" d="M554.1,328.8c-0.1,0-0.4,0-0.5,0C553.8,328.8,554,328.8,554.1,328.8z"/>
	</g>
	<g>
		<defs>
			<path id="SVGID_43_" d="M320.7,392.3c10.3,7.6,60.7,27.8,81.8,48c5.2,5,26.2-20,39.2-33.3c13.1-13.3,32.9-54,56.1-59.8
				c14.3-3.6,19.5-3.9,30.8-6.3c15-3.1,30.8,2.9,47.3,0.5c4.5-0.6,4-15.8,7.6-15.5c16.9,1.9,34.6,13,43.1,27.2
				c8.3,14.3,20.3,40.4,16.4,80.5c-3.9,40-21.6,61.4,0.7,99.5c23.9,40.8,12.6,87.7,4.8,146c-4.3,32.3-5.5,76.7-5.5,76.7
				c-20.9,20.9-71.1-42.6-124-9.4c-60.5,37.9-122.9-27.4-129.2-39.2c-51.5-96.9,48.6-58.6,107.3-118.5c6.4-6.5,32.9-40.6,37.7-49.5
				c15.1-28.3-1.5-57.1-14.5-66.7c-16.4-12.1-19.7-24.6-18.9-33.1c1.9-19.6,3.6-21.1,3.6-21.1c-4.9,7.3-43.4,29.5-57.9,41
				c-14.5,11.5-25.5,18.4-29.1,21.3c-3.7,3-7.4,9.4-28.9-6.3c-11.7-8.6-67.2-44.7-81.7-56.4C295.1,408.3,307.3,382.5,320.7,392.3z"
				/>
		</defs>
		<clipPath id="SVGID_44_">
			<use xlink:href="#SVGID_43_"  overflow="visible"/>
		</clipPath>
		<path clip-path="url(#SVGID_44_)" fill="#FFFFFF" d="M682.1,429c23.5-8-58.4-95.6-123.1-99.8l-23.8,9.6c0,0-7.6,10.3-37.9,18.4
			c-15.7,4.2-43.2,45-47.9,50.3c-4.8,5.4-32.6,53.8-50.5,55.2c-18,1.4-97.9-63.6-110.8-62.2c-13.1,1.4,91.6,124.6,91.6,124.6
			s67-34.4,125.6-106.8c7.3-8.9-7.7,28.3,19.7,41.9c48,23.4,50.8,40.2,49.4,58c-2.6,34.4,14,68-68.1,101.7
			c-48.8,19.9-141.4,143.5-124,138.4c15.6-4.5,87.5,25.9,137.1-11.8c48.9-37.2,76.6-145.1,76.6-10.1c0,68.1,88.5,79.1,110.5,67.2
			c32.3-17.6-28.3-167-38.4-244.9C654.7,458.7,620.4,449.8,682.1,429z"/>
	</g>
	<g>
		<defs>
			<path id="SVGID_45_" d="M320.7,392.3c10.3,7.6,60.7,27.8,81.8,48c5.2,5,26.2-20,39.2-33.3c13.1-13.3,32.9-54,56.1-59.8
				c14.3-3.6,19.5-3.9,30.8-6.3c15-3.1,30.8,2.9,47.3,0.5c4.5-0.6,4-15.8,7.6-15.5c16.9,1.9,34.6,13,43.1,27.2
				c8.3,14.3,20.3,40.4,16.4,80.5c-3.9,40-21.6,61.4,0.7,99.5c23.9,40.8,12.6,87.7,4.8,146c-4.3,32.3-5.5,76.7-5.5,76.7
				c-20.9,20.9-71.1-42.6-124-9.4c-60.5,37.9-122.9-27.4-129.2-39.2c-51.5-96.9,48.6-58.6,107.3-118.5c6.4-6.5,32.9-40.6,37.7-49.5
				c15.1-28.3-1.5-57.1-14.5-66.7c-16.4-12.1-19.7-24.6-18.9-33.1c1.9-19.6,3.6-21.1,3.6-21.1c-4.9,7.3-43.4,29.5-57.9,41
				c-14.5,11.5-25.5,18.4-29.1,21.3c-3.7,3-7.4,9.4-28.9-6.3c-11.7-8.6-67.2-44.7-81.7-56.4C295.1,408.3,307.3,382.5,320.7,392.3z"
				/>
		</defs>
		<clipPath id="SVGID_46_">
			<use xlink:href="#SVGID_45_"  overflow="visible"/>
		</clipPath>
		<path clip-path="url(#SVGID_46_)" fill="#FFFFFF" d="M553.6,328.8c-0.2,0-0.5,0-0.7,0C553.2,328.8,553.4,328.8,553.6,328.8z"/>
	</g>
	<g>
		<defs>
			<path id="SVGID_47_" d="M320.7,392.3c10.3,7.6,60.7,27.8,81.8,48c5.2,5,26.2-20,39.2-33.3c13.1-13.3,32.9-54,56.1-59.8
				c14.3-3.6,19.5-3.9,30.8-6.3c15-3.1,30.8,2.9,47.3,0.5c4.5-0.6,4-15.8,7.6-15.5c16.9,1.9,34.6,13,43.1,27.2
				c8.3,14.3,20.3,40.4,16.4,80.5c-3.9,40-21.6,61.4,0.7,99.5c23.9,40.8,12.6,87.7,4.8,146c-4.3,32.3-5.5,76.7-5.5,76.7
				c-20.9,20.9-71.1-42.6-124-9.4c-60.5,37.9-122.9-27.4-129.2-39.2c-51.5-96.9,48.6-58.6,107.3-118.5c6.4-6.5,32.9-40.6,37.7-49.5
				c15.1-28.3-1.5-57.1-14.5-66.7c-16.4-12.1-19.7-24.6-18.9-33.1c1.9-19.6,3.6-21.1,3.6-21.1c-4.9,7.3-43.4,29.5-57.9,41
				c-14.5,11.5-25.5,18.4-29.1,21.3c-3.7,3-7.4,9.4-28.9-6.3c-11.7-8.6-67.2-44.7-81.7-56.4C295.1,408.3,307.3,382.5,320.7,392.3z"
				/>
		</defs>
		<clipPath id="SVGID_48_">
			<use xlink:href="#SVGID_47_"  overflow="visible"/>
		</clipPath>
		<path clip-path="url(#SVGID_48_)" fill="#FFFFFF" d="M552.9,328.7c-0.1,0-0.2,0-0.4,0C552.7,328.7,552.8,328.7,552.9,328.7z"/>
	</g>
	<g>
		<defs>
			<path id="SVGID_49_" d="M320.7,392.3c10.3,7.6,60.7,27.8,81.8,48c5.2,5,26.2-20,39.2-33.3c13.1-13.3,32.9-54,56.1-59.8
				c14.3-3.6,19.5-3.9,30.8-6.3c15-3.1,30.8,2.9,47.3,0.5c4.5-0.6,4-15.8,7.6-15.5c16.9,1.9,34.6,13,43.1,27.2
				c8.3,14.3,20.3,40.4,16.4,80.5c-3.9,40-21.6,61.4,0.7,99.5c23.9,40.8,12.6,87.7,4.8,146c-4.3,32.3-5.5,76.7-5.5,76.7
				c-20.9,20.9-71.1-42.6-124-9.4c-60.5,37.9-122.9-27.4-129.2-39.2c-51.5-96.9,48.6-58.6,107.3-118.5c6.4-6.5,32.9-40.6,37.7-49.5
				c15.1-28.3-1.5-57.1-14.5-66.7c-16.4-12.1-19.7-24.6-18.9-33.1c1.9-19.6,3.6-21.1,3.6-21.1c-4.9,7.3-43.4,29.5-57.9,41
				c-14.5,11.5-25.5,18.4-29.1,21.3c-3.7,3-7.4,9.4-28.9-6.3c-11.7-8.6-67.2-44.7-81.7-56.4C295.1,408.3,307.3,382.5,320.7,392.3z"
				/>
		</defs>
		<clipPath id="SVGID_50_">
			<use xlink:href="#SVGID_49_"  overflow="visible"/>
		</clipPath>
		<path clip-path="url(#SVGID_50_)" fill="#FFFFFF" d="M552.6,328.7h-0.1H552.6z"/>
	</g>
	<g>
		<defs>
			<path id="SVGID_51_" d="M320.7,392.3c10.3,7.6,60.7,27.8,81.8,48c5.2,5,26.2-20,39.2-33.3c13.1-13.3,32.9-54,56.1-59.8
				c14.3-3.6,19.5-3.9,30.8-6.3c15-3.1,30.8,2.9,47.3,0.5c4.5-0.6,4-15.8,7.6-15.5c16.9,1.9,34.6,13,43.1,27.2
				c8.3,14.3,20.3,40.4,16.4,80.5c-3.9,40-21.6,61.4,0.7,99.5c23.9,40.8,12.6,87.7,4.8,146c-4.3,32.3-5.5,76.7-5.5,76.7
				c-20.9,20.9-71.1-42.6-124-9.4c-60.5,37.9-122.9-27.4-129.2-39.2c-51.5-96.9,48.6-58.6,107.3-118.5c6.4-6.5,32.9-40.6,37.7-49.5
				c15.1-28.3-1.5-57.1-14.5-66.7c-16.4-12.1-19.7-24.6-18.9-33.1c1.9-19.6,3.6-21.1,3.6-21.1c-4.9,7.3-43.4,29.5-57.9,41
				c-14.5,11.5-25.5,18.4-29.1,21.3c-3.7,3-7.4,9.4-28.9-6.3c-11.7-8.6-67.2-44.7-81.7-56.4C295.1,408.3,307.3,382.5,320.7,392.3z"
				/>
		</defs>
		<clipPath id="SVGID_52_">
			<use xlink:href="#SVGID_51_"  overflow="visible"/>
		</clipPath>
		<path clip-path="url(#SVGID_52_)" fill="#FFFFFF" d="M557.9,329.1c-0.2,0-0.5,0-0.6,0C557.6,329.1,557.7,329.1,557.9,329.1z"/>
	</g>
	<g>
		<defs>
			<path id="SVGID_53_" d="M320.7,392.3c10.3,7.6,60.7,27.8,81.8,48c5.2,5,26.2-20,39.2-33.3c13.1-13.3,32.9-54,56.1-59.8
				c14.3-3.6,19.5-3.9,30.8-6.3c15-3.1,30.8,2.9,47.3,0.5c4.5-0.6,4-15.8,7.6-15.5c16.9,1.9,34.6,13,43.1,27.2
				c8.3,14.3,20.3,40.4,16.4,80.5c-3.9,40-21.6,61.4,0.7,99.5c23.9,40.8,12.6,87.7,4.8,146c-4.3,32.3-5.5,76.7-5.5,76.7
				c-20.9,20.9-71.1-42.6-124-9.4c-60.5,37.9-122.9-27.4-129.2-39.2c-51.5-96.9,48.6-58.6,107.3-118.5c6.4-6.5,32.9-40.6,37.7-49.5
				c15.1-28.3-1.5-57.1-14.5-66.7c-16.4-12.1-19.7-24.6-18.9-33.1c1.9-19.6,3.6-21.1,3.6-21.1c-4.9,7.3-43.4,29.5-57.9,41
				c-14.5,11.5-25.5,18.4-29.1,21.3c-3.7,3-7.4,9.4-28.9-6.3c-11.7-8.6-67.2-44.7-81.7-56.4C295.1,408.3,307.3,382.5,320.7,392.3z"
				/>
		</defs>
		<clipPath id="SVGID_54_">
			<use xlink:href="#SVGID_53_"  overflow="visible"/>
		</clipPath>
		<path clip-path="url(#SVGID_54_)" fill="#FFFFFF" d="M558.4,329.1c-0.1,0-0.2,0-0.5,0C558,329.1,558.2,329.1,558.4,329.1z"/>
	</g>
	<g>
		<defs>
			<path id="SVGID_55_" d="M320.7,392.3c10.3,7.6,60.7,27.8,81.8,48c5.2,5,26.2-20,39.2-33.3c13.1-13.3,32.9-54,56.1-59.8
				c14.3-3.6,19.5-3.9,30.8-6.3c15-3.1,30.8,2.9,47.3,0.5c4.5-0.6,4-15.8,7.6-15.5c16.9,1.9,34.6,13,43.1,27.2
				c8.3,14.3,20.3,40.4,16.4,80.5c-3.9,40-21.6,61.4,0.7,99.5c23.9,40.8,12.6,87.7,4.8,146c-4.3,32.3-5.5,76.7-5.5,76.7
				c-20.9,20.9-71.1-42.6-124-9.4c-60.5,37.9-122.9-27.4-129.2-39.2c-51.5-96.9,48.6-58.6,107.3-118.5c6.4-6.5,32.9-40.6,37.7-49.5
				c15.1-28.3-1.5-57.1-14.5-66.7c-16.4-12.1-19.7-24.6-18.9-33.1c1.9-19.6,3.6-21.1,3.6-21.1c-4.9,7.3-43.4,29.5-57.9,41
				c-14.5,11.5-25.5,18.4-29.1,21.3c-3.7,3-7.4,9.4-28.9-6.3c-11.7-8.6-67.2-44.7-81.7-56.4C295.1,408.3,307.3,382.5,320.7,392.3z"
				/>
		</defs>
		<clipPath id="SVGID_56_">
			<use xlink:href="#SVGID_55_"  overflow="visible"/>
		</clipPath>
		<path clip-path="url(#SVGID_56_)" fill="#FFFFFF" d="M558.8,329.2c-0.1,0-0.2,0-0.4,0C558.5,329.2,558.6,329.2,558.8,329.2z"/>
	</g>
	<g>
		<defs>
			<path id="SVGID_57_" d="M320.7,392.3c10.3,7.6,60.7,27.8,81.8,48c5.2,5,26.2-20,39.2-33.3c13.1-13.3,32.9-54,56.1-59.8
				c14.3-3.6,19.5-3.9,30.8-6.3c15-3.1,30.8,2.9,47.3,0.5c4.5-0.6,4-15.8,7.6-15.5c16.9,1.9,34.6,13,43.1,27.2
				c8.3,14.3,20.3,40.4,16.4,80.5c-3.9,40-21.6,61.4,0.7,99.5c23.9,40.8,12.6,87.7,4.8,146c-4.3,32.3-5.5,76.7-5.5,76.7
				c-20.9,20.9-71.1-42.6-124-9.4c-60.5,37.9-122.9-27.4-129.2-39.2c-51.5-96.9,48.6-58.6,107.3-118.5c6.4-6.5,32.9-40.6,37.7-49.5
				c15.1-28.3-1.5-57.1-14.5-66.7c-16.4-12.1-19.7-24.6-18.9-33.1c1.9-19.6,3.6-21.1,3.6-21.1c-4.9,7.3-43.4,29.5-57.9,41
				c-14.5,11.5-25.5,18.4-29.1,21.3c-3.7,3-7.4,9.4-28.9-6.3c-11.7-8.6-67.2-44.7-81.7-56.4C295.1,408.3,307.3,382.5,320.7,392.3z"
				/>
		</defs>
		<clipPath id="SVGID_58_">
			<use xlink:href="#SVGID_57_"  overflow="visible"/>
		</clipPath>
		<path clip-path="url(#SVGID_58_)" fill="#FFFFFF" d="M557.3,329.1c-0.1,0-0.2,0-0.4,0C557.1,329.1,557.2,329.1,557.3,329.1z"/>
	</g>
	<g>
		<defs>
			<path id="SVGID_59_" d="M320.7,392.3c10.3,7.6,60.7,27.8,81.8,48c5.2,5,26.2-20,39.2-33.3c13.1-13.3,32.9-54,56.1-59.8
				c14.3-3.6,19.5-3.9,30.8-6.3c15-3.1,30.8,2.9,47.3,0.5c4.5-0.6,4-15.8,7.6-15.5c16.9,1.9,34.6,13,43.1,27.2
				c8.3,14.3,20.3,40.4,16.4,80.5c-3.9,40-21.6,61.4,0.7,99.5c23.9,40.8,12.6,87.7,4.8,146c-4.3,32.3-5.5,76.7-5.5,76.7
				c-20.9,20.9-71.1-42.6-124-9.4c-60.5,37.9-122.9-27.4-129.2-39.2c-51.5-96.9,48.6-58.6,107.3-118.5c6.4-6.5,32.9-40.6,37.7-49.5
				c15.1-28.3-1.5-57.1-14.5-66.7c-16.4-12.1-19.7-24.6-18.9-33.1c1.9-19.6,3.6-21.1,3.6-21.1c-4.9,7.3-43.4,29.5-57.9,41
				c-14.5,11.5-25.5,18.4-29.1,21.3c-3.7,3-7.4,9.4-28.9-6.3c-11.7-8.6-67.2-44.7-81.7-56.4C295.1,408.3,307.3,382.5,320.7,392.3z"
				/>
		</defs>
		<clipPath id="SVGID_60_">
			<use xlink:href="#SVGID_59_"  overflow="visible"/>
		</clipPath>
		<path clip-path="url(#SVGID_60_)" fill="#FFFFFF" d="M559,329.2c0,0-0.1,0-0.2,0C558.8,329.2,558.9,329.2,559,329.2z"/>
	</g>
	<g>
		<defs>
			<path id="SVGID_61_" d="M320.7,392.3c10.3,7.6,60.7,27.8,81.8,48c5.2,5,26.2-20,39.2-33.3c13.1-13.3,32.9-54,56.1-59.8
				c14.3-3.6,19.5-3.9,30.8-6.3c15-3.1,30.8,2.9,47.3,0.5c4.5-0.6,4-15.8,7.6-15.5c16.9,1.9,34.6,13,43.1,27.2
				c8.3,14.3,20.3,40.4,16.4,80.5c-3.9,40-21.6,61.4,0.7,99.5c23.9,40.8,12.6,87.7,4.8,146c-4.3,32.3-5.5,76.7-5.5,76.7
				c-20.9,20.9-71.1-42.6-124-9.4c-60.5,37.9-122.9-27.4-129.2-39.2c-51.5-96.9,48.6-58.6,107.3-118.5c6.4-6.5,32.9-40.6,37.7-49.5
				c15.1-28.3-1.5-57.1-14.5-66.7c-16.4-12.1-19.7-24.6-18.9-33.1c1.9-19.6,3.6-21.1,3.6-21.1c-4.9,7.3-43.4,29.5-57.9,41
				c-14.5,11.5-25.5,18.4-29.1,21.3c-3.7,3-7.4,9.4-28.9-6.3c-11.7-8.6-67.2-44.7-81.7-56.4C295.1,408.3,307.3,382.5,320.7,392.3z"
				/>
		</defs>
		<clipPath id="SVGID_62_">
			<use xlink:href="#SVGID_61_"  overflow="visible"/>
		</clipPath>
		<path clip-path="url(#SVGID_62_)" fill="#FFFFFF" d="M552.6,328.7h-0.1H552.6z"/>
	</g>
	<g>
		<defs>
			<path id="SVGID_63_" d="M320.7,392.3c10.3,7.6,60.7,27.8,81.8,48c5.2,5,26.2-20,39.2-33.3c13.1-13.3,32.9-54,56.1-59.8
				c14.3-3.6,19.5-3.9,30.8-6.3c15-3.1,30.8,2.9,47.3,0.5c4.5-0.6,4-15.8,7.6-15.5c16.9,1.9,34.6,13,43.1,27.2
				c8.3,14.3,20.3,40.4,16.4,80.5c-3.9,40-21.6,61.4,0.7,99.5c23.9,40.8,12.6,87.7,4.8,146c-4.3,32.3-5.5,76.7-5.5,76.7
				c-20.9,20.9-71.1-42.6-124-9.4c-60.5,37.9-122.9-27.4-129.2-39.2c-51.5-96.9,48.6-58.6,107.3-118.5c6.4-6.5,32.9-40.6,37.7-49.5
				c15.1-28.3-1.5-57.1-14.5-66.7c-16.4-12.1-19.7-24.6-18.9-33.1c1.9-19.6,3.6-21.1,3.6-21.1c-4.9,7.3-43.4,29.5-57.9,41
				c-14.5,11.5-25.5,18.4-29.1,21.3c-3.7,3-7.4,9.4-28.9-6.3c-11.7-8.6-67.2-44.7-81.7-56.4C295.1,408.3,307.3,382.5,320.7,392.3z"
				/>
		</defs>
		<clipPath id="SVGID_65_">
			<use xlink:href="#SVGID_63_"  overflow="visible"/>
		</clipPath>
		<path clip-path="url(#SVGID_65_)" fill="#FFFFFF" d="M552.3,328.7C552,328.7,552,328.7,552.3,328.7L552.3,328.7z"/>
	</g>
	<g>
		<defs>
			<path id="SVGID_67_" d="M320.7,392.3c10.3,7.6,60.7,27.8,81.8,48c5.2,5,26.2-20,39.2-33.3c13.1-13.3,32.9-54,56.1-59.8
				c14.3-3.6,19.5-3.9,30.8-6.3c15-3.1,30.8,2.9,47.3,0.5c4.5-0.6,4-15.8,7.6-15.5c16.9,1.9,34.6,13,43.1,27.2
				c8.3,14.3,20.3,40.4,16.4,80.5c-3.9,40-21.6,61.4,0.7,99.5c23.9,40.8,12.6,87.7,4.8,146c-4.3,32.3-5.5,76.7-5.5,76.7
				c-20.9,20.9-71.1-42.6-124-9.4c-60.5,37.9-122.9-27.4-129.2-39.2c-51.5-96.9,48.6-58.6,107.3-118.5c6.4-6.5,32.9-40.6,37.7-49.5
				c15.1-28.3-1.5-57.1-14.5-66.7c-16.4-12.1-19.7-24.6-18.9-33.1c1.9-19.6,3.6-21.1,3.6-21.1c-4.9,7.3-43.4,29.5-57.9,41
				c-14.5,11.5-25.5,18.4-29.1,21.3c-3.7,3-7.4,9.4-28.9-6.3c-11.7-8.6-67.2-44.7-81.7-56.4C295.1,408.3,307.3,382.5,320.7,392.3z"
				/>
		</defs>
		<clipPath id="SVGID_69_">
			<use xlink:href="#SVGID_67_"  overflow="visible"/>
		</clipPath>
		<path clip-path="url(#SVGID_69_)" fill="#FFFFFF" d="M682.1,429c23.5-8-58.4-95.6-123.1-99.8l-23.8,9.6c0,0-7.6,10.3-37.9,18.4
			c-15.7,4.2-43.2,45-47.9,50.3c-4.8,5.4-32.6,53.8-50.5,55.2c-18,1.4-97.9-63.6-110.8-62.2c-13.1,1.4,91.6,124.6,91.6,124.6
			s67-34.4,125.6-106.8c7.3-8.9-7.7,28.3,19.7,41.9c48,23.4,50.8,40.2,49.4,58c-2.6,34.4,14,68-68.1,101.7
			c-48.8,19.9-141.4,143.5-124,138.4c15.6-4.5,87.5,25.9,137.1-11.8c48.9-37.2,76.6-10.1,76.6-10.1c0,68.1,88.5,79.1,110.5,67.2
			c32.3-17.6-28.3-167-38.4-244.9C654.7,458.7,620.4,449.8,682.1,429z"/>
	</g>
	<g>
		<defs>
			<path id="SVGID_71_" d="M320.7,392.3c10.3,7.6,60.7,27.8,81.8,48c5.2,5,26.2-20,39.2-33.3c13.1-13.3,32.9-54,56.1-59.8
				c14.3-3.6,19.5-3.9,30.8-6.3c15-3.1,30.8,2.9,47.3,0.5c4.5-0.6,4-15.8,7.6-15.5c16.9,1.9,34.6,13,43.1,27.2
				c8.3,14.3,20.3,40.4,16.4,80.5c-3.9,40-21.6,61.4,0.7,99.5c23.9,40.8,12.6,87.7,4.8,146c-4.3,32.3-5.5,76.7-5.5,76.7
				c-20.9,20.9-71.1-42.6-124-9.4c-60.5,37.9-122.9-27.4-129.2-39.2c-51.5-96.9,48.6-58.6,107.3-118.5c6.4-6.5,32.9-40.6,37.7-49.5
				c15.1-28.3-1.5-57.1-14.5-66.7c-16.4-12.1-19.7-24.6-18.9-33.1c1.9-19.6,3.6-21.1,3.6-21.1c-4.9,7.3-43.4,29.5-57.9,41
				c-14.5,11.5-25.5,18.4-29.1,21.3c-3.7,3-7.4,9.4-28.9-6.3c-11.7-8.6-67.2-44.7-81.7-56.4C295.1,408.3,307.3,382.5,320.7,392.3z"
				/>
		</defs>
		<clipPath id="SVGID_73_">
			<use xlink:href="#SVGID_71_"  overflow="visible"/>
		</clipPath>
		<path clip-path="url(#SVGID_73_)" fill="#FFFFFF" d="M557,329.1c-1.2-0.1-2.1-0.1-2.9-0.2C555.1,329,556.1,329,557,329.1z"/>
	</g>
	<g>
		<defs>
			<path id="SVGID_75_" d="M320.7,392.3c10.3,7.6,60.7,27.8,81.8,48c5.2,5,26.2-20,39.2-33.3c13.1-13.3,32.9-54,56.1-59.8
				c14.3-3.6,19.5-3.9,30.8-6.3c15-3.1,30.8,2.9,47.3,0.5c4.5-0.6,4-15.8,7.6-15.5c16.9,1.9,34.6,13,43.1,27.2
				c8.3,14.3,20.3,40.4,16.4,80.5c-3.9,40-21.6,61.4,0.7,99.5c23.9,40.8,12.6,87.7,4.8,146c-4.3,32.3-5.5,76.7-5.5,76.7
				c-20.9,20.9-71.1-42.6-124-9.4c-60.5,37.9-122.9-27.4-129.2-39.2c-51.5-96.9,48.6-58.6,107.3-118.5c6.4-6.5,32.9-40.6,37.7-49.5
				c15.1-28.3-1.5-57.1-14.5-66.7c-16.4-12.1-19.7-24.6-18.9-33.1c1.9-19.6,3.6-21.1,3.6-21.1c-4.9,7.3-43.4,29.5-57.9,41
				c-14.5,11.5-25.5,18.4-29.1,21.3c-3.7,3-7.4,9.4-28.9-6.3c-11.7-8.6-67.2-44.7-81.7-56.4C295.1,408.3,307.3,382.5,320.7,392.3z"
				/>
		</defs>
		<clipPath id="SVGID_77_">
			<use xlink:href="#SVGID_75_"  overflow="visible"/>
		</clipPath>
		<path clip-path="url(#SVGID_77_)" fill="#FFFFFF" d="M552.5,328.7C552.5,328.7,552.3,328.7,552.5,328.7
			C552.3,328.7,552.5,328.7,552.5,328.7z"/>
	</g>
	<g>
		<defs>
			<path id="SVGID_79_" d="M320.7,392.3c10.3,7.6,60.7,27.8,81.8,48c5.2,5,26.2-20,39.2-33.3c13.1-13.3,32.9-54,56.1-59.8
				c14.3-3.6,19.5-3.9,30.8-6.3c15-3.1,30.8,2.9,47.3,0.5c4.5-0.6,4-15.8,7.6-15.5c16.9,1.9,34.6,13,43.1,27.2
				c8.3,14.3,20.3,40.4,16.4,80.5c-3.9,40-21.6,61.4,0.7,99.5c23.9,40.8,12.6,87.7,4.8,146c-4.3,32.3-5.5,76.7-5.5,76.7
				c-20.9,20.9-71.1-42.6-124-9.4c-60.5,37.9-122.9-27.4-129.2-39.2c-51.5-96.9,48.6-58.6,107.3-118.5c6.4-6.5,32.9-40.6,37.7-49.5
				c15.1-28.3-1.5-57.1-14.5-66.7c-16.4-12.1-19.7-24.6-18.9-33.1c1.9-19.6,3.6-21.1,3.6-21.1c-4.9,7.3-43.4,29.5-57.9,41
				c-14.5,11.5-25.5,18.4-29.1,21.3c-3.7,3-7.4,9.4-28.9-6.3c-11.7-8.6-67.2-44.7-81.7-56.4C295.1,408.3,307.3,382.5,320.7,392.3z"
				/>
		</defs>
		<clipPath id="SVGID_81_">
			<use xlink:href="#SVGID_79_"  overflow="visible"/>
		</clipPath>
		<path clip-path="url(#SVGID_81_)" fill="#FFFFFF" d="M552.9,328.7c-0.1,0-0.2,0-0.4,0C552.7,328.7,552.8,328.7,552.9,328.7z"/>
	</g>
	<g>
		<defs>
			<path id="SVGID_82_" d="M320.7,392.3c10.3,7.6,60.7,27.8,81.8,48c5.2,5,26.2-20,39.2-33.3c13.1-13.3,32.9-54,56.1-59.8
				c14.3-3.6,19.5-3.9,30.8-6.3c15-3.1,30.8,2.9,47.3,0.5c4.5-0.6,4-15.8,7.6-15.5c16.9,1.9,34.6,13,43.1,27.2
				c8.3,14.3,20.3,40.4,16.4,80.5c-3.9,40-21.6,61.4,0.7,99.5c23.9,40.8,12.6,87.7,4.8,146c-4.3,32.3-5.5,76.7-5.5,76.7
				c-20.9,20.9-71.1-42.6-124-9.4c-60.5,37.9-122.9-27.4-129.2-39.2c-51.5-96.9,48.6-58.6,107.3-118.5c6.4-6.5,32.9-40.6,37.7-49.5
				c15.1-28.3-1.5-57.1-14.5-66.7c-16.4-12.1-19.7-24.6-18.9-33.1c1.9-19.6,3.6-21.1,3.6-21.1c-4.9,7.3-43.4,29.5-57.9,41
				c-14.5,11.5-25.5,18.4-29.1,21.3c-3.7,3-7.4,9.4-28.9-6.3c-11.7-8.6-67.2-44.7-81.7-56.4C295.1,408.3,307.3,382.5,320.7,392.3z"
				/>
		</defs>
		<clipPath id="SVGID_83_">
			<use xlink:href="#SVGID_82_"  overflow="visible"/>
		</clipPath>
		<path clip-path="url(#SVGID_83_)" fill="#FFFFFF" d="M554.1,328.8c-0.1,0-0.4,0-0.5,0C553.8,328.8,554,328.8,554.1,328.8z"/>
	</g>
	<g>
		<defs>
			<path id="SVGID_84_" d="M320.7,392.3c10.3,7.6,60.7,27.8,81.8,48c5.2,5,26.2-20,39.2-33.3c13.1-13.3,32.9-54,56.1-59.8
				c14.3-3.6,19.5-3.9,30.8-6.3c15-3.1,30.8,2.9,47.3,0.5c4.5-0.6,4-15.8,7.6-15.5c16.9,1.9,34.6,13,43.1,27.2
				c8.3,14.3,20.3,40.4,16.4,80.5c-3.9,40-21.6,61.4,0.7,99.5c23.9,40.8,12.6,87.7,4.8,146c-4.3,32.3-5.5,76.7-5.5,76.7
				c-20.9,20.9-71.1-42.6-124-9.4c-60.5,37.9-122.9-27.4-129.2-39.2c-51.5-96.9,48.6-58.6,107.3-118.5c6.4-6.5,32.9-40.6,37.7-49.5
				c15.1-28.3-1.5-57.1-14.5-66.7c-16.4-12.1-19.7-24.6-18.9-33.1c1.9-19.6,3.6-21.1,3.6-21.1c-4.9,7.3-43.4,29.5-57.9,41
				c-14.5,11.5-25.5,18.4-29.1,21.3c-3.7,3-7.4,9.4-28.9-6.3c-11.7-8.6-67.2-44.7-81.7-56.4C295.1,408.3,307.3,382.5,320.7,392.3z"
				/>
		</defs>
		<clipPath id="SVGID_85_">
			<use xlink:href="#SVGID_84_"  overflow="visible"/>
		</clipPath>
		<path clip-path="url(#SVGID_85_)" fill="#FFFFFF" d="M553.6,328.8c-0.2,0-0.5,0-0.7,0C553.2,328.8,553.4,328.8,553.6,328.8z"/>
	</g>
</g>
<g>
	<g>
		<path id="SVGID_8_" fill="#7622A4" d="M499.3,255.8c-16.8-17.4-15-27.8-7.7-38.4c8.2-12,39.4-38.1,74.6-23.8
			c35.2,14.3,28.8,17,48.3,26.5c19.5,9.5,54.6,11.7,59.8,29.9c21.8,76.2,30.4,34.4,63.4,66c23.9,23,26.4,67,1,66.8
			c-43.4-0.2-30.3,31.5-56.5,46c-21.5,12-40.3-3.9-74.6-57.7c-12.6-20-45.1-19.3-54.4-31.3c-12.6-16.3-14-20.6-19.3-40.1
			C531,289,503.6,260.3,499.3,255.8z"/>
	</g>
</g>
<g>
	<defs>
		<path id="SVGID_86_" d="M499.3,255.8c-16.8-17.4-15-27.8-7.7-38.4c8.2-12,39.4-38.1,74.6-23.8c35.2,14.3,28.8,17,48.3,26.5
			c19.5,9.5,54.6,11.7,59.8,29.9c21.8,76.2,30.4,34.4,63.4,66c23.9,23,26.4,67,1,66.8c-43.4-0.2-30.3,31.5-56.5,46
			c-21.5,12-40.3-3.9-74.6-57.7c-12.6-20-45.1-19.3-54.4-31.3c-12.6-16.3-14-20.6-19.3-40.1C531,289,503.6,260.3,499.3,255.8z"/>
	</defs>
	<clipPath id="SVGID_87_">
		<use xlink:href="#SVGID_86_"  overflow="visible"/>
	</clipPath>
	<path opacity="0.48" clip-path="url(#SVGID_87_)" fill="#95BDE5" enable-background="new    " d="M723.1,362.5
		c-52.9-2-38.3-47.7-83.7-51.4c-71.4-5.7-38.8-40.9-102.5-65.8c-20.2-8-13.9-21.6-32.8-19.9c-16.2,1.4-13.3,19.1-6.8,18l8.2,19.3
		c0,0,26.9,8.9,37.1,32c4.9,11.1,14.9,41.6,43.9,49.7c43.8,12.2,45.9,134.2,52.9,128.9C786.9,360.6,797.3,365.2,723.1,362.5z"/>
</g>
<g>
	<defs>
		<path id="SVGID_88_" d="M499.3,255.8c-16.8-17.4-15-27.8-7.7-38.4c8.2-12,39.4-38.1,74.6-23.8c35.2,14.3,28.8,17,48.3,26.5
			c19.5,9.5,54.6,11.7,59.8,29.9c21.8,76.2,30.4,34.4,63.4,66c23.9,23,26.4,67,1,66.8c-43.4-0.2-30.3,31.5-56.5,46
			c-21.5,12-40.3-3.9-74.6-57.7c-12.6-20-45.1-19.3-54.4-31.3c-12.6-16.3-14-20.6-19.3-40.1C531,289,503.6,260.3,499.3,255.8z"/>
	</defs>
	<clipPath id="SVGID_89_">
		<use xlink:href="#SVGID_88_"  overflow="visible"/>
	</clipPath>
	<path opacity="0.5" clip-path="url(#SVGID_89_)" fill="#FFFFFF" enable-background="new    " d="M468.1,204.1l-15.2,32.3
		c0,0,20.7,23,26.3,24.6c5.6,1.8,20.1-5.2,20.1-5.2c-19.9-29.1-6.9-38.3,0.6-42.6c67.1-37.3,99.8,48,111,42.7
		c39.8-18.9,57.7,18.2,63.4-5.9c7.5-31.3-32.6-108.5-32.6-108.5L468.1,204.1z"/>
</g>
<g>
	<g>
		<g>
			<path id="SVGID_80_" fill="#95BDE5" d="M528.1,268.4c2.4,5.7,5.6,14,0.8,20.3c7.5,8.9,8,22.2,7,22.6c-13.4,5.5-16.9,6.3-21.9,6.5
				c-10.7,0.4-16.4-32.3-17.1-38.5c-1.2-9.8,3.1-11.1,4.3-20.6c0.6-5.4-3.9-15.5-3.9-15.5c7.8-3.7,9.2-2.7,17.8,19.1
				C517.1,267.8,520.7,250.9,528.1,268.4z"/>
		</g>
		<g>
			<defs>
				<path id="SVGID_90_" d="M528.1,268.4c2.4,5.7,5.6,14,0.8,20.3c7.5,8.9,8,22.2,7,22.6c-13.4,5.5-16.9,6.3-21.9,6.5
					c-10.7,0.4-16.4-32.3-17.1-38.5c-1.2-9.8,3.1-11.1,4.3-20.6c0.6-5.4-3.9-15.5-3.9-15.5c7.8-3.7,9.2-2.7,17.8,19.1
					C517.1,267.8,520.7,250.9,528.1,268.4z"/>
			</defs>
			<clipPath id="SVGID_91_">
				<use xlink:href="#SVGID_90_"  overflow="visible"/>
			</clipPath>
			<path clip-path="url(#SVGID_91_)" fill="#95BDE5" d="M524.1,206.5l-27.8,6.3c3.7,4.2-2.3,17.8,1,30.6
				c3.9,15.5,15.1,17.2,11.3,21.2c-17.2,17.5,7.1,61.2,24.3,69.7C614.1,374.3,525.9,206.5,524.1,206.5z"/>
		</g>
	</g>
	<path fill="#95BDE5" d="M518.8,274.1c0.2,2.5,1.2,8,3.9,9.2c6.3,2.9,3.1-12.8,1.2-16.2C521.9,263.8,518.1,264.5,518.8,274.1z"/>
</g>
<path fill="#C2DBFF" d="M703.6,866.5c-3.8-2.7-21.9,17-14,23.8c2.7,2.4,8.7,4.2,12.8,6.8c4.2,2.7,15.6-8.9,13.6-11.4
	C713.2,882.2,707.4,869.3,703.6,866.5z"/>
<path fill="#91BEFF" d="M703.6,866.5c-3.8-2.7-21.9,17-14,23.8c2.7,2.4,8.7,4.2,12.8,6.8c4.2,2.7,15.6-8.9,13.6-11.4
	C713.2,882.2,707.4,869.3,703.6,866.5z"/>
<path fill="#95BDE5" d="M702.4,897.1c3.7,3,14.2-7.5,13.8-10.7C715.4,880.2,700.3,895.3,702.4,897.1z"/>
<path fill="#C60983" d="M540.4,508.3l-1.2,20.2c22.8,44,99.9-4.2,99.9-4.2c-2.3-4.5-5.2-16.1-5.2-16.1
	C573,545.6,540.4,522.8,540.4,508.3z"/>
<path fill="#7622A4" d="M540.4,508.3l-1.2,20.2c7.4,14.3,20.5,18.8,34.7,18.6v-18.6C552,528.4,540.4,516.9,540.4,508.3z"/>
<rect x="1015.2" y="-53.9" fill="#7622A4" width="288" height="288"/>
<rect x="1366.9" y="-53.9" fill="#C60983" width="288" height="288"/>
<linearGradient id="SVGID_92_" gradientUnits="userSpaceOnUse" x1="1360.1825" y1="644.4244" x2="1163.4552" y2="303.6827">
	<stop  offset="0" style="stop-color:#7622A4"/>
	<stop  offset="1" style="stop-color:#C60983"/>
</linearGradient>
<rect x="1117.8" y="330" fill="url(#SVGID_92_)" width="288" height="288"/>
</svg>
