<?xml version="1.0" encoding="utf-8"?>
<!-- Generator: Adobe Illustrator 18.0.0, SVG Export Plug-In . SVG Version: 6.00 Build 0)  -->
<!DOCTYPE svg PUBLIC "-//W3C//DTD SVG 1.1//EN" "http://www.w3.org/Graphics/SVG/1.1/DTD/svg11.dtd">
<svg version="1.1" id="Layer_1" xmlns="http://www.w3.org/2000/svg" xmlns:xlink="http://www.w3.org/1999/xlink" x="0px" y="0px"
	 viewBox="0 0 1034 1080" enable-background="new 0 0 1034 1080" xml:space="preserve">
<linearGradient id="SVGID_1_" gradientUnits="userSpaceOnUse" x1="-463.2375" y1="704.0891" x2="553.2664" y2="714.0062" gradientTransform="matrix(1.1192 0 0 -1.1192 371.7637 1208.7047)">
	<stop  offset="0" style="stop-color:#FFFFFF"/>
	<stop  offset="1" style="stop-color:#C2DBFF"/>
</linearGradient>
<path fill="url(#SVGID_1_)" d="M326.6,33.9c-240.4,0.6-367.3,278.7-98,350.3c189.4,50.4,284.7,144.6,369.7,310.7
	c100.2,195.9,303.9,60.7,310-51.3C926.8,304.2,644.7,33.2,326.6,33.9z"/>
<g>
	<circle fill="#FFFFFF" cx="723.7" cy="306.7" r="8.1"/>
	<g>
		<path fill="#FFFFFF" d="M741.9,261.4c-12.1-4.8-25.3-4.7-37.3,0.3c-5.9,2.6-11.2,6.2-15.7,10.7c-1.9,1.9-1.8,4.9,0.1,6.8
			c1.9,1.9,4.9,1.8,6.8-0.1c3.6-3.7,7.8-6.6,12.6-8.6c9.6-4.1,20.3-4.1,29.9-0.3c9.6,3.9,17.2,11.3,21.4,20.9c2,4.8,3.1,10,3.1,15.2
			c0,2.7,2.1,4.8,4.8,4.8c0.2,0,0.4,0,0.7,0c2.4-0.3,4.1-2.4,4.1-4.8c0-6.5-1.3-12.9-3.9-18.9C763.4,275.7,754,266.4,741.9,261.4z"
			/>
	</g>
	<g>
		<path fill="#FFFFFF" d="M711.5,278.9c-3.7,1.6-7.1,3.9-10,6.7c-1.9,1.9-1.8,4.9,0.1,6.8c1.9,1.9,4.9,1.8,6.8-0.1
			c1.9-2,4.3-3.6,6.8-4.6c10.6-4.6,23.1,0.4,27.6,11.1c1.1,2.6,1.7,5.4,1.7,8.2c0,2.7,2.1,4.8,4.8,4.8c0.2,0,0.4,0,0.7,0
			c2.4-0.3,4.1-2.4,4.1-4.8c0-4.1-0.8-8.2-2.5-12C745.2,279.5,727.2,272.3,711.5,278.9z"/>
	</g>
</g>
<circle fill="#7622A4" cx="582.6" cy="180.3" r="44.1"/>
<ellipse transform="matrix(-0.9585 0.2852 -0.2852 -0.9585 1211.3188 227.6452)" fill="#FFFFFF" cx="589.1" cy="202" rx="23.5" ry="11.8"/>
<path fill="#FFFFFF" d="M576.4,159.8c-6.5,1.9-10.1,8.7-8.2,15.1c1.9,6.5,9.4,12.3,15.8,10.4c6.5-1.9,9.5-10.9,7.5-17.3
	C589.7,161.6,582.9,157.9,576.4,159.8z"/>
<g>
	<path fill="#FFFFFF" d="M482.1,230.9c-6.3,6.7-13,11.6-20.1,14.4c-7.6,3-14.7,3.8-21.2,2.2c-4.9-1.2-9.2-3.5-13-6.8
		c-3.9-3.7-6.8-7.8-8.7-12.5c-3.5-8.5-3.5-16.8,0-24.8c3.5-8.2,9.4-13.9,17.8-17.3c8.1-3.2,15.7-3.6,22.8-0.8
		c7.2,2.7,12.3,7.7,15.3,15.2c1.9,4.7,2.6,9.3,1.9,13.9c-0.7,4.6-2.2,7.5-4.9,8.5c-1.9,0.8-3.2,0-4.3-2.2c-0.3-0.7-0.6-1.5-0.9-2.2
		c-0.3-0.8-0.6-1.7-0.8-2.7l-6.8-25.1l-6.9,2.8l1.5,5.4c-4.7-2.7-9.6-3-14.8-0.9c-5.6,2.2-9.4,6-11.4,11.5c-2.1,5.4-2,11,0.4,17
		c2.2,5.6,5.7,9.5,10.5,11.8c4.8,2.2,9.7,2.4,14.8,0.3c4.6-1.9,7.9-5.5,10.2-10.9c2.9,3.1,6.3,3.9,10.2,2.4c4.8-2,8.1-6.2,9.6-12.6
		c1.6-6.4,1-13.1-1.8-20c-3.6-9-10-15.1-18.9-18.4c-9.1-3.4-18.5-3-28.3,1c-10.6,4.4-18.2,11.4-22.7,21.4c-4.5,10-4.6,20-0.4,30.3
		c2.2,5.7,5.8,10.7,10.6,15.1c4.7,4.1,10.2,6.9,16.2,8.4c8.3,2,17.1,1.1,26.6-2.8c8.6-3.5,16.1-8.7,22.5-15.8l0.4-0.4l-5-5.6
		L482.1,230.9z M457.3,222.8c-1.3,3.7-3.6,6.2-6.8,7.5c-2.5,1-4.9,0.8-7.4-0.6c-2.4-1.3-4.3-3.7-5.5-6.8c-1.5-3.7-1.7-7.1-0.7-10.2
		c1-3.1,3-5.4,6-6.6c2.8-1.1,5.6-1.1,8.4-0.1c2.7,1.1,4.6,3,5.7,5.9C458.6,215.4,458.7,219.1,457.3,222.8z"/>
</g>
<path fill="#7622A4" d="M342,51.5H234.5c-11.5,0-20.9,9.4-20.9,20.9l0,0c0,11.5,9.4,20.9,20.9,20.9H342c11.5,0,20.9-9.4,20.9-20.9
	l0,0C363,60.8,353.6,51.5,342,51.5z"/>
<polygon fill="#7622A4" points="338,110.2 353.8,89.6 322.8,93.2 "/>
<g>
	<circle fill="#FFFFFF" cx="293.3" cy="71.6" r="4.6"/>
	<circle fill="#FFFFFF" cx="312.8" cy="71.6" r="4.6"/>
	<circle fill="#FFFFFF" cx="332.5" cy="71.6" r="4.6"/>
</g>
<g>
	<path fill="#83A9FF" d="M968.9,352.1H802.7c-17.8,0-32.2,14.4-32.2,32.2l0,0c0,17.8,14.4,32.2,32.2,32.2h166.2
		c17.8,0,32.2-14.4,32.2-32.2l0,0C1001.1,366.5,986.7,352.1,968.9,352.1z"/>
	<polygon fill="#83A9FF" points="809.5,444.9 831.1,416.6 778.2,405.1 	"/>
	<g>
		<circle fill="#FFFFFF" cx="840" cy="383.8" r="6.2"/>
		<circle fill="#FFFFFF" cx="866" cy="383.8" r="6.2"/>
		<circle fill="#FFFFFF" cx="892.1" cy="383.8" r="6.2"/>
	</g>
</g>
<linearGradient id="SVGID_2_" gradientUnits="userSpaceOnUse" x1="-246.5506" y1="224.75" x2="320.1494" y2="224.75" gradientTransform="matrix(1.1192 0 0 -1.1192 371.7637 1208.7047)">
	<stop  offset="0" style="stop-color:#FFFFFF"/>
	<stop  offset="1" style="stop-color:#C2DBFF"/>
</linearGradient>
<path fill="url(#SVGID_2_)" d="M504.3,854.5H123.8v60.2h102v1.8C149.3,928,95.8,954.4,95.8,985.1c0,41.3,96.7,74.8,216,74.8
	s216-33.5,216-74.8c0-9.8-5.5-19.2-15.4-27.8h217.7v-57.5H504.3V854.5z"/>
<g>
	<g>
		<path id="SVGID_3_" fill="#FFFFFF" d="M528.6,844.6c0.2,18.1,25.5,17.7,42.4,13.4c15.4-3.9,22.3,9.7,13.9,22.9
			c-21.8,34.4-36.4,17.5-84.7,33.1c-18.4,5.9-34.4-7.8-32.9-15.6c2.1-11.5,7.9-34.2,7.5-49.5C474.1,832.4,528.6,844.6,528.6,844.6z"
			/>
	</g>
	<g>
		<defs>
			<path id="SVGID_4_" d="M528.6,844.6c0.2,18.1,25.5,17.7,42.4,13.4c15.4-3.9,22.3,9.7,13.9,22.9c-21.8,34.4-36.4,17.5-84.7,33.1
				c-18.4,5.9-34.4-7.8-32.9-15.6c2.1-11.5,7.9-34.2,7.5-49.5C474.1,832.4,528.6,844.6,528.6,844.6z"/>
		</defs>
		<clipPath id="SVGID_6_">
			<use xlink:href="#SVGID_4_"  overflow="visible"/>
		</clipPath>
		<path clip-path="url(#SVGID_6_)" fill="#95BDE5" d="M464.7,848.7c3.4,11,42,31.2,71-6.6l-11.4-19.5
			C524.3,822.6,461.4,837.7,464.7,848.7z"/>
	</g>
	<g>
		<defs>
			<path id="SVGID_8_" d="M528.6,844.6c0.2,18.1,25.5,17.7,42.4,13.4c15.4-3.9,22.3,9.7,13.9,22.9c-21.8,34.4-36.4,17.5-84.7,33.1
				c-18.4,5.9-34.4-7.8-32.9-15.6c2.1-11.5,7.9-34.2,7.5-49.5C474.1,832.4,528.6,844.6,528.6,844.6z"/>
		</defs>
		<clipPath id="SVGID_9_">
			<use xlink:href="#SVGID_8_"  overflow="visible"/>
		</clipPath>
		<path clip-path="url(#SVGID_9_)" fill="#91BEFF" d="M555.5,893.9c-19.2-2.1-26.2,0.3-35.5,5.8c-9.3,5.4-35,9.6-42.6,4.5
			c-12.4-8.4-10.7-19.2-10.7-19.2l-14,27.4l30.9,16.5l106.7-20.9l18.1-27.9L585,860.8C595.3,869.4,574.8,896,555.5,893.9z"/>
	</g>
	<g>
		<defs>
			<path id="SVGID_11_" d="M528.6,844.6c0.2,18.1,25.5,17.7,42.4,13.4c15.4-3.9,22.3,9.7,13.9,22.9c-21.8,34.4-36.4,17.5-84.7,33.1
				c-18.4,5.9-34.4-7.8-32.9-15.6c2.1-11.5,7.9-34.2,7.5-49.5C474.1,832.4,528.6,844.6,528.6,844.6z"/>
		</defs>
		<clipPath id="SVGID_16_">
			<use xlink:href="#SVGID_11_"  overflow="visible"/>
		</clipPath>
		<path clip-path="url(#SVGID_16_)" fill="#77A9E5" d="M464.7,848.7c3.4,11,42,31.2,71-6.6l-11.4-19.5
			C524.3,822.6,461.4,837.7,464.7,848.7z"/>
	</g>
</g>
<g>
	<g>
		<path id="SVGID_5_" fill="#FFFFFF" d="M764.6,882.7c15.1,15.1,53.4,15.3,81.1,15.1c16.6-0.1,17.9,13.8,12.2,18.6
			c-24.8,20.7-70.3,25.2-116.3,40.2c-17.5,5.7-24.6-8.4-23.5-15.7c1.8-11-1.6-31.6-2.4-46.1C715,878.9,755.8,873.7,764.6,882.7z"/>
	</g>
	<g>
		<defs>
			<path id="SVGID_17_" d="M764.6,882.7c15.1,15.1,53.4,15.3,81.1,15.1c16.6-0.1,17.9,13.8,12.2,18.6
				c-24.8,20.7-70.3,25.2-116.3,40.2c-17.5,5.7-24.6-8.4-23.5-15.7c1.8-11-1.6-31.6-2.4-46.1C715,878.9,755.8,873.7,764.6,882.7z"/>
		</defs>
		<clipPath id="SVGID_18_">
			<use xlink:href="#SVGID_17_"  overflow="visible"/>
		</clipPath>
		<path clip-path="url(#SVGID_18_)" fill="#91BEFF" d="M800.1,931.7c-18.6-2-31,5.9-39.7,11.1c-8.7,5.1-31.4,5.4-37.3-1.3
			s-5.8-13.7-5.8-13.7l-12.8,26.1l29.9,15.6l115.3-29.8l27.2-29.5l-19.9-9.2C867.4,916.7,818.7,933.6,800.1,931.7z"/>
	</g>
	<g>
		<defs>
			<path id="SVGID_19_" d="M764.6,882.7c15.1,15.1,53.4,15.3,81.1,15.1c16.6-0.1,17.9,13.8,12.2,18.6
				c-24.8,20.7-70.3,25.2-116.3,40.2c-17.5,5.7-24.6-8.4-23.5-15.7c1.8-11-1.6-31.6-2.4-46.1C715,878.9,755.8,873.7,764.6,882.7z"/>
		</defs>
		<clipPath id="SVGID_20_">
			<use xlink:href="#SVGID_19_"  overflow="visible"/>
		</clipPath>
		<path clip-path="url(#SVGID_20_)" fill="#95BDE5" d="M732.6,860.3c0,0-26,19.8-25.5,30.9c0.2,6.7,9.8,20.6,26.1,19.4
			c10.3-0.8,28.7-13,31.7-19.7C767.1,885.8,732.6,860.3,732.6,860.3z"/>
	</g>
	<g>
		<defs>
			<path id="SVGID_22_" d="M764.6,882.7c15.1,15.1,53.4,15.3,81.1,15.1c16.6-0.1,17.9,13.8,12.2,18.6
				c-24.8,20.7-70.3,25.2-116.3,40.2c-17.5,5.7-24.6-8.4-23.5-15.7c1.8-11-1.6-31.6-2.4-46.1C715,878.9,755.8,873.7,764.6,882.7z"/>
		</defs>
		<clipPath id="SVGID_23_">
			<use xlink:href="#SVGID_22_"  overflow="visible"/>
		</clipPath>
		<path clip-path="url(#SVGID_23_)" fill="#95BDE5" d="M464.7,848.7c3.4,11,42,31.2,71-6.6l-11.4-19.5
			C524.3,822.6,461.4,837.7,464.7,848.7z"/>
	</g>
	<g>
		<defs>
			<path id="SVGID_24_" d="M764.6,882.7c15.1,15.1,53.4,15.3,81.1,15.1c16.6-0.1,17.9,13.8,12.2,18.6
				c-24.8,20.7-70.3,25.2-116.3,40.2c-17.5,5.7-24.6-8.4-23.5-15.7c1.8-11-1.6-31.6-2.4-46.1C715,878.9,755.8,873.7,764.6,882.7z"/>
		</defs>
		<clipPath id="SVGID_25_">
			<use xlink:href="#SVGID_24_"  overflow="visible"/>
		</clipPath>
		<path clip-path="url(#SVGID_25_)" fill="#95BDE5" d="M732.6,860.3c0,0-26,19.8-25.5,30.9c0.2,6.7,9.8,20.6,26.1,19.4
			c10.3-0.8,28.7-13,31.7-19.7C767.1,885.8,732.6,860.3,732.6,860.3z"/>
	</g>
</g>
<g>
	<g>
		<path id="SVGID_13_" fill="#7622A4" d="M205.8,736.5c65.4,8.3,231-106,236.6-69.2c12.6,82.1,20.5,39.4,31,171.5
			c1.9,24.1,59.8,16.9,59.8,2.8c0-53.5,3.9-228.6-2.2-254.1c-4.9-20-23.4-37.6-45.3-38.9c-17.1-1-40.5-1.6-69.4,5.1
			c-82.3,19.1-203.1,41.6-250.5,54.4C111.1,622.8,140.5,728.2,205.8,736.5z"/>
	</g>
</g>
<g>
	<defs>
		<path id="SVGID_26_" d="M205.8,736.5c65.4,8.3,231-106,236.6-69.2c12.6,82.1,20.5,39.4,31,171.5c1.9,24.1,59.8,16.9,59.8,2.8
			c0-53.5,3.9-228.6-2.2-254.1c-4.9-20-23.4-37.6-45.3-38.9c-17.1-1-40.5-1.6-69.4,5.1c-82.3,19.1-203.1,41.6-250.5,54.4
			C111.1,622.8,140.5,728.2,205.8,736.5z"/>
	</defs>
	<clipPath id="SVGID_28_">
		<use xlink:href="#SVGID_26_"  overflow="visible"/>
	</clipPath>
	<path opacity="0.42" clip-path="url(#SVGID_28_)" fill="#C2DBFF" enable-background="new    " d="M128.2,678.1l196.6-40
		c0,0-5.3-38.1,30.3-50.4c35.5-12.3,88.9-27.6,126.9-29.2c28.2-1.1,48.2,103.9,59.8,210.5l76.4-246.2l-124.8-63.8L128.2,678.1z"/>
</g>
<linearGradient id="SVGID_29_" gradientUnits="userSpaceOnUse" x1="-94.1506" y1="434.902" x2="146.6495" y2="434.902" gradientTransform="matrix(1.1192 0 0 -1.1192 371.7637 1208.7047)">
	<stop  offset="0" style="stop-color:#F7FBFF"/>
	<stop  offset="0.854" style="stop-color:#C2DBFF"/>
</linearGradient>
<path fill="url(#SVGID_29_)" d="M448.5,681.9l-182.1,41.4L378.8,762l148.8-24.3l7.8-20.4l0.4-8.1C503,680.9,448.5,681.9,448.5,681.9
	z"/>
<g>
	<g>
		<path id="SVGID_12_" fill="#7622A4" d="M165.8,608.2c-1,17.3-38.1,139.4,48.5,149.3c12.4,1.5,24.8,9.7,40.5,13.4
			c45,10.5,115.6-3.5,192.6-36.1c81.3-34.5,90.5-38.6,103.1-29.9c11,7.6,16.1,37.9,51.8,85.4c31.1,41.4,29.4,35.9,108.6,117.4
			c13.5,13.9,61.1-27.8,46.9-43c-46-49.2-65.6-102.5-122.1-201.6c-27.5-48.2-37.3-74.3-108-62.1c-79.6,13.8-134.7,23.8-190.5,37.3
			C221,666,165.8,608.2,165.8,608.2z"/>
	</g>
</g>
<g>
	<defs>
		<path id="SVGID_30_" d="M165.8,608.2c-1,17.3-38.1,139.4,48.5,149.3c12.4,1.5,24.8,9.7,40.5,13.4c45,10.5,115.6-3.5,192.6-36.1
			c81.3-34.5,90.5-38.6,103.1-29.9c11,7.6,16.1,37.9,51.8,85.4c31.1,41.4,29.4,35.9,108.6,117.4c13.5,13.9,61.1-27.8,46.9-43
			c-46-49.2-65.6-102.5-122.1-201.6c-27.5-48.2-37.3-74.3-108-62.1c-79.6,13.8-134.7,23.8-190.5,37.3
			C221,666,165.8,608.2,165.8,608.2z"/>
	</defs>
	<clipPath id="SVGID_31_">
		<use xlink:href="#SVGID_30_"  overflow="visible"/>
	</clipPath>
	<path opacity="0.42" clip-path="url(#SVGID_31_)" fill="#C2DBFF" enable-background="new    " d="M303.9,645.5
		c0,0-63.2,12.2,11.2,21.3c37.9,4.6,190.6-34,218.6-44.5c28-10.5,38.4,11.3,72.3,37.5c26.9,20.7,118,190.1,168.2,241.9l55.1-136.1
		L631.5,549.6L303.9,645.5z"/>
</g>
<g>
	<defs>
		<path id="SVGID_32_" d="M165.8,608.2c-1,17.3-38.1,139.4,48.5,149.3c12.4,1.5,24.8,9.7,40.5,13.4c45,10.5,115.6-3.5,192.6-36.1
			c81.3-34.5,90.5-38.6,103.1-29.9c11,7.6,16.1,37.9,51.8,85.4c31.1,41.4,29.4,35.9,108.6,117.4c13.5,13.9,61.1-27.8,46.9-43
			c-46-49.2-65.6-102.5-122.1-201.6c-27.5-48.2-37.3-74.3-108-62.1c-79.6,13.8-134.7,23.8-190.5,37.3
			C221,666,165.8,608.2,165.8,608.2z"/>
	</defs>
	<clipPath id="SVGID_33_">
		<use xlink:href="#SVGID_32_"  overflow="visible"/>
	</clipPath>
	<path clip-path="url(#SVGID_33_)" fill="#C2DBFF" d="M165.2,634.6c-18.5-62.9-35.7-58.5-35.7-58.5L57.9,802.6
		c0,0,99.5-74.4,136.5-66.8c38.2,7.8,85.2,3.8,69.8-35C248.9,662,178.4,679.4,165.2,634.6z"/>
</g>
<linearGradient id="SVGID_35_" gradientUnits="userSpaceOnUse" x1="203.897" y1="530.7505" x2="164.2417" y2="684.1996" gradientTransform="matrix(1.1192 0 0 -1.1192 371.7637 1208.7047)">
	<stop  offset="0" style="stop-color:#FFFFFF"/>
	<stop  offset="1" style="stop-color:#F7FBFF"/>
</linearGradient>
<polygon opacity="0.92" fill="url(#SVGID_35_)" enable-background="new    " points="130.1,453.2 705.4,662.5 1011.6,551.1 
	436.3,341.7 "/>
<linearGradient id="SVGID_37_" gradientUnits="userSpaceOnUse" x1="59.1836" y1="634.5806" x2="45.6513" y2="589.4728" gradientTransform="matrix(1.1192 0 0 -1.1192 371.7637 1208.7047)">
	<stop  offset="0" style="stop-color:#F7FBFF"/>
	<stop  offset="0.854" style="stop-color:#C2DBFF"/>
</linearGradient>
<polygon opacity="0.7" fill="url(#SVGID_37_)" enable-background="new    " points="130.1,469.4 705.4,678.8 705.4,662.5 
	130.1,453.2 "/>
<linearGradient id="SVGID_39_" gradientUnits="userSpaceOnUse" x1="462.1187" y1="460.6862" x2="378.8235" y2="674.8738" gradientTransform="matrix(1.1192 0 0 -1.1192 371.7637 1208.7047)">
	<stop  offset="0" style="stop-color:#F7FBFF"/>
	<stop  offset="0.854" style="stop-color:#C2DBFF"/>
</linearGradient>
<polygon opacity="0.7" fill="url(#SVGID_39_)" enable-background="new    " points="705.4,678.8 1011.6,567.3 1011.6,551.1 
	705.4,662.5 "/>
<linearGradient id="SVGID_41_" gradientUnits="userSpaceOnUse" x1="208.9168" y1="743.4156" x2="212.4832" y2="732.8593" gradientTransform="matrix(1.1192 0 0 -1.1192 371.7637 1208.7047)">
	<stop  offset="0" style="stop-color:#D4E6FC"/>
	<stop  offset="0.4934" style="stop-color:#C2DBFF"/>
	<stop  offset="0.9664" style="stop-color:#91BEFF"/>
</linearGradient>
<path fill="url(#SVGID_41_)" d="M714.8,337.8l-168.8-61.4c-6.9-2.6-14.7,0.9-17.5,7.8l-42.9,108c-2,4.8,0.6,10.4,5.5,12.2L659.4,465
	c6.4,2.4,13.5-0.7,16.3-6.9L722,354.7C725,348.1,721.7,340.2,714.8,337.8z"/>
<linearGradient id="SVGID_42_" gradientUnits="userSpaceOnUse" x1="381.5503" y1="1046.8917" x2="227.1067" y2="787.7402" gradientTransform="matrix(1.1192 0 0 -1.1192 371.7637 1208.7047)">
	<stop  offset="0" style="stop-color:#F6FAFF"/>
	<stop  offset="0.1729" style="stop-color:#F1F7FF"/>
	<stop  offset="0.3638" style="stop-color:#E4EFFF"/>
	<stop  offset="0.5625" style="stop-color:#CEE2FF"/>
	<stop  offset="0.6507" style="stop-color:#C2DBFF"/>
	<stop  offset="1" style="stop-color:#C2DBFF"/>
</linearGradient>
<path fill="url(#SVGID_42_)" d="M712.7,337.2l-168.8-61.4c-6.9-2.6-14.7,0.9-17.5,7.8l-42.9,108c-2,4.8,0.6,10.4,5.5,12.2
	l168.2,60.7c6.4,2.4,13.5-0.7,16.3-6.9l46.2-103.4C722.8,347.4,719.5,339.7,712.7,337.2z"/>
<linearGradient id="SVGID_43_" gradientUnits="userSpaceOnUse" x1="491.2346" y1="369.83" x2="713.9496" y2="369.83">
	<stop  offset="0" style="stop-color:#7622A4"/>
	<stop  offset="1" style="stop-color:#C60983"/>
</linearGradient>
<polygon fill="url(#SVGID_43_)" points="491.2,397.4 662.7,459.2 713.9,344.6 537.7,280.5 "/>
<linearGradient id="SVGID_44_" gradientUnits="userSpaceOnUse" x1="165.4228" y1="668.267" x2="148.844" y2="668.5579" gradientTransform="matrix(1.1192 0 0 -1.1192 371.7637 1208.7047)">
	<stop  offset="0" style="stop-color:#D4E6FC"/>
	<stop  offset="0.4934" style="stop-color:#C2DBFF"/>
	<stop  offset="0.9664" style="stop-color:#91BEFF"/>
</linearGradient>
<path fill="url(#SVGID_44_)" d="M664,466.2c0-0.7-1.6,3.4-2.2,3.1l-174.5-63.6c-5.5-2-11.6-2-17.1,0l-105.3,32.5
	c-3,2-2.2,3.9-2.2,8.7c0,1.5,0.6,3.1,2.2,3.7l174.5,63.6c5.5,2,11.6,2,17.1,0l105.3-38.4c1.6-0.6,2.4-2.1,2.2-3.5
	C664,471.7,664,467.3,664,466.2z"/>
<linearGradient id="SVGID_45_" gradientUnits="userSpaceOnUse" x1="144.8655" y1="572.1135" x2="77.678" y2="945.5712" gradientTransform="matrix(1.1192 0 0 -1.1192 371.7637 1208.7047)">
	<stop  offset="0" style="stop-color:#FFFFFF"/>
	<stop  offset="1" style="stop-color:#C2DBFF"/>
</linearGradient>
<path fill="url(#SVGID_45_)" d="M661.8,463.4l-174.5-63.6c-5.5-2-11.6-2-17.1,0l-105.3,38.4c-3,1.1-3,5.5,0,6.6l174.5,63.6
	c5.5,2,11.6,2,17.1,0l105.3-38.4C664.8,468.9,664.8,464.6,661.8,463.4z"/>
<linearGradient id="SVGID_46_" gradientUnits="userSpaceOnUse" x1="91.2435" y1="908.655" x2="91.2435" y2="563.9944" gradientTransform="matrix(1.1192 0 0 -1.1192 371.7637 1208.7047)">
	<stop  offset="0" style="stop-color:#F6FAFF"/>
	<stop  offset="0.1729" style="stop-color:#F1F7FF"/>
	<stop  offset="0.3638" style="stop-color:#E4EFFF"/>
	<stop  offset="0.5625" style="stop-color:#CEE2FF"/>
	<stop  offset="0.6507" style="stop-color:#C2DBFF"/>
	<stop  offset="1" style="stop-color:#C2DBFF"/>
</linearGradient>
<path fill="url(#SVGID_46_)" d="M517,465.2l-50.7-18.5c-1.6-0.6-3.4-0.6-4.9,0l-30.6,11.1c-0.9,0.3-0.9,1.6,0,1.9l50.6,18.5
	c1.6,0.6,3.4,0.6,4.9,0l30.6-11.1C517.9,466.8,517.9,465.6,517,465.2z"/>
<linearGradient id="SVGID_47_" gradientUnits="userSpaceOnUse" x1="144.9869" y1="908.6559" x2="144.9869" y2="563.9932" gradientTransform="matrix(1.1192 0 0 -1.1192 371.7637 1208.7047)">
	<stop  offset="0" style="stop-color:#F6FAFF"/>
	<stop  offset="0.1729" style="stop-color:#F1F7FF"/>
	<stop  offset="0.3638" style="stop-color:#E4EFFF"/>
	<stop  offset="0.5625" style="stop-color:#CEE2FF"/>
	<stop  offset="0.6507" style="stop-color:#C2DBFF"/>
	<stop  offset="1" style="stop-color:#C2DBFF"/>
</linearGradient>
<path fill="url(#SVGID_47_)" d="M644.2,470.3l-169.6-61.7c-2.4-0.8-4.8-0.8-7.2,0l-43.8,15.9c-1.2,0.4-1.2,2.2,0,2.7l169.6,61.7
	c2.4,0.8,4.8,0.8,7.2,0l43.8-15.9C645.6,472.6,645.6,470.8,644.2,470.3z"/>
<path fill="#3070A3" d="M414.3,451.8c-56.1,12.3-37.3,6.5-77.8,16.2c-41.9,10.2-54.7,7.3-54.7,7.3s-18.6-15-41.1-52
	s-34.7-73.9-61.2-74.2c-26.2-0.3-25.2,33.7,0.3,80.1c16,29.1,29.5,39.4,55.2,66.4c15.3,16.1,22.3,31.4,32.2,30.3
	c63.7-6.6,70.3-11,155.3-50.5C422.7,475.5,427.8,448.8,414.3,451.8z"/>
<path fill="#3070A3" d="M480,424.1c-10.3-3.8-17.1-7.8-21.6-7.8s-15.2,1.3-22.8,4.1c-7.6,2.8-12.5,16.6-16.9,24
	c-4.4,7.4-12.5,9.2-12.5,9.2l14.3,21.9c18.1,0,49-6.3,53.5-14.8c4.6-8.5-2.8-5.9-8.8-3.7s-14.4,4.3-16.5,2.2c-2-2,9.6-22.7,18.7-26
	c9.1-3.2,14.7,6.6,19.5,4.8C491.6,436.4,490.3,427.9,480,424.1z"/>
<g>
	<g>
		
			<linearGradient id="SVGID_48_" gradientUnits="userSpaceOnUse" x1="-94.3353" y1="574.5516" x2="-183.643" y2="712.9789" gradientTransform="matrix(1.1192 0 0 -1.1192 371.7637 1208.7047)">
			<stop  offset="0" style="stop-color:#FFFFFF"/>
			<stop  offset="1" style="stop-color:#F7FBFF"/>
		</linearGradient>
		<path id="SVGID_21_" fill="url(#SVGID_48_)" d="M337.7,370.1c-1.3-3.6-4-6.6-7.6-8.8c-35.8-21.8-90.5-47.7-123.1-45.4
			c-16.5,1.1-32.7,7.2-46.7,41.2c-7.5,18.2-19.1,61.1-19.1,121.8c0,44.9-6.3,115.1-6.2,184.3c0.1,55.7,206.9,46,194.5-4.6
			c-12.1-49.5-9.8-110.7-3.2-147.7c4.5-24.7,13.1-57.4,7.5-80.4C327.9,405.9,340.8,378.1,337.7,370.1z"/>
	</g>
	<g>
		<defs>
			<path id="SVGID_49_" d="M337.7,370.1c-1.3-3.6-4-6.6-7.6-8.8c-35.8-21.8-90.5-47.7-123.1-45.4c-16.5,1.1-32.7,7.2-46.7,41.2
				c-7.5,18.2-19.1,61.1-19.1,121.8c0,44.9-6.3,115.1-6.2,184.3c0.1,55.7,206.9,46,194.5-4.6c-12.1-49.5-9.8-110.7-3.2-147.7
				c4.5-24.7,13.1-57.4,7.5-80.4C327.9,405.9,340.8,378.1,337.7,370.1z"/>
		</defs>
		<clipPath id="SVGID_50_">
			<use xlink:href="#SVGID_49_"  overflow="visible"/>
		</clipPath>
		<path clip-path="url(#SVGID_50_)" fill="#D4E6FC" d="M292.1,581.2c23.7-97.5,50.9-180.1,15.7-209.8
			c-40.1-33.8-120.1-54.8-124.7-51.3c-41,31.8-27.8,89.2-53,149.2c-30.8,72.7,56.7,105.2,43.9,156.2c-13.2,52.4,119,92.9,119,92.9
			c29,12.4,146.7,34.8,146.7,33.4C439.6,751.9,276.5,645.9,292.1,581.2z"/>
	</g>
</g>
<g>
	
		<linearGradient id="SVGID_51_" gradientUnits="userSpaceOnUse" x1="255.6798" y1="587.5049" x2="229.148" y2="587.2781" gradientTransform="matrix(1.1192 0 0 -1.1192 371.7637 1208.7047)">
		<stop  offset="0" style="stop-color:#D4E6FC"/>
		<stop  offset="0.4934" style="stop-color:#C2DBFF"/>
		<stop  offset="0.9664" style="stop-color:#91BEFF"/>
	</linearGradient>
	<path fill="url(#SVGID_51_)" d="M727.4,541.9c0-0.4-1.2,2.6-1.7,2.4l-56.1-20.5c-4.3-1.6-9-1.6-13.1,0l-80.8,25
		c-2.4,1.6-1.8,3-1.8,6.7c0,1.1,0.4,2.4,1.8,2.8l56.1,20.5c4.3,1.6,9,1.6,13.1,0l80.8-29.4c1.2-0.4,1.8-1.6,1.8-2.7
		C727.4,546,727.4,542.7,727.4,541.9z"/>
	
		<linearGradient id="SVGID_52_" gradientUnits="userSpaceOnUse" x1="246.4832" y1="683.5459" x2="255.6451" y2="378.5828" gradientTransform="matrix(1.1192 0 0 -1.1192 371.7637 1208.7047)">
		<stop  offset="0" style="stop-color:#FFFFFF"/>
		<stop  offset="1" style="stop-color:#C2DBFF"/>
	</linearGradient>
	<path fill="url(#SVGID_52_)" d="M725.7,539.8l-56.1-20.5c-4.3-1.6-9-1.6-13.1,0l-80.8,29.4c-2.4,0.9-2.4,4.1,0,5l56.1,20.5
		c4.3,1.6,9,1.6,13.1,0l80.8-29.4C728.1,543.9,728.1,540.6,725.7,539.8z"/>
	
		<linearGradient id="SVGID_53_" gradientUnits="userSpaceOnUse" x1="262.9236" y1="815.0045" x2="248.5266" y2="591.1943" gradientTransform="matrix(1.1192 0 0 -1.1192 371.7637 1208.7047)">
		<stop  offset="0" style="stop-color:#F6FAFF"/>
		<stop  offset="0.1729" style="stop-color:#F1F7FF"/>
		<stop  offset="0.3638" style="stop-color:#E4EFFF"/>
		<stop  offset="0.5625" style="stop-color:#CEE2FF"/>
		<stop  offset="0.6507" style="stop-color:#C2DBFF"/>
		<stop  offset="1" style="stop-color:#C2DBFF"/>
	</linearGradient>
	<polygon fill="url(#SVGID_53_)" points="577.1,550.2 640,573.4 722.8,543.1 660,520.1 	"/>
</g>
<g>
	
		<rect x="550.9" y="522.7" transform="matrix(0.7916 0.6111 -0.6111 0.7916 445.5737 -256.0863)" fill="#91BEFF" width="94.6" height="4.8"/>
</g>
<path fill="#7622A4" d="M326.2,357.8c-5.3-3.2-23.1-4.3-36.1,8.8s-9.1,79.2,10.3,117c26.1,50.8,43.9-23.7,52.9-28s-9.1-76.6-12.2-84
	C337.8,364.1,326.2,357.8,326.2,357.8z"/>
<g>
	<g>
		<path id="SVGID_27_" fill="#3070A3" d="M644.9,546.8c-1-3-19.6-13.8-32.2-20.9c-3.5-1.9-18.7-2.2-25.9-3.2
			c-20.7-3.1-29.9,13.1-43.8,14.5l0,0c-57.5-2-38.7,3.1-83.4-4.1c-42.4-6.9-48.6-0.9-60.2-10.4c-10-8.1-8.5-28-28.8-72.4
			c-19.8-43.5-18.6-80-47.1-87.7c-28.2-7.6-35.8,23.2-26.9,80.9c3.8,24.5,13.5,45.6,23.1,58.6c6.4,8.8,10.3,28.4,16.5,42.9
			c9.6,22.7,24.1,36.3,35.3,36.7c65.9,2.4,75.7,1.7,174.8-15.8c2.2,0.6,19.8,5,29.9,6.3c10.6,1.3,26.9,2.7,36.5,8.7
			c9.5,6.2,25.1-11.6,22.2-18.1c-2.9-6.5-9.2-16-9.2-16C640.3,555.7,645.9,550,644.9,546.8z"/>
	</g>
	<g>
		<defs>
			<path id="SVGID_54_" d="M644.9,546.8c-1-3-19.6-13.8-32.2-20.9c-3.5-1.9-18.7-2.2-25.9-3.2c-20.7-3.1-29.9,13.1-43.8,14.5l0,0
				c-57.5-2-38.7,3.1-83.4-4.1c-42.4-6.9-48.6-0.9-60.2-10.4c-10-8.1-8.5-28-28.8-72.4c-19.8-43.5-18.6-80-47.1-87.7
				c-28.2-7.6-35.8,23.2-26.9,80.9c3.8,24.5,13.5,45.6,23.1,58.6c6.4,8.8,10.3,28.4,16.5,42.9c9.6,22.7,24.1,36.3,35.3,36.7
				c65.9,2.4,75.7,1.7,174.8-15.8c2.2,0.6,19.8,5,29.9,6.3c10.6,1.3,26.9,2.7,36.5,8.7c9.5,6.2,25.1-11.6,22.2-18.1
				c-2.9-6.5-9.2-16-9.2-16C640.3,555.7,645.9,550,644.9,546.8z"/>
		</defs>
		<clipPath id="SVGID_55_">
			<use xlink:href="#SVGID_54_"  overflow="visible"/>
		</clipPath>
		<path clip-path="url(#SVGID_55_)" fill="#95BDE5" d="M615.8,569.7c-9.1-1-49.7-20.5-59.9-20.5c-10.2,0-60.2,1.8-74.1,1.8
			c-13.9,0-86.8,1-97.9-15.7c-11.1-16.7-29.8-69.6-32.3-87.9c-2.6-18.1-16.1-59.5-43.9-102l-103.7,63l63.2,261.1l395.1-53.8
			l-21.4-57.5C640.9,558.2,624.9,570.7,615.8,569.7z"/>
	</g>
</g>
<g>
	<circle fill="#97B6E6" cx="323.1" cy="1027.6" r="15.2"/>
	<circle fill="#97B6E6" cx="141.8" cy="984.9" r="15.2"/>
	<circle fill="#97B6E6" cx="207.3" cy="915.5" r="15.2"/>
	<circle fill="#97B6E6" cx="438.9" cy="915.5" r="15.2"/>
	<circle fill="#97B6E6" cx="504.3" cy="984.9" r="15.2"/>
	
		<linearGradient id="SVGID_56_" gradientUnits="userSpaceOnUse" x1="-17.4077" y1="178.3969" x2="396.3284" y2="263.0538" gradientTransform="matrix(1.1192 0 0 -1.1192 371.7637 1208.7047)">
		<stop  offset="0" style="stop-color:#6A808D"/>
		<stop  offset="1" style="stop-color:#D0E1ED"/>
	</linearGradient>
	<ellipse fill="url(#SVGID_56_)" cx="505.4" cy="977.7" rx="13.3" ry="6.2"/>
	
		<linearGradient id="SVGID_57_" gradientUnits="userSpaceOnUse" x1="-180.3594" y1="150.3067" x2="233.3746" y2="234.9633" gradientTransform="matrix(1.1192 0 0 -1.1192 371.7637 1208.7047)">
		<stop  offset="0" style="stop-color:#6A808D"/>
		<stop  offset="1" style="stop-color:#D0E1ED"/>
	</linearGradient>
	<ellipse fill="url(#SVGID_57_)" cx="323" cy="1009.2" rx="13.3" ry="6.2"/>
	<path fill="#D4E6FC" d="M515.6,958.5c-1.5-0.3-2.2,0.3-3.9,0.2L383.5,945l70.5-29.8c3-1.2,4.5-2.8,4.4-4.3l0,0v-12.1v-12.5
		l-11.2,5.3v1.1c-10.2-2-23.6-1.2-30.8,1.8l-84.8,35.9c-4.3,1.8-12.9,1.8-17.1-0.1l-84.8-36.7c-7.2-3.1-20.5-3.9-30.8-2.1v-1
		l-11.2-5.7v17.8v7.3l0,0c0.1,1.5,1.6,2.8,4.4,4l70.5,30.4l-128.1,12.3c-1.7,0.1-1.9-0.7-3.4-0.3l-1.5-0.1l-11.2-5.3v24.7l0,0
		c0,0.7,0.3,1.5,1.1,2.1l0,0c3.9,3.8,17,5.9,29.2,4.8l137.2-13.2c6.8-0.7,13.9,1,13.9,3.2v32.8v12.1c0,4,10.4,7.3,23.2,7.3
		c12.9,0.1,23.2-3.1,23.2-7.1v-12.1v-32.8c0-2.2,7.1-3.8,13.9-3l137.2,14.5c12.2,1.3,25.3-0.7,29.2-4.5l0,0c0.8-0.7,1.1-1.5,1.1-2.1
		l0,0l0,0l0,0v-12.1v-12.5l-11.2,5.3H515.6z"/>
	<g opacity="0.92">
		
			<linearGradient id="SVGID_58_" gradientUnits="userSpaceOnUse" x1="-45.5925" y1="341.7228" x2="-39.3377" y2="-2.3008" gradientTransform="matrix(1.1192 0 0 -1.1192 371.7637 1208.7047)">
			<stop  offset="0" style="stop-color:#FFFFFF"/>
			<stop  offset="1" style="stop-color:#F7FBFF"/>
		</linearGradient>
		<path fill="url(#SVGID_58_)" d="M511.6,945.9l-137.2-14.5c-6.8-0.7-9.5-3.2-5.3-5l84.8-35.9c7.5-3.1,5.3-7.7-5.1-10.1
			c-10.4-2.4-24.8-1.8-32.5,1.5l-84.7,35.9c-4.3,1.8-12.9,1.8-17.1-0.1l-84.8-36.7c-7.5-3.2-22-4-32.5-1.8l0,0
			c-10.4,2.2-12.6,6.8-5.1,10.1l84.8,36.7c4.3,1.8,1.6,4.4-5.3,5l-137.2,13.2c-12.2,1.1-18.9,5.3-14.9,9.1l0,0
			c3.9,3.8,17,5.9,29.2,4.8L286,944.8c6.8-0.7,13.9,1,13.9,3.2v44.9c0,4,10.4,7.3,23.2,7.3c12.9,0.1,23.2-3.1,23.2-7.1v-44.9
			c0-2.2,7.1-3.8,13.9-3l137.2,14.5c12.2,1.3,25.3-0.7,29.2-4.5l0,0C530.5,951.3,523.8,947.3,511.6,945.9z"/>
	</g>
	
		<linearGradient id="SVGID_59_" gradientUnits="userSpaceOnUse" x1="-79.7078" y1="311.1745" x2="-19.7443" y2="311.1745" gradientTransform="matrix(1.1192 0 0 -1.1192 371.7637 1208.7047)">
		<stop  offset="0" style="stop-color:#F7FBFF"/>
		<stop  offset="0.854" style="stop-color:#C2DBFF"/>
	</linearGradient>
	<path fill="url(#SVGID_59_)" d="M307.8,781.9c0,0,0.2,136.8,0,151.6c-0.1,7.2,30.4,7.6,30.4,0c0-14.9,0-151.6,0-151.6H307.8z"/>
</g>
<linearGradient id="SVGID_60_" gradientUnits="userSpaceOnUse" x1="-181.4186" y1="846.3823" x2="-26.2495" y2="382.6791" gradientTransform="matrix(1.1192 0 0 -1.1192 371.7637 1208.7047)">
	<stop  offset="0" style="stop-color:#F7FBFF"/>
	<stop  offset="0.854" style="stop-color:#C2DBFF"/>
</linearGradient>
<path fill="url(#SVGID_60_)" d="M372.2,771.2c-47.7-7.2-123.1-214.5-148.8-289.5c-5.7-16.8-19.5-29.5-36.6-34.1l-113-30.3
	c-14.8-3.9-28.7,9.1-25.5,24.1c0,0,42.4,197.6,89.2,266.7c31.6,46.6,101.1,86.7,186.6,86.7c25,0,50.7-3.1,75.4-8.1
	c51.4-9.2,94.2-24.4,123-36.6C534.1,745.1,443.2,781.9,372.2,771.2z"/>
<path fill="#7622A4" d="M283.4,328.7l-55.7-10.3c-11.4,4.1-19,4.4-19,15.1S229.5,354,246,354c16.5,0,44.5-2.4,46-10.7
	C293.5,334.7,283.4,328.7,283.4,328.7z"/>
<path fill="#F7FBFF" d="M528.6,721.6c-17.1,9.7-32.2,15.9-73,26.9c-41.1,11.1-99.3,12.3-120.1-12.9c-38.4-46.4-61-199.1-87.7-263
	c-9.4-22.4-33.9-31.4-66.8-40.3l-78.7-21c-12.4-3.4-19.1-4.1-30.7,0.1c-6.8,2.6-15.6,9.3-15.6,9.3c6.4-3.9,10.2-5.5,20.9-2.6
	l78.7,21c32.9,8.8,56.7,13.9,67.2,41.1c22.2,57.9,52,236.3,89.9,276.2c31.6,33.4,101.8,27.9,142.9,16.9
	c62.1-16.7,74.6-27.3,74.6-27.3c3.2-3,5.8-6,6.2-9.5l-0.2-27.2C535.9,713.8,533.3,719,528.6,721.6z"/>
<g>
	<g>
		<path id="SVGID_34_" fill="#3070A3" d="M218.4,331.9c-10.3,12.6,68.5,22,67.2,5.8c-1.2-16.2,12.8-43.2,15.8-54.6
			c2-7.6-49.4-58-62.4,2.5C236.1,299,229,319,218.4,331.9z"/>
	</g>
	<g>
		<defs>
			<path id="SVGID_61_" d="M218.4,331.9c-10.3,12.6,68.5,22,67.2,5.8c-1.2-16.2,12.8-43.2,15.8-54.6c2-7.6-49.4-58-62.4,2.5
				C236.1,299,229,319,218.4,331.9z"/>
		</defs>
		<clipPath id="SVGID_62_">
			<use xlink:href="#SVGID_61_"  overflow="visible"/>
		</clipPath>
		<path clip-path="url(#SVGID_62_)" fill="#95BDE5" d="M227.1,287.2c-3.2,10.6-70.6,63.6,42.3,61.8c0,0,12.2-37.4,31.8-34.5
			C313.6,316.3,227.1,287.2,227.1,287.2z"/>
	</g>
</g>
<g>
	<g>
		<linearGradient id="SVGID_63_" gradientUnits="userSpaceOnUse" x1="220.7732" y1="203.0938" x2="362.8787" y2="203.0938">
			<stop  offset="0" style="stop-color:#7622A4"/>
			<stop  offset="1" style="stop-color:#C60983"/>
		</linearGradient>
		<path id="SVGID_14_" fill="url(#SVGID_63_)" d="M343.5,170.7c-12-6.5-28.5-8.8-45.2-0.7c-7.1,3.5-15.9,1.8-22.2-1.5
			c-15.1-7.6-57.3,8.1-55.3,40.5c8.1,14.4,7.5,13.4,24.6,23.5c10.2,6,63.7,0.8,68.2,8.8l10.1-8.8
			C347.3,240.7,386.8,194.1,343.5,170.7z"/>
	</g>
</g>
<g>
	<defs>
		<path id="SVGID_64_" d="M343.5,170.7c-12-6.5-28.5-8.8-45.2-0.7c-7.1,3.5-15.9,1.8-22.2-1.5c-15.1-7.6-57.3,8.1-55.3,40.5
			c8.1,14.4,7.5,13.4,24.6,23.5c10.2,6,63.7,0.8,68.2,8.8l10.1-8.8C347.3,240.7,386.8,194.1,343.5,170.7z"/>
	</defs>
	<clipPath id="SVGID_65_">
		<use xlink:href="#SVGID_64_"  overflow="visible"/>
	</clipPath>
	<path clip-path="url(#SVGID_65_)" fill="#95BDE5" d="M317.3,209.7c-8.1-3.1-27.2,0.7-26.7,11c0.4,10.3-25.1,17.9-35.5,31.9l3.8,1.1
		l57.3-2.1l32.3-8.4c0,0,26.5,9.2,15.9-8.6C349.8,210.1,361,226.7,317.3,209.7z"/>
</g>
<g>
	<g>
		<g>
			<defs>
				<path id="SVGID_66_" d="M298.1,211.2c-29.3,11.9-69.1,12.8-77.2-2.1c3.4,36.1,9.4,58.6,15.2,86l35.4,7.8l42.2-61.6
					C309.3,232.5,309.3,206.6,298.1,211.2z"/>
			</defs>
			<clipPath id="SVGID_67_">
				<use xlink:href="#SVGID_66_"  overflow="visible"/>
			</clipPath>
		</g>
	</g>
	<g>
		<g>
			<path id="SVGID_15_" fill="#7622A4" d="M298.1,211.2c-29.3,11.9-69.1,12.8-77.2-2.1c3.4,36.1,9.4,58.6,15.2,86l35.4,7.8
				l42.2-61.6C309.3,232.5,309.3,206.6,298.1,211.2z"/>
		</g>
		<g>
			<defs>
				<path id="SVGID_68_" d="M298.1,211.2c-29.3,11.9-69.1,12.8-77.2-2.1c3.4,36.1,9.4,58.6,15.2,86l35.4,7.8l42.2-61.6
					C309.3,232.5,309.3,206.6,298.1,211.2z"/>
			</defs>
			<use xlink:href="#SVGID_68_"  overflow="visible" fill="#7622A4"/>
			<clipPath id="SVGID_69_">
				<use xlink:href="#SVGID_68_"  overflow="visible"/>
			</clipPath>
			<path clip-path="url(#SVGID_69_)" fill="#7622A4" d="M300.5,210.2c-3,1.1-5.1,3.7-5.9,6.7c-5.3,19.8-32,63.2-46.8,75.9
				c-16.1,13.8,33.1,19.6,33.1,19.6l39.2-92.3l-19.4-9.8H300.5z"/>
		</g>
	</g>
	<g>
		<g>
			<defs>
				<path id="SVGID_70_" d="M298.1,211.2c-29.3,11.9-69.1,12.8-77.2-2.1c3.4,36.1,9.4,58.6,15.2,86l35.4,7.8l42.2-61.6
					C309.3,232.5,309.3,206.6,298.1,211.2z"/>
			</defs>
			<clipPath id="SVGID_71_">
				<use xlink:href="#SVGID_70_"  overflow="visible"/>
			</clipPath>
		</g>
	</g>
</g>
<g>
	<g>
		<path id="SVGID_40_" fill="#3070A3" d="M287.1,255.3c-3.4,6.7-6.7,18.2-1.5,26.1c-9.8,12.2-25.5,18.7-24.4,19.2
			c15.8,7.5,33.2,14.8,39.3,15.2c12.9,1.1,22-37.8,23.4-45.2c2.1-11.6-3-13.4-3.7-25.1c-0.3-6.6,5.7-18.4,5.7-18.4
			c-9.2-5-10.9-4-22.8,21.8C300.3,255.3,297.2,234.7,287.1,255.3z"/>
	</g>
	<g>
		<defs>
			<path id="SVGID_72_" d="M287.1,255.3c-3.4,6.7-6.7,18.2-1.5,26.1c-9.8,12.2-25.5,18.7-24.4,19.2c15.8,7.5,33.2,14.8,39.3,15.2
				c12.9,1.1,22-37.8,23.4-45.2c2.1-11.6-3-13.4-3.7-25.1c-0.3-6.6,5.7-18.4,5.7-18.4c-9.2-5-10.9-4-22.8,21.8
				C300.3,255.3,297.2,234.7,287.1,255.3z"/>
		</defs>
		<clipPath id="SVGID_73_">
			<use xlink:href="#SVGID_72_"  overflow="visible"/>
		</clipPath>
		<path clip-path="url(#SVGID_73_)" fill="#95BDE5" d="M329.3,190.5l-33.1-9.5c-2.1-0.1-120.1,195.7-19.4,153.3
			c21.2-9,53.7-60,34.1-82.3c-4.4-5-2.9-8.2,0-24.2C313.8,212.1,324.6,195.2,329.3,190.5z"/>
	</g>
</g>
<path fill="#95BDE5" d="M292.2,254.1c-2.7,3.9-7.5,22.6,0.2,19.6c3.5-1.3,5-7.8,5.4-10.9C299.4,251.3,294.9,250.1,292.2,254.1z"/>
<path fill="#2848BD" d="M779,886.7c-1.2-0.4-2.7,0.1-3.1,1.3c-0.4,1.2,0.1,2.7,1.3,3.1c12.2,4.8,10.3,19.9,10.2,20.6
	c-0.2,1.3,0.8,2.6,2,2.7c0.1,0,0.2,0,0.3,0c1.2,0,2.2-0.9,2.4-2.1C793.2,905.9,791.6,891.8,779,886.7z"/>
<path fill="#2848BD" d="M793.3,885.8c-1.2-0.4-2.7,0.1-3.1,1.3c-0.4,1.2,0.1,2.7,1.3,3.1c12.2,4.8,10.3,19.9,10.2,20.6
	c-0.2,1.3,0.8,2.6,2,2.7c0.1,0,0.2,0,0.3,0c1.2,0,2.2-0.9,2.4-2.1C807.5,904.8,805.9,890.7,793.3,885.8z"/>
<path fill="#2848BD" d="M810.1,884.9c-1.2-0.4-2.7,0.1-3.1,1.3c-0.4,1.2,0.1,2.7,1.3,3.1c12.2,4.8,10.3,19.9,10.2,20.6
	c-0.2,1.3,0.8,2.6,2,2.7c0.1,0,0.2,0,0.3,0c1.2,0,2.2-0.9,2.4-2.1C824.2,904,822.6,890,810.1,884.9z"/>
<path fill="#2848BD" d="M535.1,852.4c-1.1-0.7-2.7-0.2-3.2,0.9c-0.7,1.1-0.2,2.7,0.9,3.2c9.6,5.5,12.5,10.6,12.5,10.6
	c0.4,0.8,1.2,1.3,2.1,1.3c0.3,0,0.8-0.1,1.1-0.2c1.2-0.6,1.7-2,1-3.2C549.5,864.9,546.3,858.6,535.1,852.4z"/>
<path fill="#2848BD" d="M548.1,853.7c-1.1-0.7-2.7-0.2-3.2,0.9c-0.7,1.1-0.2,2.7,0.9,3.2c9.6,5.5,12.5,10.6,12.5,10.6
	c0.4,0.8,1.2,1.3,2.1,1.3c0.3,0,0.8-0.1,1.1-0.2c1.2-0.6,1.7-2,1-3.2C562.4,866.1,559.2,860,548.1,853.7z"/>
<path fill="#2848BD" d="M560.6,855.7c-1.1-0.7-2.7-0.2-3.2,0.9c-0.7,1.1-0.2,2.7,0.9,3.2c9.6,5.5,12.5,10.6,12.5,10.6
	c0.4,0.8,1.2,1.3,2.1,1.3c0.3,0,0.8-0.1,1.1-0.2c1.2-0.6,1.7-2,1-3.2C575.1,868.1,571.8,862,560.6,855.7z"/>
<linearGradient id="SVGID_74_" gradientUnits="userSpaceOnUse" x1="320.9659" y1="570.1822" x2="301.2014" y2="525.3196" gradientTransform="matrix(1.1192 0 0 -1.1192 371.7637 1208.7047)">
	<stop  offset="0" style="stop-color:#F6FAFF"/>
	<stop  offset="0.1729" style="stop-color:#F1F7FF"/>
	<stop  offset="0.3638" style="stop-color:#E4EFFF"/>
	<stop  offset="0.5625" style="stop-color:#CEE2FF"/>
	<stop  offset="0.6507" style="stop-color:#C2DBFF"/>
	<stop  offset="1" style="stop-color:#C2DBFF"/>
</linearGradient>
<path fill="url(#SVGID_74_)" d="M753.7,571.3c-10.7-6.3-24.2-9.2-31.9-6.8c-14.7,4.5-20.7,9.8-25.2,15.8c-2.4,3.1-5,10.7-1.9,11.9
	l4.7,1.7c8.1,2.9,16.8,2.9,24.8-0.1l31.2-11.9C758.5,580.7,759.2,574.5,753.7,571.3z"/>
<linearGradient id="SVGID_75_" gradientUnits="userSpaceOnUse" x1="294.7735" y1="556.469" x2="287.4066" y2="539.7472" gradientTransform="matrix(1.1192 0 0 -1.1192 371.7637 1208.7047)">
	<stop  offset="0" style="stop-color:#FFFFFF"/>
	<stop  offset="1" style="stop-color:#C2DBFF"/>
</linearGradient>
<path fill="url(#SVGID_75_)" d="M694.8,583.4c-17.6,3.8-5.8,11.9-3.2,11.9c2.6,0,20.7,0.8,20.7,0.8S712.4,579.6,694.8,583.4z"/>
<rect x="1242.5" y="1159.9" fill="#7622A4" width="288" height="288"/>
<rect x="1581.2" y="1150" fill="#C60983" width="288" height="288"/>
<linearGradient id="SVGID_76_" gradientUnits="userSpaceOnUse" x1="2161.2039" y1="1474.2712" x2="1964.4764" y2="1133.5294">
	<stop  offset="0" style="stop-color:#7622A4"/>
	<stop  offset="1" style="stop-color:#C60983"/>
</linearGradient>
<rect x="1918.8" y="1159.9" fill="url(#SVGID_76_)" width="288" height="288"/>
</svg>
